<svg width="406" height="218" viewBox="0 0 406 218" fill="none" xmlns="http://www.w3.org/2000/svg">
<g clip-path="url(#clip0_717_25465)">
<path d="M77.2928 216.5L1.14953 216.5L101.466 108.871L101.784 108.53L101.466 108.189L1.14954 0.559875L77.2928 0.559872L177.928 108.53L77.2928 216.5Z" fill="#191919" stroke="#004466"/>
<path d="M193.729 216.5L117.586 216.5L217.902 108.871L218.22 108.53L217.902 108.189L117.586 0.559875L193.729 0.559872L294.364 108.53L193.729 216.5Z" fill="#191919" stroke="#004466"/>
<path d="M304.681 216.496L228.538 216.496L328.855 108.867L329.173 108.526L328.855 108.185L228.538 0.555878L304.682 0.555874L405.316 108.526L304.681 216.496Z" fill="#191919" stroke="#004466"/>
</g>
<defs>
<clipPath id="clip0_717_25465">
<rect width="218" height="406" fill="white" transform="translate(0 218) rotate(-90)"/>
</clipPath>
</defs>
</svg>
