<svg width="2564" height="413" viewBox="0 0 2564 413" fill="none" xmlns="http://www.w3.org/2000/svg">
<path d="M2281.79 257.07C2283.14 255.771 2285.01 255.014 2286.98 255.014H2466.32C2469.59 255.014 2471.23 258.801 2468.92 261.019L2433.49 294.944C2432.13 296.243 2430.27 297 2428.29 297H2248.96C2245.68 297 2244.04 293.213 2246.36 290.994L2281.79 257.07Z" fill="#C2C2C2"/>
<path d="M2278.53 122.056C2279.95 120.757 2281.81 120 2283.74 120H2463.18C2466.46 120 2468.1 123.787 2465.79 126.006L2430.34 159.93C2428.98 161.229 2427.11 161.986 2425.14 161.986H2245.69C2242.41 161.986 2240.77 158.199 2243.09 155.981L2278.53 122.056Z" fill="#C2C2C2"/>
<path d="M2433.49 189.563C2432.13 188.264 2430.27 187.507 2428.29 187.507H2248.96C2245.68 187.507 2244.04 191.294 2246.36 193.513L2281.79 227.437C2283.14 228.736 2285.01 229.493 2286.98 229.493H2466.32C2469.59 229.493 2471.23 225.706 2468.92 223.487L2433.49 189.563Z" fill="#C2C2C2"/>
<path fill-rule="evenodd" clip-rule="evenodd" d="M1877.48 119H2026.77C2032.47 119 2037.23 119.908 2042.93 122.633C2049.59 125.358 2053 129.67 2055.65 133.356C2055.65 133.356 2056.25 134.313 2056.65 134.951C2059.51 139.492 2061 144.432 2061 150.79C2061 156.24 2060.05 161.69 2056.25 167.14L1962.11 321.55C1960.21 325.183 1956.4 327 1951.65 327C1947.84 327 1944.04 325.183 1941.19 321.55L1848.95 167.14C1847.05 163.507 1843.25 158.965 1843.25 151.699C1842.3 145.341 1844.2 139.891 1847.05 134.441C1849.9 128.991 1857.71 123.474 1861.06 122.191C1863.06 121.241 1873.68 119 1877.48 119ZM1940.24 140.799H1877.48C1873.68 140.799 1871.77 140.799 1870.82 141.707C1868.92 142.616 1867.97 143.524 1867.02 145.341C1866.07 146.249 1866.07 148.065 1866.07 149.882C1866.07 150.79 1867.02 151.699 1868.92 155.332L1940.24 273.41V140.799ZM1963.06 135.27V274.319L2035.33 155.332C2036.28 153.515 2036.28 151.699 2036.28 149.882C2036.28 148.065 2036.26 146.755 2035.25 145.16C2034.25 143.883 2034.25 143.883 2033.58 143.245L2032.47 142.616C2030.57 141.707 2028.67 141.707 2025.82 141.707H1963.06V135.27Z" fill="#C2C2C2"/>
<path d="M1555.45 247.615L1555.1 94.2671L1641.94 207.172L1555.45 247.615Z" stroke="#C2C2C2" stroke-width="15"/>
<path d="M1541.23 246.814L1455.49 206.744L1540.82 95.0255L1541.23 171.912V171.931V246.814Z" stroke="#C2C2C2" stroke-width="15"/>
<path d="M1554.89 324.687V280.134L1624.19 247.971L1554.89 324.687Z" stroke="#C2C2C2" stroke-width="15"/>
<path d="M1473.25 247.975L1541.2 279.528V323.237L1473.25 247.975Z" stroke="#C2C2C2" stroke-width="15"/>
<path d="M1554.44 181.945L1632.89 209.973L1554.44 246.422V181.945Z" stroke="#C2C2C2" stroke-width="15"/>
<path d="M1541.2 182.777V247.398L1462.72 210.816L1541.2 182.777Z" stroke="#C2C2C2" stroke-width="15"/>
<path d="M47 306.339V98H119.777C134.279 98 146.239 100.509 155.658 105.528C165.077 110.479 172.091 117.159 176.698 125.568C181.306 133.91 183.61 143.167 183.61 153.34C183.61 162.292 182.018 169.684 178.833 175.517C175.716 181.348 171.582 185.96 166.432 189.351C161.35 192.742 155.827 195.253 149.864 196.88V198.914C156.234 199.32 162.638 201.558 169.075 205.628C175.512 209.698 180.9 215.529 185.236 223.126C189.573 230.721 191.742 240.013 191.742 250.999C191.742 261.442 189.37 270.835 184.627 279.178C179.883 287.52 172.395 294.132 162.163 299.014C151.931 303.896 138.616 306.339 122.217 306.339H47ZM72.2078 283.958H122.217C138.683 283.958 150.372 280.772 157.284 274.396C164.264 267.954 167.754 260.155 167.754 250.999C167.754 243.946 165.958 237.435 162.366 231.467C158.775 225.432 153.659 220.616 147.018 217.022C140.377 213.359 132.517 211.527 123.437 211.527H72.2078V283.958ZM72.2078 189.555H118.964C126.554 189.555 133.398 188.062 139.497 185.079C145.663 182.095 150.542 177.891 154.133 172.464C157.792 167.039 159.622 160.664 159.622 153.34C159.622 144.184 156.437 136.419 150.067 130.044C143.698 123.601 133.601 120.38 119.777 120.38H72.2078V189.555ZM275.852 310C265.96 310 256.981 308.136 248.916 304.405C240.854 300.608 234.449 295.149 229.707 288.028C224.962 280.84 222.59 272.158 222.59 261.985C222.59 253.033 224.352 245.776 227.877 240.215C231.401 234.586 236.109 230.178 242.006 226.991C247.9 223.804 254.405 221.43 261.521 219.871C268.704 218.241 275.92 216.954 283.171 216.003C292.658 214.784 300.348 213.867 306.245 213.257C312.207 212.58 316.544 211.461 319.254 209.9C322.032 208.34 323.422 205.628 323.422 201.763V200.948C323.422 190.911 320.678 183.112 315.19 177.551C309.767 171.99 301.535 169.209 290.49 169.209C279.037 169.209 270.058 171.719 263.553 176.738C257.049 181.756 252.475 187.113 249.832 192.81L227.063 184.671C231.129 175.177 236.549 167.786 243.326 162.495C250.17 157.138 257.625 153.408 265.688 151.305C273.82 149.135 281.815 148.05 289.676 148.05C294.69 148.05 300.45 148.66 306.955 149.881C313.529 151.034 319.864 153.442 325.963 157.104C332.129 160.766 337.245 166.293 341.312 173.685C345.378 181.078 347.41 190.979 347.41 203.39V306.339H323.422V285.18H322.202C320.576 288.571 317.866 292.198 314.071 296.063C310.275 299.929 305.229 303.22 298.926 305.932C292.624 308.645 284.933 310 275.852 310ZM279.511 288.435C288.999 288.435 296.994 286.569 303.501 282.839C310.073 279.11 315.02 274.294 318.34 268.394C321.728 262.493 323.422 256.288 323.422 249.778V227.804C322.406 229.025 320.17 230.144 316.714 231.161C313.325 232.112 309.395 232.959 304.923 233.705C300.518 234.384 296.216 234.994 292.014 235.537C287.881 236.011 284.527 236.418 281.951 236.756C275.716 237.571 269.89 238.894 264.468 240.724C259.115 242.487 254.779 245.166 251.458 248.761C248.206 252.288 246.578 257.102 246.578 263.206C246.578 271.547 249.662 277.855 255.829 282.127C262.063 286.333 269.958 288.435 279.511 288.435ZM501.783 185.079L480.234 191.183C478.88 187.588 476.88 184.095 474.237 180.706C471.663 177.246 468.139 174.398 463.666 172.16C459.194 169.922 453.468 168.803 446.489 168.803C436.934 168.803 428.972 171.007 422.601 175.415C416.301 179.755 413.148 185.282 413.148 191.996C413.148 197.965 415.317 202.677 419.655 206.137C423.991 209.596 430.768 212.478 439.983 214.784L463.158 220.479C477.117 223.871 487.518 229.059 494.363 236.045C501.207 242.962 504.63 251.88 504.63 262.799C504.63 271.751 502.054 279.755 496.903 286.807C491.821 293.859 484.706 299.42 475.559 303.49C466.411 307.56 455.772 309.594 443.643 309.594C427.718 309.594 414.538 306.135 404.102 299.218C393.667 292.3 387.06 282.195 384.282 268.903L407.05 263.206C409.218 271.615 413.318 277.923 419.349 282.127C425.447 286.333 433.41 288.435 443.235 288.435C454.416 288.435 463.294 286.06 469.867 281.314C476.507 276.498 479.828 270.735 479.828 264.02C479.828 258.594 477.93 254.05 474.135 250.388C470.341 246.659 464.513 243.878 456.652 242.047L430.632 235.943C416.335 232.552 405.83 227.296 399.121 220.175C392.481 212.987 389.161 204.001 389.161 193.217C389.161 184.401 391.635 176.602 396.581 169.82C401.595 163.038 408.406 157.714 417.011 153.848C425.685 149.983 435.51 148.05 446.489 148.05C461.938 148.05 474.067 151.441 482.876 158.223C491.755 165.005 498.055 173.957 501.783 185.079ZM606.197 309.594C591.154 309.594 578.177 306.271 567.268 299.625C556.425 292.911 548.056 283.552 542.162 271.547C536.333 259.476 533.419 245.438 533.419 229.432C533.419 213.427 536.333 199.32 542.162 187.113C548.056 174.838 556.255 165.276 566.76 158.426C577.33 151.509 589.663 148.05 603.757 148.05C611.889 148.05 619.92 149.406 627.847 152.119C635.775 154.832 642.992 159.24 649.498 165.344C656.003 171.379 661.187 179.382 665.049 189.351C668.912 199.32 670.842 211.595 670.842 226.177V236.35H550.496V215.597H646.448C646.448 206.781 644.686 198.914 641.164 191.996C637.707 185.079 632.761 179.619 626.322 175.619C619.954 171.617 612.431 169.616 603.757 169.616C594.204 169.616 585.935 171.99 578.957 176.738C572.044 181.416 566.726 187.52 562.997 195.048C559.271 202.575 557.407 210.647 557.407 219.26V233.095C557.407 244.895 559.441 254.898 563.506 263.104C567.64 271.243 573.366 277.449 580.685 281.72C588.003 285.924 596.506 288.028 606.197 288.028C612.499 288.028 618.192 287.145 623.274 285.382C628.423 283.552 632.861 280.84 636.589 277.244C640.316 273.583 643.196 269.039 645.228 263.612L668.404 270.124C665.964 277.991 661.865 284.907 656.105 290.877C650.344 296.776 643.23 301.388 634.759 304.711C626.288 307.966 616.768 309.594 606.197 309.594ZM766.288 309.594C753.277 309.594 741.792 306.305 731.829 299.727C721.868 293.081 714.075 283.72 708.451 271.649C702.827 259.51 700.014 245.166 700.014 228.619C700.014 212.206 702.827 197.965 708.451 185.892C714.075 173.821 721.902 164.497 731.931 157.918C741.96 151.339 753.548 148.05 766.694 148.05C776.858 148.05 784.889 149.746 790.784 153.136C796.746 156.46 801.286 160.257 804.405 164.529C807.589 168.735 810.061 172.194 811.823 174.906H813.857V98H837.845V306.339H814.67V282.331H811.823C810.061 285.18 807.555 288.773 804.303 293.115C801.05 297.387 796.408 301.218 790.377 304.609C784.345 307.932 776.316 309.594 766.288 309.594ZM769.54 288.028C779.163 288.028 787.293 285.518 793.934 280.499C800.574 275.413 805.623 268.394 809.079 259.442C812.535 250.422 814.263 240.013 814.263 228.212C814.263 216.546 812.569 206.341 809.181 197.591C805.793 188.775 800.778 181.925 794.138 177.042C787.497 172.092 779.299 169.616 769.54 169.616C759.375 169.616 750.904 172.228 744.128 177.449C737.419 182.603 732.371 189.624 728.983 198.508C725.662 207.324 724.002 217.225 724.002 228.212C724.002 239.334 725.696 249.439 729.085 258.526C732.541 267.546 737.623 274.734 744.332 280.093C751.108 285.382 759.511 288.028 769.54 288.028ZM1029.04 309.594C1014.94 309.594 1002.58 306.237 991.938 299.523C981.367 292.808 973.1 283.416 967.137 271.345C961.241 259.272 958.293 245.166 958.293 229.025C958.293 212.748 961.241 198.542 967.137 186.401C973.1 174.262 981.367 164.835 991.938 158.121C1002.58 151.407 1014.94 148.05 1029.04 148.05C1043.13 148.05 1055.47 151.407 1066.04 158.121C1076.68 164.835 1084.94 174.262 1090.84 186.401C1096.8 198.542 1099.78 212.748 1099.78 229.025C1099.78 245.166 1096.8 259.272 1090.84 271.345C1084.94 283.416 1076.68 292.808 1066.04 299.523C1055.47 306.237 1043.13 309.594 1029.04 309.594ZM1029.04 288.028C1039.75 288.028 1048.55 285.282 1055.46 279.787C1062.38 274.294 1067.49 267.071 1070.81 258.119C1074.13 249.167 1075.79 239.47 1075.79 229.025C1075.79 218.582 1074.13 208.849 1070.81 199.829C1067.49 190.809 1062.38 183.52 1055.46 177.957C1048.55 172.396 1039.75 169.616 1029.04 169.616C1018.33 169.616 1009.52 172.396 1002.61 177.957C995.698 183.52 990.583 190.809 987.263 199.829C983.941 208.849 982.281 218.582 982.281 229.025C982.281 239.47 983.941 249.167 987.263 258.119C990.583 267.071 995.698 274.294 1002.61 279.787C1009.52 285.282 1018.33 288.028 1029.04 288.028ZM1160.39 212.342V306.339H1136.4V150.085H1159.58V174.5H1161.61C1165.27 166.565 1170.82 160.19 1178.28 155.374C1185.73 150.491 1195.35 148.05 1207.14 148.05C1217.72 148.05 1226.97 150.22 1234.89 154.561C1242.82 158.833 1248.99 165.344 1253.39 174.092C1257.8 182.773 1260 193.759 1260 207.051V306.339H1236.01V208.681C1236.01 196.404 1232.83 186.843 1226.46 179.993C1220.09 173.075 1211.35 169.616 1200.23 169.616C1192.57 169.616 1185.73 171.277 1179.7 174.6C1173.74 177.925 1169.03 182.773 1165.57 189.147C1162.12 195.523 1160.39 203.254 1160.39 212.342Z" fill="#C2C2C2"/>
<path d="M1549.26 375.476C1639.67 375.476 1713.01 300.743 1713.01 208.488C1713.01 116.233 1639.67 41.5 1549.26 41.5C1458.85 41.5 1385.51 116.233 1385.51 208.488C1385.51 300.743 1458.85 375.476 1549.26 375.476Z" stroke="#9B9B9C" stroke-width="5"/>
<path d="M1952.46 375.476C2042.87 375.476 2116.21 300.743 2116.21 208.488C2116.21 116.233 2042.87 41.5 1952.46 41.5C1862.05 41.5 1788.71 116.233 1788.71 208.488C1788.71 300.743 1862.05 375.476 1952.46 375.476Z" stroke="#9B9B9C" stroke-width="5"/>
<path d="M2356.46 371.476C2446.87 371.476 2520.21 296.743 2520.21 204.488C2520.21 112.233 2446.87 37.5 2356.46 37.5C2266.05 37.5 2192.71 112.233 2192.71 204.488C2192.71 296.743 2266.05 371.476 2356.46 371.476Z" stroke="#9B9B9C" stroke-width="5"/>
</svg>
