<svg width="1167" height="1069" viewBox="0 0 1167 1069" fill="none" xmlns="http://www.w3.org/2000/svg">
<g clip-path="url(#clip0_149_116)">
<path d="M37 60.6666C51.7276 60.6666 63.6667 48.7276 63.6667 34C63.6667 19.2724 51.7276 7.33332 37 7.33332C22.2725 7.33331 10.3334 19.2724 10.3334 34C10.3334 48.7276 22.2724 60.6666 37 60.6666ZM42 1034L42 34L32 34L32 1034L42 1034Z" fill="black"/>
<path d="M1161.67 1032C1161.67 1017.27 1149.73 1005.33 1135 1005.33C1120.27 1005.33 1108.33 1017.27 1108.33 1032C1108.33 1046.73 1120.27 1058.67 1135 1058.67C1149.73 1058.67 1161.67 1046.73 1161.67 1032ZM1135 1027L35 1027V1037L1135 1037V1027Z" fill="black"/>
<path d="M908.412 159.07C918.826 169.484 935.711 169.484 946.125 159.07C956.539 148.656 956.539 131.772 946.125 121.358C935.711 110.944 918.826 110.944 908.412 121.358C897.998 131.772 897.998 148.656 908.412 159.07ZM37.6971 1034.74C261.51 1036.76 426.367 999.665 564.759 868.186C702.789 737.052 813.861 512.577 932.032 141.732L922.505 138.696C804.382 509.388 693.918 731.687 557.871 860.937C422.187 989.843 260.427 1026.75 37.7872 1024.74L37.6971 1034.74Z" fill="black"/>
</g>
<defs>
<clipPath id="clip0_149_116">
<rect width="1167" height="1069" fill="white"/>
</clipPath>
</defs>
</svg>
