<svg width="1786" height="2407" viewBox="0 0 1786 2407" fill="none" xmlns="http://www.w3.org/2000/svg">
<path fill-rule="evenodd" clip-rule="evenodd" d="M888.266 0L1778.08 1222.42L892.485 1659.99V1661.02L0.000976562 1221.41L7.48417 1218.58L888.265 0.0108484L888.266 0ZM832.485 1559.26L157.669 1226.01L832.485 971.24V1559.26ZM832.746 907.007L109.301 1180.14L829.201 184.151L832.746 882.501V907.007ZM943.139 177.336L1670.31 1176.31L944.709 902.361L943.139 177.336ZM944.848 966.548L946.115 1551.73L1619.32 1221.2L944.848 966.548Z" fill="black"/>
<path fill-rule="evenodd" clip-rule="evenodd" d="M892.483 2406.63L892.482 2406.62L0 1362L892.483 1799.95L1785.49 1362L892.483 2406.63ZM941.488 1842.75L1551.2 1543.73L941.488 2256.96V1842.75ZM234.207 1543.76L832.484 1837.35V2244.03L234.207 1543.76Z" fill="black"/>
</svg>
