<svg width="526" height="608" viewBox="0 0 526 608" fill="none" xmlns="http://www.w3.org/2000/svg">
<path d="M234.702 598.367C229.322 591.007 224.392 584.367 219.572 577.617C218.392 575.967 217.332 575.467 215.142 575.877C206.032 577.627 196.862 579.077 187.692 580.487C186.961 580.489 186.253 580.747 185.692 581.217C185.132 581.686 184.753 582.337 184.622 583.057C182.462 590.437 180.082 597.757 177.932 605.137C177.412 606.897 176.662 607.617 174.832 607.437C165.085 606.51 155.339 605.617 145.592 604.757C143.452 604.567 142.892 603.417 142.712 601.417C142.045 593.757 141.212 586.107 140.212 578.467C140.085 577.952 139.845 577.473 139.509 577.063C139.174 576.653 138.751 576.323 138.272 576.097C129.159 572.55 120.002 569.11 110.802 565.777C110.226 565.674 109.635 565.699 109.07 565.849C108.505 565.999 107.98 566.271 107.532 566.647C101.959 571.667 96.4786 576.78 91.092 581.987C89.482 583.537 88.222 583.987 86.252 582.547C78.502 576.917 70.672 571.387 62.842 565.877C61.272 564.767 60.992 563.727 61.842 561.877C65.082 554.877 68.052 547.797 71.252 540.797C71.992 539.167 71.702 538.227 70.542 536.887C64.622 529.997 58.722 523.087 53.152 515.887C51.502 513.777 50.152 513.337 47.722 513.957C40.722 515.717 33.722 517.167 26.722 518.957C24.562 519.497 23.412 518.957 22.512 516.957C18.6386 508.37 14.702 499.78 10.702 491.187C9.77198 489.187 10.142 488.047 11.982 486.747C18.202 482.387 24.232 477.747 30.412 473.347C31.872 472.347 32.062 471.347 31.732 469.627C30.0253 460.407 28.4586 451.157 27.032 441.877C26.762 440.117 26.232 439.287 24.542 438.797C17.162 436.617 9.83198 434.267 2.45198 432.117C0.561976 431.577 -0.168022 430.697 0.0319777 428.747C0.998644 419.107 1.91864 409.463 2.79197 399.817C2.97197 397.817 3.89197 397.137 5.79197 396.947C13.442 396.197 21.092 395.247 28.792 394.517C30.612 394.337 31.202 393.517 31.792 391.907C34.952 383.067 38.2253 374.277 41.612 365.537C42.242 363.907 42.232 362.887 40.982 361.587C35.792 356.177 30.772 350.587 25.572 345.217C24.012 343.607 23.572 342.367 25.002 340.387C30.582 332.727 36.0786 325.003 41.492 317.217C42.772 315.377 43.962 315.217 45.952 316.117C52.752 319.267 59.662 322.177 66.472 325.297C68.302 326.127 69.372 325.767 70.902 324.457C77.7753 318.523 84.7753 312.733 91.902 307.087C93.662 305.697 94.222 304.597 93.682 302.417C91.852 295.037 90.322 287.597 88.512 280.217C88.082 278.467 88.512 277.607 90.042 276.927C99.042 272.827 108.042 268.747 117.042 264.587C118.842 263.747 119.732 264.507 120.722 265.887C125.092 271.967 129.602 277.957 133.932 284.077C135.152 285.807 136.282 286.177 138.392 285.787C147.612 284.047 156.872 282.507 166.142 281.107C166.819 281.071 167.463 280.799 167.961 280.339C168.46 279.879 168.782 279.259 168.872 278.587C171.012 271.407 173.282 264.257 175.372 257.057C175.952 255.057 176.702 253.957 179.042 254.197C188.772 255.197 198.522 256.117 208.262 256.997C210.072 257.157 210.512 258.127 210.672 259.737C211.442 267.397 212.372 275.037 213.102 282.737C213.282 284.657 214.102 285.317 215.872 285.947C224.625 289.027 233.322 292.267 241.962 295.667C243.712 296.347 244.732 296.347 246.112 295.027C251.592 289.767 257.242 284.687 262.722 279.427C264.102 278.107 265.192 277.677 266.832 278.847C274.772 284.547 282.732 290.237 290.742 295.847C292.432 297.037 292.352 298.207 291.592 299.897C288.442 306.807 285.462 313.797 282.312 320.697C281.532 322.407 281.832 323.417 283.072 324.857C289.019 331.87 294.895 339.01 300.702 346.277C302.002 347.907 302.992 348.277 304.912 347.767C312.282 345.947 319.722 344.387 327.092 342.567C328.882 342.127 329.862 342.397 330.632 344.097C334.632 353.01 338.702 361.903 342.842 370.777C343.672 372.557 343.232 373.627 341.652 374.777C335.452 379.167 329.392 383.777 323.212 388.147C321.692 389.227 321.362 390.287 321.702 392.147C323.395 401.373 324.949 410.623 326.362 419.897C326.378 420.621 326.646 421.318 327.121 421.865C327.596 422.413 328.247 422.778 328.962 422.897C336.342 425.087 343.662 427.447 351.052 429.607C352.802 430.117 353.552 430.887 353.362 432.727C352.389 442.567 351.449 452.407 350.542 462.247C350.382 463.957 349.612 464.527 347.892 464.687C340.222 465.397 332.582 466.347 324.892 467.077C323.022 467.257 322.242 468.007 321.602 469.807C318.602 478.467 315.412 487.097 312.032 495.637C311.202 497.757 311.382 498.987 312.912 500.577C318.122 505.957 323.142 511.577 328.332 516.937C329.592 518.257 329.832 519.277 328.742 520.787C323.042 528.74 317.375 536.717 311.742 544.717C310.612 546.337 309.462 546.447 307.742 545.637C300.742 542.437 293.652 539.457 286.662 536.257C286.077 535.913 285.391 535.785 284.721 535.892C284.051 536 283.44 536.337 282.992 536.847C275.672 543.017 268.302 549.147 260.832 555.137C260.265 555.508 259.844 556.065 259.641 556.713C259.439 557.36 259.467 558.058 259.722 558.687C261.482 566.077 263.112 573.497 264.912 580.877C265.392 582.827 265.132 583.987 263.152 584.877C253.632 589.307 244.202 593.847 234.702 598.367ZM243.882 431.037C244.562 395.527 214.572 364.417 178.982 363.727C140.672 362.977 110.272 391.987 109.502 430.007C108.782 466.357 138.502 497.237 174.952 498.007C212.702 498.827 243.152 469.267 243.892 431.037H243.882Z" fill="black"/>
<path d="M284.861 190.949C290.951 191.849 296.201 192.569 301.431 193.409C303.131 193.679 304.071 193.188 305.061 191.678C308.501 186.428 312.061 181.249 315.841 176.219C316.383 175.666 316.709 174.938 316.76 174.165C316.811 173.393 316.585 172.628 316.121 172.009C313.601 167.579 311.291 163.009 308.771 158.609C307.911 157.099 308.061 156.089 309.371 154.999C314.441 150.789 319.491 146.559 324.481 142.259C325.971 140.969 327.091 141.009 328.601 142.259C332.521 145.509 336.601 148.569 340.601 151.789C341.077 152.278 341.708 152.587 342.387 152.662C343.066 152.737 343.75 152.573 344.321 152.199C350.028 149.352 355.808 146.642 361.661 144.069C363.261 143.359 363.991 142.559 364.001 140.789C364.001 135.689 364.271 130.599 364.291 125.499C364.291 123.689 364.851 122.779 366.731 122.499C373.221 121.409 379.731 120.219 386.181 119.009C388.111 118.639 389.031 119.409 389.691 121.209C391.381 125.799 393.351 130.289 395.031 134.889C395.761 136.889 396.861 137.449 398.961 137.559C405.041 137.879 411.111 138.449 417.161 139.149C419.021 139.369 420.081 139.029 421.031 137.399C423.601 132.999 426.401 128.729 428.931 124.319C429.064 123.973 429.269 123.66 429.533 123.4C429.796 123.14 430.113 122.94 430.46 122.812C430.807 122.684 431.178 122.632 431.547 122.659C431.917 122.686 432.276 122.791 432.601 122.969C438.691 125.209 444.771 127.469 450.901 129.599C452.901 130.309 453.351 131.469 453.001 133.479C452.181 138.299 451.651 143.179 450.811 147.999C450.589 148.746 450.64 149.547 450.955 150.26C451.27 150.973 451.829 151.55 452.531 151.889C457.701 155.249 462.751 158.779 467.701 162.479C469.301 163.669 470.381 163.979 472.161 162.939C476.471 160.409 480.961 158.189 485.301 155.719C486.831 154.839 487.921 154.719 489.141 156.199C493.401 161.359 497.708 166.479 502.061 171.559C503.181 172.859 503.131 173.849 502.061 175.189C498.821 179.119 495.821 183.249 492.521 187.129C491.131 188.759 491.401 189.909 492.261 191.629C495.021 197.159 497.671 202.759 500.121 208.439C500.831 210.099 501.611 210.739 503.371 210.749C508.471 210.749 513.561 211.049 518.661 211.089C520.471 211.089 521.421 211.739 521.731 213.529C522.851 220.029 523.961 226.528 525.201 232.988C525.591 235.048 524.631 235.829 522.951 236.479C518.191 238.289 513.431 240.109 508.771 242.159C508.268 242.445 507.833 242.838 507.496 243.309C507.159 243.781 506.929 244.319 506.821 244.888C506.121 251.238 505.741 257.629 505.061 263.979C504.861 265.819 505.241 266.889 506.891 267.839C511.301 270.389 515.561 273.189 519.961 275.749C521.471 276.629 521.851 277.529 521.261 279.129C518.941 285.395 516.668 291.682 514.441 297.988C513.821 299.758 512.861 300.129 511.041 299.819C506.041 298.959 500.951 298.389 495.921 297.569C495.227 297.361 494.48 297.411 493.821 297.711C493.161 298.011 492.631 298.539 492.331 299.199C488.911 304.459 485.331 309.619 481.551 314.659C480.421 316.189 480.241 317.258 481.171 318.888C483.701 323.308 485.981 327.889 488.541 332.279C489.411 333.779 489.391 334.758 488.081 335.858C482.871 340.208 477.661 344.569 472.501 348.979C471.131 350.149 470.151 349.799 468.881 348.759C464.951 345.519 460.881 342.459 456.931 339.229C456.42 338.7 455.74 338.367 455.009 338.289C454.278 338.21 453.543 338.391 452.931 338.798C447.221 341.658 441.361 344.198 435.651 347.048C435.097 347.361 434.62 347.793 434.251 348.311C433.883 348.829 433.634 349.423 433.521 350.048C433.191 355.128 433.101 360.228 433.101 365.328C433.101 367.328 432.431 368.239 430.501 368.569C424.108 369.669 417.721 370.818 411.341 372.018C409.501 372.358 408.451 371.898 407.751 369.958C406.021 365.168 403.931 360.509 402.171 355.729C401.541 354.009 400.601 353.589 398.871 353.479C392.704 353.079 386.541 352.548 380.381 351.888C378.451 351.678 377.281 351.958 376.251 353.768C373.781 358.108 370.981 362.258 368.491 366.578C367.581 368.168 366.701 368.729 364.921 368.069C358.648 365.749 352.358 363.482 346.051 361.268C344.401 360.688 344.051 359.678 344.301 358.048C345.111 353.048 345.741 347.958 346.581 342.928C346.784 342.182 346.718 341.389 346.394 340.687C346.071 339.984 345.51 339.419 344.811 339.089C339.551 335.649 334.411 332.018 329.341 328.298C327.931 327.298 326.891 327.059 325.341 327.939C320.831 330.509 316.201 332.878 311.691 335.458C310.121 336.368 309.181 335.988 308.141 334.738C303.861 329.612 299.551 324.502 295.211 319.409C294.081 318.089 294.211 317.099 295.281 315.789C298.591 311.789 301.731 307.628 305.011 303.608C305.494 303.124 305.793 302.487 305.857 301.806C305.921 301.126 305.745 300.444 305.361 299.879C302.521 294.172 299.808 288.392 297.221 282.539C297.02 281.839 296.581 281.231 295.981 280.818C295.381 280.406 294.656 280.215 293.931 280.279C288.731 280.279 283.541 279.948 278.341 279.898C276.771 279.898 275.981 279.419 275.711 277.819C274.584 271.152 273.404 264.468 272.171 257.768C271.861 256.068 272.511 255.259 274.091 254.659C278.951 252.829 283.741 250.789 288.601 248.959C290.181 248.369 290.601 247.478 290.721 245.858C291.128 239.485 291.658 233.122 292.311 226.768C292.491 225.128 292.191 224.208 290.761 223.368C286.371 220.778 282.101 217.989 277.691 215.439C276.011 214.439 275.441 213.439 276.131 211.589C278.461 205.319 280.691 199.008 283.131 192.768C283.441 191.868 284.511 191.289 284.861 190.949ZM398.591 293.779C408.152 293.788 417.5 290.962 425.454 285.657C433.407 280.351 439.608 272.806 443.272 263.975C446.936 255.144 447.898 245.425 446.036 236.048C444.174 226.67 439.572 218.056 432.812 211.295C426.052 204.534 417.439 199.93 408.062 198.066C398.684 196.202 388.965 197.161 380.133 200.823C371.302 204.485 363.755 210.685 358.448 218.637C353.141 226.59 350.313 235.938 350.321 245.499C350.321 258.301 355.406 270.58 364.458 279.634C373.51 288.688 385.788 293.776 398.591 293.779Z" fill="black"/>
<path d="M255.341 58.8586C256.741 54.9686 258.181 51.2386 259.341 47.4486C259.418 46.9917 259.397 46.5239 259.28 46.0757C259.163 45.6276 258.952 45.2094 258.661 44.8486C257.437 43.2693 256.034 41.8365 254.481 40.5786C252.001 38.6586 252.051 36.7686 253.981 34.5786C254.096 34.4159 254.2 34.2455 254.291 34.0686C259.391 26.0686 259.401 26.0686 268.191 29.7486C269.791 30.4186 270.841 30.3686 272.191 29.0786C274.381 26.9086 276.921 25.0786 279.121 22.9186C279.487 22.5154 279.765 22.0404 279.937 21.5239C280.109 21.0074 280.172 20.4606 280.121 19.9186C279.69 17.5517 279.112 15.2139 278.391 12.9186C277.951 11.3686 278.151 10.2586 279.791 9.51857C282.791 8.15857 285.681 6.51857 288.731 5.31857C289.243 5.20958 289.773 5.22442 290.277 5.36184C290.781 5.49926 291.246 5.75529 291.631 6.10857C293.731 8.35857 295.151 11.9986 297.631 12.9186C300.111 13.8386 303.561 11.7086 306.631 11.6386C310.191 11.5586 311.301 9.79857 312.011 6.70857C313.631 -0.291431 313.761 -0.291433 321.011 0.168567C328.011 0.618567 328.151 0.608565 328.691 7.54856C328.961 10.9486 329.841 13.2786 333.641 13.5486C334.448 13.6085 335.228 13.8661 335.911 14.2986C340.741 17.5386 344.391 15.7986 347.421 11.5986C349.321 8.94857 351.301 8.69857 353.851 10.7786C355.931 12.4786 358.351 13.7786 360.401 15.5186C361.041 16.0686 361.541 17.8086 361.161 18.3886C357.161 24.3886 358.261 29.2286 363.631 34.0486C366.021 36.2086 367.481 37.4286 370.831 36.3986C377.831 34.2586 377.881 34.4886 381.071 41.1186C383.921 47.0586 383.921 47.0586 378.761 51.0586C378.083 51.6474 377.364 52.1887 376.611 52.6786C374.911 53.6786 374.731 54.8486 375.231 56.6786C375.991 59.4586 376.181 62.3986 376.951 65.1786C377.41 66.3429 378.244 67.3211 379.321 67.9586C380.404 68.4547 381.552 68.7915 382.731 68.9586C388.391 70.5586 388.391 70.5586 388.071 76.5586C387.661 84.2886 387.681 84.4786 379.951 85.3686C376.761 85.7386 375.231 86.9486 374.651 90.0486C374.239 92.1064 373.538 94.0959 372.571 95.9586C371.571 97.9586 371.671 99.5286 373.491 100.959C373.642 101.087 373.785 101.224 373.921 101.369C379.781 107.369 379.781 107.369 374.861 114.269C374.281 115.089 373.631 115.849 373.101 116.699C372.171 118.209 371.011 118.839 369.401 117.759C363.771 114.009 359.401 114.989 354.511 119.909C351.621 122.839 351.101 124.849 352.051 128.459C353.901 135.459 354.831 133.599 348.291 137.099C341.291 140.849 341.101 140.859 336.421 134.349C334.671 131.929 333.051 131.249 330.231 132.159C327.791 132.949 325.111 133.019 322.621 133.689C322.116 133.861 321.65 134.133 321.252 134.489C320.853 134.844 320.53 135.276 320.301 135.759C319.401 138.069 318.991 140.589 318.061 142.889C317.833 143.357 317.498 143.765 317.083 144.08C316.668 144.394 316.184 144.606 315.671 144.699C312.277 144.689 308.886 144.458 305.521 144.009C305.031 143.843 304.588 143.563 304.23 143.19C303.871 142.818 303.608 142.364 303.461 141.869C302.771 138.869 303.351 135.009 301.651 132.979C299.951 130.949 295.911 131.069 293.231 129.629C290.121 127.959 288.231 128.909 286.081 131.199C281.031 136.499 280.931 136.399 274.831 132.199C269.381 128.449 269.381 128.449 271.911 122.419C272.453 121.462 272.85 120.431 273.091 119.359C273.217 118.313 272.985 117.255 272.431 116.359C270.483 113.829 268.393 111.411 266.171 109.119C265.779 108.755 265.317 108.474 264.814 108.292C264.31 108.109 263.776 108.03 263.241 108.059C260.943 108.408 258.686 108.984 256.501 109.779C254.501 110.479 253.341 109.839 252.501 107.979C251.271 105.249 249.931 102.569 248.611 99.8886C247.891 98.4386 247.891 97.2286 249.491 96.3886C255.241 93.3886 258.121 89.1786 254.951 82.6086C254.926 82.5101 254.926 82.407 254.951 82.3086C255.101 78.6786 253.421 76.9886 249.801 76.1286C243.091 74.5386 243.151 74.2786 243.511 67.3186C243.871 60.3586 243.861 60.4086 250.751 59.5286C252.301 59.3386 253.871 59.0786 255.341 58.8586ZM315.701 99.9786C321.122 99.9686 326.419 98.3541 330.925 95.3387C335.43 92.3232 338.942 88.0417 341.018 83.0336C343.094 78.0256 343.641 72.5151 342.59 67.1966C341.539 61.8782 338.938 56.9897 335.114 53.1473C331.289 49.3049 326.413 46.6804 321.1 45.6047C315.786 44.5289 310.273 45.05 305.255 47.1023C300.238 49.1546 295.939 52.6462 292.903 57.1371C289.866 61.6281 288.227 66.9174 288.191 72.3386C288.158 75.9666 288.846 79.565 290.215 82.9249C291.584 86.2848 293.607 89.3392 296.167 91.9108C298.726 94.4823 301.771 96.5197 305.125 97.9047C308.478 99.2897 312.073 99.9946 315.701 99.9786Z" fill="black"/>
</svg>
