<svg width="955" height="164" viewBox="0 0 955 164" fill="none" xmlns="http://www.w3.org/2000/svg">
<path d="M161.679 82.0341V81.716C161.52 36.7208 125.241 0 80.8396 0C36.4378 0 0 36.7208 0 82.0341C0 127.353 36.2729 164 80.8396 164C101.29 164.014 120.958 156.15 135.752 142.045C137.209 140.715 138.078 138.861 138.167 136.891C138.256 134.921 137.558 132.997 136.227 131.541C134.896 130.086 133.04 129.218 131.068 129.129C129.097 129.04 127.17 129.737 125.713 131.067L125.554 131.226C119.171 137.289 111.627 142 103.376 145.077C95.1246 148.155 86.336 149.534 77.5377 149.134C68.7394 148.733 60.1128 146.561 52.1758 142.747C44.2389 138.933 37.1552 133.556 31.3501 126.938L65.8836 71.613V97.2142C65.8836 109.447 70.6586 113.428 74.6719 114.541C78.6852 115.654 84.7051 114.848 91.2252 104.517L110.172 73.7824C110.678 72.8851 111.263 72.0332 111.911 71.2325V86.8215C111.911 98.2648 116.527 107.488 124.48 111.934C128.151 113.931 132.295 114.898 136.471 114.731C140.648 114.564 144.702 113.27 148.201 110.986C157.387 105.029 162.322 94.5961 161.679 82.0341ZM140.669 98.1342C139.394 99.0122 137.906 99.5335 136.361 99.6444C134.816 99.7552 133.269 99.4515 131.881 98.7646C128.698 96.8621 126.782 92.5744 126.782 86.6909V68.6712C126.782 60.0958 123.439 53.8886 117.715 52.3099C108 49.3795 100.69 61.368 97.9784 65.8203L80.8396 93.3184V59.4598C80.6804 51.6738 78.1281 47.0624 73.3531 45.6256C70.1698 44.6772 65.3948 45.1599 60.7846 52.1565L22.4311 113.519C17.3288 103.806 14.6549 93.0034 14.6376 82.0341C14.6376 44.9895 44.3904 14.9416 80.8396 14.9416C117.289 14.9416 147.042 44.9895 147.042 82.0341V82.3578C147.422 89.502 145.126 95.2379 140.675 98.0888L140.669 98.1342ZM274.352 54.0533C275.407 54.7281 276.288 55.6408 276.925 56.718C277.561 57.7951 277.936 59.0066 278.019 60.2549C278.008 62.0798 277.288 63.8291 276.011 65.1343C274.734 66.4395 273 67.1985 271.175 67.2515C270.308 67.1855 269.452 67.0236 268.622 66.7687C264.164 63.4276 258.756 61.5935 253.183 61.5326C239.66 61.5326 230.434 72.4932 230.434 86.1627C230.434 99.8322 239.824 110.651 253.183 110.651C259.604 110.642 265.769 108.132 270.367 103.654C271.538 102.831 272.925 102.388 274.352 102.382C275.494 102.369 276.619 102.66 277.612 103.224C278.605 103.789 279.429 104.606 280.002 105.594C280.574 106.581 280.874 107.703 280.87 108.844C280.866 109.985 280.559 111.104 279.98 112.088C279.428 113.053 278.644 113.877 277.695 114.473C273.036 118.343 267.513 121.037 261.593 122.327C255.674 123.618 249.53 123.467 243.681 121.888C237.831 120.309 232.448 117.348 227.984 113.254C223.521 109.16 220.108 104.054 218.035 98.3667C215.961 92.679 215.286 86.5764 216.069 80.5737C216.851 74.571 219.066 68.8443 222.529 63.8766C225.991 58.9089 230.598 54.8458 235.962 52.0302C241.326 49.2145 247.289 47.7288 253.348 47.6984C260.84 47.5849 268.184 49.7997 274.352 54.0533ZM312.222 69.9036C305.083 69.8733 298.224 72.6718 293.146 77.6857C288.069 82.6996 285.188 89.5199 285.136 96.652C285.18 103.824 288.039 110.691 293.1 115.779C298.16 120.866 305.016 123.766 312.194 123.855C326.201 123.855 338.138 111.293 338.138 96.652C338.138 82.0227 326.388 69.9036 312.222 69.9036ZM312.063 110.605C305.384 110.605 299.813 104.563 299.813 96.7712C299.813 88.6672 305.384 83.7321 312.063 83.7321C318.276 83.7321 323.518 88.8262 323.518 96.7712C323.518 104.722 318.276 110.651 312.063 110.651V110.605ZM347.074 115.58V78.053C347.056 77.08 347.232 76.1132 347.592 75.209C347.952 74.3047 348.489 73.4812 349.171 72.7865C349.853 72.0918 350.667 71.5398 351.565 71.1628C352.463 70.7858 353.428 70.5913 354.402 70.5908C356.362 70.6162 358.232 71.4151 359.605 72.8131C360.978 74.2111 361.741 76.0947 361.729 78.053V115.58C361.743 117.54 360.98 119.425 359.607 120.824C358.234 122.223 356.363 123.023 354.402 123.048C352.451 122.991 350.598 122.181 349.232 120.789C347.866 119.397 347.093 117.53 347.074 115.58ZM345.96 56.4385C345.928 55.3057 346.122 54.1779 346.531 53.1207C346.94 52.0635 347.555 51.098 348.34 50.2805C349.126 49.4629 350.066 48.8096 351.107 48.3585C352.147 47.9075 353.267 47.6676 354.402 47.653C355.543 47.6664 356.67 47.9042 357.719 48.3531C358.768 48.8019 359.719 49.4528 360.516 50.2687C361.313 51.0846 361.941 52.0495 362.365 53.1081C362.789 54.1668 363 55.2985 362.985 56.4385C362.985 58.6933 362.089 60.8557 360.493 62.45C358.897 64.0444 356.732 64.9401 354.476 64.9401C352.219 64.9401 350.054 64.0444 348.458 62.45C346.862 60.8557 345.96 58.6933 345.96 56.4385ZM389.725 95.2379V115.58C389.725 117.522 388.953 119.384 387.579 120.757C386.205 122.129 384.341 122.901 382.398 122.901C380.455 122.901 378.591 122.129 377.217 120.757C375.843 119.384 375.071 117.522 375.071 115.58V76.3096C375.071 74.8124 375.666 73.3766 376.726 72.318C377.785 71.2593 379.222 70.6646 380.721 70.6646C382.22 70.6646 383.657 71.2593 384.716 72.318C385.776 73.3766 386.371 74.8124 386.371 76.3096C388.46 74.1778 390.974 72.5095 393.751 71.4136C396.528 70.3177 399.504 69.8186 402.487 69.949C417.136 69.949 423.656 80.921 423.656 93.4831V115.58C423.656 117.522 422.884 119.384 421.51 120.757C420.136 122.129 418.272 122.901 416.329 122.901C414.385 122.901 412.522 122.129 411.148 120.757C409.773 119.384 409.001 117.522 409.001 115.58V95.2379C409.001 88.8717 408.211 83.5277 398.98 83.5277C392.465 83.5277 389.754 88.9284 389.754 95.2379H389.725ZM471.048 103.024C470.304 103.026 469.571 102.853 468.906 102.519C468.242 102.186 467.665 101.701 467.222 101.104L450.197 82.6644V115.58C450.224 116.558 450.055 117.532 449.699 118.444C449.344 119.355 448.808 120.186 448.126 120.888C447.443 121.589 446.626 122.147 445.724 122.528C444.822 122.908 443.852 123.104 442.873 123.104C441.893 123.104 440.924 122.908 440.022 122.528C439.119 122.147 438.303 121.589 437.62 120.888C436.937 120.186 436.402 119.355 436.046 118.444C435.69 117.532 435.521 116.558 435.548 115.58V50.3903C435.774 49.8497 436.149 49.3841 436.629 49.0474C437.108 48.7107 437.674 48.5167 438.26 48.4878C439.522 48.7018 440.658 49.3806 441.443 50.3903L468.661 80.921C468.938 81.3144 469.293 81.6472 469.703 81.8991C470.114 82.151 470.571 82.3167 471.048 82.3862C471.995 82.2026 472.844 81.682 473.436 80.921L500.642 50.3903C501.018 49.8784 501.493 49.4465 502.039 49.1199C502.585 48.7933 503.19 48.5784 503.819 48.4878C504.416 48.4731 505.001 48.65 505.489 48.9925C505.977 49.335 506.342 49.825 506.531 50.3903V115.586C506.549 116.559 506.373 117.526 506.013 118.43C505.653 119.334 505.116 120.158 504.434 120.853C503.752 121.547 502.938 122.099 502.04 122.476C501.142 122.853 500.178 123.048 499.203 123.048C497.244 123.02 495.375 122.219 494.004 120.82C492.632 119.422 491.87 117.538 491.882 115.58V82.6644L474.84 101.104C473.857 102.199 472.497 102.885 471.031 103.024H471.048ZM608.699 83.4709H607.101C597.875 83.9365 596.13 89.1954 596.13 95.1811V115.523C596.129 117.464 595.356 119.326 593.982 120.698C592.609 122.071 590.746 122.842 588.803 122.844C586.86 122.841 584.998 122.068 583.625 120.694C582.252 119.32 581.481 117.459 581.481 115.518V76.3152C581.484 74.8175 582.081 73.382 583.141 72.3229C584.201 71.2639 585.638 70.6676 587.137 70.6646C588.636 70.6676 590.072 71.2641 591.132 72.3233C592.191 73.3825 592.786 74.818 592.788 76.3152C598.194 71.2211 602.65 70.108 607.101 69.9433H608.568C610.353 69.9906 612.049 70.7313 613.297 72.008C614.544 73.2848 615.244 74.997 615.247 76.7809C615.245 78.5243 614.563 80.1981 613.346 81.4471C612.128 82.6962 610.472 83.4221 608.727 83.4709H608.699ZM665.192 112.082C665.862 113.133 666.249 114.337 666.306 115.58C666.226 117.496 665.429 119.312 664.071 120.668C662.714 122.024 660.896 122.821 658.978 122.901C656.443 122.901 654.203 120.981 652.458 118.755L635.598 99.1735V115.416C635.598 117.356 634.826 119.218 633.453 120.59C632.079 121.962 630.216 122.733 628.273 122.733C626.331 122.733 624.468 121.962 623.094 120.59C621.721 119.218 620.949 117.356 620.949 115.416V55.8138C620.946 54.3655 621.373 52.9489 622.177 51.7437C622.981 50.5385 624.125 49.5992 625.465 49.0448C626.804 48.4905 628.278 48.3462 629.7 48.6303C631.121 48.9143 632.426 49.6139 633.449 50.6402C634.825 52.0089 635.598 53.8773 635.598 55.8081V93.006L652.458 74.4128C654.203 72.4989 656.284 70.4374 658.819 70.4374C660.678 70.5192 662.435 71.3041 663.736 72.6329C665.037 73.9617 665.782 75.735 665.823 77.593C665.829 78.7724 665.497 79.929 664.868 80.9266L651.509 95.5616L665.192 112.105V112.082ZM753.677 123.69H749.692C738.556 123.69 732.024 118.755 732.024 101.428V83.4709H728.216C726.42 83.4709 724.698 82.7583 723.429 81.4898C722.159 80.2214 721.446 78.501 721.446 76.7071C721.446 74.9132 722.159 73.1929 723.429 71.9244C724.698 70.6559 726.42 69.9433 728.216 69.9433H731.968V56.1148C731.933 54.648 732.342 53.2048 733.143 51.9745C733.943 50.7443 735.097 49.7843 736.453 49.2204C737.351 48.8456 738.317 48.6525 739.289 48.6525C741.247 48.6854 743.113 49.4866 744.484 50.883C745.856 52.2793 746.621 54.1587 746.617 56.1148V69.9036H752.654C754.422 69.9571 756.099 70.7037 757.321 71.9821C758.543 73.2604 759.213 74.9679 759.185 76.7355C759.126 78.4629 758.424 80.1061 757.215 81.3434C756.007 82.5808 754.381 83.3232 752.654 83.4254H746.617V98.5317C746.617 108.544 747.083 110.605 751.539 110.605H753.62C755.35 110.613 757.007 111.304 758.228 112.528C759.45 113.751 760.137 115.408 760.14 117.136C760.101 118.852 759.402 120.486 758.187 121.699C756.973 122.912 755.337 123.611 753.62 123.65L753.677 123.69ZM824.483 54.0533C825.536 54.7297 826.415 55.643 827.051 56.7199C827.686 57.7968 828.061 59.0074 828.144 60.2549C828.135 62.0802 827.415 63.8304 826.138 65.1359C824.861 66.4413 823.126 67.1999 821.3 67.2515C820.436 67.1818 819.582 67.02 818.753 66.7687C814.301 63.4253 808.895 61.5907 803.325 61.5326C789.791 61.5326 780.559 72.4932 780.559 86.1627C780.559 99.8322 789.95 110.651 803.325 110.651C809.747 110.642 815.911 108.132 820.51 103.654C821.675 102.836 823.062 102.394 824.483 102.382C825.343 102.374 826.196 102.537 826.992 102.86C827.788 103.184 828.512 103.662 829.122 104.268C830.134 105.277 830.781 106.593 830.962 108.009C831.143 109.426 830.848 110.863 830.122 112.093C829.565 113.064 828.773 113.88 827.82 114.467C823.164 118.33 817.645 121.017 811.731 122.302C805.817 123.587 799.68 123.432 793.838 121.85C785.02 119.468 777.365 113.973 772.293 106.383C767.22 98.7939 765.074 89.6244 766.251 80.5745C767.424 71.5231 771.842 63.2036 778.687 57.1583C785.531 51.113 794.338 47.7521 803.473 47.6984C810.971 47.5557 818.324 49.7795 824.483 54.0533ZM562.711 70.4317C561.966 70.4315 561.228 70.5803 560.541 70.8694C559.855 71.1585 559.233 71.582 558.713 72.115C558.192 72.648 557.784 73.2797 557.512 73.9728C557.24 74.6659 557.11 75.4063 557.129 76.1506L556.822 77.9111C554.722 75.4269 552.117 73.4187 549.179 72.0202C546.241 70.6218 543.039 69.8653 539.785 69.8014C525.472 69.8014 515.132 81.875 515.132 96.493C515.132 111.117 525.307 123.69 538.995 123.69C544.725 123.69 553.792 121.14 556.663 115.58L556.987 117.324C556.972 118.072 557.111 118.816 557.395 119.509C557.68 120.201 558.103 120.828 558.64 121.351C559.176 121.874 559.814 122.281 560.515 122.547C561.215 122.814 561.962 122.934 562.711 122.901C563.464 122.902 564.21 122.755 564.906 122.468C565.601 122.181 566.234 121.759 566.766 121.227C567.298 120.695 567.72 120.064 568.008 119.369C568.295 118.673 568.442 117.928 568.441 117.176V76.196C568.419 74.6808 567.81 73.2332 566.741 72.158C565.672 71.0828 564.227 70.464 562.711 70.4317ZM541.383 110.651C534.863 110.651 529.763 104.461 529.763 96.8167C529.763 89.1783 535.01 83.6412 541.383 83.6412C547.749 83.6412 553.485 88.883 553.485 96.8167C553.485 104.75 547.908 110.651 541.383 110.651ZM718.666 95.5445C718.342 79.1661 707.678 69.9433 693.523 69.9433C675.947 69.9433 668.528 82.6644 668.528 97.2994C668.528 115.904 680.796 123.849 695.592 123.849C701.158 123.849 707.047 123.048 711.498 119.709C712.422 119.168 713.197 118.406 713.753 117.49C714.309 116.575 714.628 115.536 714.681 114.467C714.692 112.894 714.084 111.379 712.988 110.248C711.892 109.118 710.395 108.463 708.82 108.425C707.473 108.436 706.154 108.822 705.012 109.538C701.993 110.826 698.739 111.473 695.456 111.44C691.795 111.44 683.359 109.975 683.359 101.269H712.919C714.431 101.24 715.873 100.628 716.945 99.5614C718.016 98.4945 718.632 97.0552 718.666 95.5445ZM683.325 91.8532C683.325 85.663 689.862 83.6015 693.83 83.6015C697.804 83.6015 704.335 85.663 704.494 91.8532H683.325ZM882.863 70.4317C882.119 70.4321 881.382 70.581 880.696 70.8697C880.009 71.1583 879.388 71.5809 878.867 72.1127C878.347 72.6456 877.939 73.2778 877.668 73.9715C877.398 74.6653 877.27 75.4064 877.293 76.1506L876.974 77.9111C874.878 75.4267 872.274 73.4181 869.338 72.0195C866.402 70.621 863.201 69.8648 859.949 69.8014C845.624 69.8014 835.278 81.875 835.278 96.493C835.278 111.117 845.533 123.69 859.142 123.69C864.872 123.69 873.956 121.14 876.809 115.58L877.133 117.324C877.124 118.071 877.266 118.813 877.551 119.504C877.836 120.195 878.259 120.821 878.793 121.345C879.329 121.868 879.967 122.276 880.667 122.544C881.367 122.811 882.115 122.933 882.863 122.901C883.997 122.9 885.105 122.564 886.048 121.936C886.99 121.307 887.726 120.414 888.161 119.368C888.446 118.675 888.593 117.931 888.593 117.176V76.196C888.569 74.6817 887.958 73.2357 886.89 72.1611C885.822 71.0865 884.379 70.4668 882.863 70.4317ZM861.529 110.651C855.174 110.651 849.916 104.461 849.916 96.8167C849.916 89.1783 855.015 83.6412 861.529 83.6412C868.05 83.6412 873.632 88.883 873.632 96.8167C873.632 104.75 868.095 110.651 861.563 110.651H861.529ZM930.312 69.9036C927.123 69.8454 923.955 70.4356 921.001 71.6384C918.046 72.8411 915.368 74.6313 913.128 76.9002C913.128 73.2542 910.74 70.5453 907.563 70.5453C906.809 70.5431 906.062 70.6895 905.365 70.9763C904.669 71.263 904.035 71.6844 903.502 72.2163C902.968 72.7482 902.545 73.38 902.257 74.0756C901.969 74.7712 901.821 75.5169 901.821 76.2698V137.961C901.826 139.9 902.599 141.758 903.971 143.129C905.343 144.5 907.202 145.272 909.143 145.276C911.085 145.275 912.947 144.504 914.32 143.132C915.694 141.761 916.467 139.901 916.47 137.961V119.402C920.438 122.412 926.81 123.69 931.119 123.792C944.967 123.792 955 111.236 955 96.6009C955 81.9602 944.484 69.9036 930.312 69.9036ZM928.556 110.605C922.035 110.605 916.47 104.756 916.47 96.7769C916.47 88.7978 922.035 83.6015 928.556 83.6015C935.076 83.6015 940.175 88.8433 940.175 96.7769C940.175 104.455 935.093 110.651 928.556 110.651V110.605Z" fill="#B7B7B7"/>
</svg>
