<svg width="1241" height="196" viewBox="0 0 1241 196" fill="none" xmlns="http://www.w3.org/2000/svg">
<path d="M107.194 0C118.612 0.882798 129.766 3.88094 140.085 8.84106C169.028 22.941 187.297 45.6447 194.653 76.9524C197.072 87.4974 197.626 98.3832 196.292 109.119C194.024 130.109 184.905 149.772 170.339 165.077C156.275 180.261 137.698 190.534 117.344 194.381C114.763 194.888 112.142 195.199 109.545 195.657C109.183 195.749 108.828 195.863 108.48 196H88.0408C87.2216 195.796 86.4023 195.558 85.5176 195.403C82.0687 194.757 78.5789 194.307 75.1709 193.489C55.9112 188.875 38.4928 178.57 25.1905 163.92C11.8883 149.27 3.3205 130.955 0.606217 111.368C0.458641 110.743 0.255772 110.133 0 109.544L0 86.2024C0.243591 85.6146 0.446147 85.0106 0.606217 84.3949C0.917518 82.7592 1.09774 81.0335 1.42543 79.3733C5.68533 58.0189 15.7862 39.8788 31.9493 25.2146C48.1123 10.5504 67.1754 2.18368 89.0074 0.00817859L107.194 0ZM163.842 103.255C164.293 102.968 164.858 102.772 164.981 101.856L163.539 102.969L159.542 105.569L157.363 106.633C144.747 112.873 131.541 116.7 117.319 116.447C111.585 116.357 106.072 115.433 100.935 112.742L99.8784 112.039C99.8047 112.39 99.8784 112.562 99.9439 112.652C100.142 112.821 100.353 112.974 100.575 113.11C101.576 113.954 102.621 114.746 103.704 115.482C108.12 118.181 113.019 119.211 118.13 119.383C122.739 119.466 127.337 118.916 131.795 117.747C141.789 115.294 151.341 111.752 159.894 105.888L163.842 103.255ZM23.3394 149.317C23.6097 148.769 23.8227 148.384 23.9865 147.992C26.6032 141.853 28.6223 135.477 30.0159 128.952C32.2524 118.532 33.0798 107.941 33.9645 97.358C34.2527 92.6534 34.7997 87.9682 35.603 83.3235C37.6838 72.585 43.1233 64.1529 52.3149 58.1416C58.1297 54.4886 64.4201 51.6513 71.0093 49.7095C74.1313 48.6566 77.3684 47.9811 80.6515 47.6976C86.023 47.3272 91.4199 47.7516 96.6671 48.9571C97.9479 49.2473 99.2775 49.2473 100.558 48.9571C104.003 48.2247 107.54 48.0288 111.044 48.3764C116.967 48.9243 121.121 52.0731 123.865 57.2011C123.988 57.4686 124.162 57.709 124.379 57.9084C124.595 58.1078 124.85 58.2621 125.127 58.3624C130.378 60.3008 135.604 62.3127 140.88 64.1692C144.861 65.5678 148.957 66.6228 152.922 68.095C157.673 69.7028 162.044 72.2633 165.768 75.6193C171.043 80.5264 172.739 86.4641 170.552 93.3914C169.103 97.7836 166.684 101.795 163.474 105.128C159.845 109.021 156.101 112.783 152.226 116.455C145.493 122.768 139.198 129.531 133.384 136.697C127.699 143.608 122.93 151.223 119.195 159.352C115.779 167.056 113.699 175.055 114.092 183.56C114.149 184.746 114.329 185.916 114.452 187.102C143.706 182.734 178.605 158.616 187.436 116.422C191.588 96.2518 188.76 75.2717 179.415 56.9146C170.07 38.5574 154.76 23.9102 135.992 15.3694C117.224 6.82867 96.1078 4.90005 76.0988 9.89914C56.0898 14.8982 38.3727 26.529 25.8462 42.8885C0 76.658 2.82628 120.667 23.3394 149.317ZM67.7898 75.562C67.7949 79.0376 68.8338 82.4334 70.775 85.3185C72.7161 88.2037 75.4719 90.4482 78.6928 91.7672C81.9137 93.0863 85.4544 93.4205 88.8658 92.7275C92.2772 92.0345 95.4056 90.3454 97.854 87.8746C100.302 85.4038 101.96 82.2626 102.618 78.8496C103.275 75.4365 102.902 71.9054 101.547 68.7043C100.191 65.5031 97.913 62.7762 95.0023 60.8694C92.0917 58.9627 88.6793 57.962 85.1981 57.9944C80.5679 58.0566 76.1478 59.9334 72.8911 63.2199C69.6345 66.5063 67.8023 70.9391 67.7898 75.562ZM148.564 89.3593C147.832 89.3579 147.115 89.5724 146.504 89.9759C145.894 90.3794 145.416 90.954 145.131 91.6276C144.846 92.3011 144.766 93.0437 144.902 93.7622C145.038 94.4807 145.384 95.1431 145.896 95.6663C146.407 96.1895 147.062 96.5502 147.778 96.7032C148.495 96.8563 149.24 96.7948 149.922 96.5265C150.603 96.2582 151.19 95.7951 151.608 95.1951C152.027 94.5952 152.259 93.8852 152.275 93.1542C152.284 92.1606 151.899 91.2039 151.203 90.4929C150.508 89.7819 149.559 89.3744 148.564 89.3593Z" fill="#B7B7B7"/>
<path d="M801.033 111.945H765.233C765.121 105.979 765.025 100.359 765.329 94.5823H822V163.67C817.195 163.954 812.389 163.781 807.2 163.797C806.014 158.84 804.861 154.058 803.628 148.896C802.699 149.685 802.026 150.191 801.481 150.727C800.088 152.053 798.758 153.458 797.333 154.736C790.251 161.332 781.169 165.457 771.48 166.48C759.151 168.027 746.629 166.106 735.36 160.94C722.149 154.834 711.757 144.047 706.256 130.728C696.229 107.368 696.325 83.849 708.226 61.2774C719.439 40.1106 737.795 29.7087 762.014 29.0615C772.139 28.629 782.23 30.4808 791.518 34.4756C808.193 41.9258 817.851 54.648 820.558 72.4685C820.591 72.7781 820.591 73.0901 820.558 73.3997C820.515 73.5776 820.445 73.7479 820.35 73.9048H797.925C797.717 73.163 797.477 72.4685 797.317 71.7582C794.946 60.9933 788.123 54.0639 777.823 50.3546C769.793 47.4568 761.052 47.0656 752.788 49.2339C741.367 52.1225 733.759 59.4937 728.761 69.7536C725.3 77.0587 723.335 84.965 722.979 93.0197C722.221 102.644 723.497 112.318 726.727 121.431C730.283 130.523 735.617 138.415 744.699 143.372C749.407 145.953 754.648 147.448 760.028 147.744C765.714 148.259 771.448 147.767 776.958 146.292C789.356 142.725 796.676 134.422 799.575 122.221C800.232 119.064 800.472 115.796 801.033 111.945Z" fill="#B7B7B7"/>
<path d="M424.747 74.0914H401.896C401.534 73.0648 401.251 72.0699 400.826 71.1223C399.686 68.1725 398.373 65.2931 396.895 62.4991C395.013 59.1705 392.461 56.2728 389.401 53.9911C386.341 51.7095 382.841 50.0942 379.123 49.2484C371.305 47.2024 363.054 47.5824 355.455 50.3381C345.688 53.939 339.146 61.0303 334.915 70.3326C330.154 81.1276 328.305 92.9907 329.553 104.731C330.136 113.74 332.761 122.496 337.227 130.332C347.34 147.373 365.378 150.468 378.762 146.773C387.412 144.372 393.466 138.765 397.634 130.979C399.906 126.525 401.42 121.721 402.116 116.765C402.258 115.833 402.446 114.917 402.666 113.607H424.684C425.423 116.212 424.684 118.566 424.307 120.903C421.727 136.065 414.729 148.542 401.959 157.433C394.345 162.661 385.514 165.822 376.324 166.609C363.46 167.888 351.067 166.12 339.539 159.929C326.045 152.755 315.846 140.606 311.089 126.036C303.745 104.968 304.107 83.8833 313.763 63.6836C324.473 41.2411 342.763 29.7751 367.643 29.0644C377.903 28.6033 388.124 30.6236 397.445 34.9553C413.172 42.4888 422.372 54.9972 424.81 72.3699C424.794 72.8753 424.747 73.3017 424.747 74.0914Z" fill="#B7B7B7"/>
<path d="M1083.83 117.841C1080.35 121.224 1077.25 124.418 1073.94 127.327C1073.05 128.05 1072.35 128.975 1071.9 130.023C1071.45 131.072 1071.26 132.213 1071.35 133.35C1071.52 142.235 1071.35 151.136 1071.35 160.037V163.958C1064.22 164.053 1057.37 163.958 1050.61 163.958C1049.96 161.254 1049.75 36.7687 1050.38 32.2155C1057.17 31.836 1064.03 32.0732 1071.2 32.0732V106.379C1072.46 105.367 1073.19 104.798 1073.79 104.26C1084.12 93.8576 1094.43 83.4495 1104.73 73.0362C1109.22 68.4672 1109.18 68.4197 1115.69 68.4197H1131.66C1132.68 68.4197 1133.7 68.5146 1135.44 68.6094L1098.92 103.549L1139 163.626C1137.65 163.768 1136.76 163.926 1135.82 163.926C1129.22 163.926 1122.61 163.926 1116 163.926C1115.07 164.006 1114.13 163.802 1113.32 163.342C1112.5 162.882 1111.84 162.188 1111.43 161.349C1102.95 147.785 1094.36 134.267 1085.78 120.75C1085.31 120.023 1084.7 119.153 1083.83 117.841Z" fill="#B7B7B7"/>
<path d="M931.207 120.679H860.13C859.842 125.553 860.859 130.416 863.08 134.794C867.272 143.42 874.558 147.67 884.15 148.25C887.067 148.392 889.99 148.186 892.856 147.639C896.284 147.059 899.508 145.651 902.232 143.544C904.956 141.437 907.092 138.698 908.445 135.578C908.864 134.731 909.234 133.853 909.654 133.006C909.654 132.928 909.799 132.865 909.976 132.724H930.16C928.711 139.729 925.303 146.209 920.31 151.45C912.04 160.029 901.625 163.997 889.68 164.796C882.455 165.421 875.176 164.605 868.287 162.397C862.791 160.681 857.741 157.831 853.481 154.042C849.221 150.252 845.853 145.613 843.606 140.44C836.239 123.91 835.949 107.097 843.832 90.6761C858.163 60.8775 895.048 58.9954 914.264 74.8985C923.828 82.8302 929.946 93.9941 931.385 106.14C932.261 110.954 932.201 115.886 931.207 120.679ZM860.275 106.564H909.605C909.815 93.0287 898.417 81.4699 885.198 81.6425C871.173 81.8463 859.566 93.3894 860.211 106.579L860.275 106.564Z" fill="#B7B7B7"/>
<path d="M439.002 115.875C438.944 108.735 440.13 101.639 442.506 94.9045C448.585 78.6489 460.329 69.0746 477.32 65.9897C486.005 64.3591 494.95 64.7475 503.462 67.1245C517.397 71.0406 527.316 79.6879 532.548 93.0983C538.577 107.981 538.479 124.64 532.276 139.452C526.132 154.54 514.389 163.156 498.454 166.017C490.092 167.581 481.486 167.276 473.256 165.122C456.425 160.63 446.058 149.633 441.258 133.154C439.721 127.524 438.962 121.711 439.002 115.875ZM460.569 115.875C460.569 116.738 460.569 117.586 460.569 118.449C461.017 126.441 463.016 134.081 468.072 140.586C470.218 143.269 472.886 145.489 475.916 147.11C478.946 148.732 482.273 149.723 485.698 150.021C489.122 150.32 492.571 149.922 495.836 148.849C499.101 147.777 502.115 146.053 504.694 143.783C510.085 138.988 512.853 132.594 514.293 125.657C516.604 115.617 515.277 105.083 510.549 95.9275C505.75 86.7847 498.006 81.9416 487.639 82.0375C477.271 82.1334 469.72 87.1363 464.952 96.2951C461.898 102.338 460.392 109.044 460.569 115.811V115.875Z" fill="#B7B7B7"/>
<path d="M1241 116.074C1241.01 124.145 1239.46 132.137 1236.43 139.593C1230.17 154.573 1218.83 163.223 1203.25 166.037C1194.86 167.623 1186.23 167.246 1178 164.933C1164.22 161.032 1154.53 152.303 1149.36 138.761C1143.44 123.875 1143.55 107.198 1149.67 92.3963C1155.8 77.2238 1167.39 68.6383 1183.13 65.9044C1191.2 64.4253 1199.49 64.7636 1207.41 66.8957C1223.06 71.1804 1233.16 81.4766 1238.09 97.1128C1238.89 99.6592 1239.49 102.269 1239.87 104.915C1240.45 108.624 1240.66 112.365 1241 116.074ZM1219.93 115.946C1220 108.569 1218.2 101.299 1214.7 94.8425C1212.58 90.7967 1209.38 87.4479 1205.48 85.1842C1201.57 82.9205 1197.11 81.8346 1192.63 82.0522C1188.07 81.9537 1183.59 83.2196 1179.73 85.6939C1175.86 88.1683 1172.8 91.743 1170.9 95.9776C1164.64 108.768 1164.72 121.974 1170.35 135.052C1172.11 139.085 1174.86 142.587 1178.33 145.22C1187.47 152.351 1204.5 152.559 1213.4 139.241C1218.03 132.286 1219.65 124.292 1219.93 115.946Z" fill="#B7B7B7"/>
<path d="M598.016 67.7034H617.958V81.0307L618.583 81.1742C619.145 80.4728 619.738 79.7873 620.3 79.0858C623.523 74.6439 627.781 71.0435 632.709 68.5922C637.638 66.1408 643.09 64.9115 648.6 65.0092C653.12 64.9173 657.627 65.514 661.964 66.7788C674.173 70.557 680.767 78.9902 682.483 91.3451C682.855 94.3115 683.027 97.2993 682.997 100.288C682.997 120.046 682.997 139.798 682.997 159.544V163.275C680.558 164.056 665.686 164.247 661.258 163.546V159.895C661.258 140.988 661.258 122.097 661.258 103.19C661.209 99.6734 660.669 96.1807 659.654 92.8117C658.909 90.0527 657.352 87.5774 655.183 85.7029C653.013 83.8284 650.33 82.6401 647.477 82.2901C631.915 79.5641 619.402 90.1494 619.193 106.378C619.081 115.943 619.193 125.381 619.193 134.882V163.29C616.738 164.056 602.54 164.263 598 163.609L598.016 67.7034Z" fill="#B7B7B7"/>
<path d="M1032.92 99.7899H1011.88C1011.54 98.7186 1011.22 97.6153 1010.88 96.5919C1010 93.2516 1008.22 90.2144 1005.73 87.8079C1003.24 85.4013 1000.13 83.7168 996.751 82.9362C991.2 81.4047 985.301 81.685 979.921 83.7357C976.515 84.9891 973.455 87.0259 970.991 89.6798C968.527 92.3337 966.729 95.5295 965.743 99.0064C961.924 109.936 961.879 121.82 965.615 132.778C968.17 140.181 972.687 146.05 980.468 148.656C991.27 152.286 1005 149.136 1010.08 134.393C1010.74 132.49 1011.19 130.507 1011.68 128.524C1013.94 127.821 1029.05 127.661 1032.97 128.365C1032.69 131.643 1031.97 134.869 1030.83 137.959C1024.95 155.852 1011.32 166.038 992.25 166.869C985.461 167.33 978.644 166.572 972.125 164.63C966.25 162.914 960.844 159.889 956.319 155.786C951.793 151.683 948.265 146.609 946.003 140.949C942.463 132.685 940.765 123.755 941.026 114.776C941.287 105.796 943.5 96.9797 947.514 88.9325C953.944 75.5967 965.197 68.1452 979.744 65.8906C990.639 63.9161 1001.88 65.242 1012.01 69.6963C1024.66 75.5007 1031.46 85.5106 1033 99.1503C1033 99.3658 1032.97 99.5802 1032.92 99.7899Z" fill="#B7B7B7"/>
<path d="M574.603 164H554.673C553.962 161.598 553.714 73.0585 554.426 68C561.048 68 567.733 68 574.386 68C575.052 70.4338 575.253 158.989 574.603 164Z" fill="#B7B7B7"/>
<path d="M575 32V51.38C572.602 52.046 558.854 52.2205 554.622 51.6813C553.87 49.3341 553.76 35.5207 554.512 32H575Z" fill="#B7B7B7"/>
<path d="M73.0039 75.6923C73.0842 72.564 74.3833 69.5908 76.6242 67.4066C78.8652 65.2224 81.8707 64 85 64C88.1293 64 91.1348 65.2224 93.3758 67.4066C95.6167 69.5908 96.9158 72.564 96.9961 75.6923C97.0371 77.2936 96.7572 78.8868 96.1728 80.3782C95.5884 81.8695 94.7114 83.2288 93.5934 84.3758C92.4754 85.5228 91.139 86.4344 89.6632 87.0569C88.1873 87.6793 86.6018 88 85 88C83.3982 88 81.8127 87.6793 80.3368 87.0569C78.861 86.4344 77.5246 85.5228 76.4066 84.3758C75.2886 83.2288 74.4116 81.8695 73.8272 80.3782C73.2428 78.8868 72.9629 77.2936 73.0039 75.6923Z" fill="#B7B7B7"/>
</svg>
