<svg width="865" height="210" viewBox="0 0 865 210" fill="none" xmlns="http://www.w3.org/2000/svg">
<path d="M85.9937 104.724L107.493 91.6331V117.814L85.9937 130.904V104.724Z" fill="#999999"/>
<path d="M85.9937 183.266L107.493 170.176V196.357L85.9937 209.447V183.266Z" fill="#A3A3A3"/>
<path d="M85.9937 157.085L107.493 143.995V170.176L85.9937 183.266V157.085Z" fill="#9C9C9C"/>
<path d="M85.9937 130.904L107.493 117.814V143.995L85.9937 157.085V130.904Z" fill="#A6A6A6"/>
<path d="M150.501 65.4522L172.001 52.3618V78.5427L150.501 91.6331V65.4522Z" fill="#969696"/>
<path d="M150.501 143.995L172.001 130.904V157.085L150.501 170.176V143.995Z" fill="#969696"/>
<path d="M150.501 117.814L172.001 104.724V130.904L150.501 143.995V117.814Z" fill="#999999"/>
<path d="M150.495 91.6331L171.995 78.5427V104.724L150.495 117.814V91.6331ZM128.995 78.5427L150.495 65.4522V91.6331L128.995 104.724V78.5427Z" fill="#BABABA"/>
<path d="M128.995 157.085L150.495 143.995V170.176L128.995 183.266V157.085Z" fill="#9E9E9E"/>
<path d="M128.995 130.904L150.495 117.814V143.995L128.995 157.085V130.904Z" fill="#969696"/>
<path d="M128.995 104.724L150.495 91.6331V117.814L128.995 130.904V104.724Z" fill="#A1A1A1"/>
<path d="M107.499 91.6331L128.999 78.5427V104.724L107.499 117.814V91.6331Z" fill="#9C9C9C"/>
<path d="M107.499 170.176L128.999 157.085V183.266L107.499 196.357V170.176Z" fill="#949494"/>
<path d="M107.499 143.995L128.999 130.904V157.085L107.499 170.176V143.995Z" fill="#9C9C9C"/>
<path d="M107.499 117.814L128.999 104.724V130.904L107.499 143.995V117.814Z" fill="#999999"/>
<path d="M0 52.3618L21.4996 65.4522V91.6331L0 78.5427V52.3618ZM0 130.904L21.4996 143.995V170.176L0 157.085V130.904Z" fill="#B0B0B0"/>
<path d="M0 104.724L21.4996 117.814V143.995L0 130.904V104.724Z" fill="#B3B3B3"/>
<path d="M0 78.5427L21.4996 91.6331V117.814L0 104.724V78.5427Z" fill="#C2C2C2"/>
<path d="M64.4977 91.6331L85.9973 104.724V130.904L64.4977 117.814V91.6331Z" fill="#B0B0B0"/>
<path d="M64.4977 170.176L85.9973 183.266V209.447L64.4977 196.357V170.176Z" fill="#B3B3B3"/>
<path d="M64.4977 143.995L85.9973 157.085V183.266L64.4977 170.176V143.995Z" fill="#B3B3B3"/>
<path d="M64.5013 117.814L86.0008 130.904V157.085L64.5013 143.995V117.814ZM43.0017 78.5427L64.5013 91.6331V117.814L43.0017 104.724V78.5427Z" fill="#B3B3B3"/>
<path d="M43.0017 157.085L64.5013 170.176V196.357L43.0017 183.266V157.085Z" fill="#B0B0B0"/>
<path d="M43.0017 130.904L64.5013 143.995V170.176L43.0017 157.085V130.904Z" fill="#C2C2C2"/>
<path d="M43.0017 104.724L64.5013 117.814V143.995L43.0017 130.904V104.724Z" fill="#B5B5B5"/>
<path d="M21.496 65.4522L42.9956 78.5427V104.724L21.496 91.6331V65.4522Z" fill="#B3B3B3"/>
<path d="M21.496 143.995L42.9956 157.085V183.266L21.496 170.176V143.995Z" fill="#B5B5B5"/>
<path d="M21.496 117.814L42.9956 130.904V157.085L21.496 143.995V117.814Z" fill="#B3B3B3"/>
<path d="M21.496 91.6331L42.9956 104.724V130.904L21.496 117.814V91.6331Z" fill="#B0B0B0"/>
<path d="M85.9982 0L107.498 13.0904L85.9982 26.1809L64.4987 13.0904L85.9982 0ZM21.4996 39.2713L42.9991 52.3618L21.4996 65.4522L0 52.3618L21.4996 39.2713Z" fill="#C7C7C7"/>
<path d="M42.9956 26.1809L64.4951 39.2713L42.9956 52.3618L21.496 39.2713L42.9956 26.1809Z" fill="#E0E0E0"/>
<path d="M64.5013 13.0904L86.0008 26.1809L64.5013 39.2713L43.0017 26.1809L64.5013 13.0904ZM150.5 39.2713L171.999 52.3618L150.5 65.4522L129 52.3618L150.5 39.2713Z" fill="#C9C9C9"/>
<path d="M85.9973 78.5427L107.497 91.6331L85.9973 104.724L64.4977 91.6331L85.9973 78.5427Z" fill="#E0E0E0"/>
<path d="M107.493 65.4522L128.993 78.5427L107.493 91.6331L85.9937 78.5427L107.493 65.4522Z" fill="#C9C9C9"/>
<path d="M129 52.3618L150.5 65.4522L128.999 78.5427L107.499 65.4522L129 52.3618Z" fill="#E0E0E0"/>
<path d="M128.999 26.1809L150.5 39.2713L129 52.3618L107.499 39.2713L128.999 26.1809Z" fill="#E8E8E8"/>
<path d="M64.5013 65.4522L86.0008 78.5427L64.5013 91.6331L43.0017 78.5427L64.5013 65.4522Z" fill="#C9C9C9"/>
<path d="M85.9973 52.3618L107.497 65.4522L85.9973 78.5427L64.4977 65.4522L85.9973 52.3618Z" fill="#E8E8E8"/>
<path d="M107.493 39.2713L128.993 52.3618L107.493 65.4522L85.9937 52.3618L107.493 39.2713Z" fill="#C9C9C9"/>
<path d="M107.493 13.0904L128.993 26.1809L107.493 39.2713L85.9937 26.1809L107.493 13.0904Z" fill="#E0E0E0"/>
<path d="M42.9956 52.3618L64.4951 65.4522L42.9956 78.5427L21.496 65.4522L42.9956 52.3618Z" fill="#C7C7C7"/>
<path d="M64.5013 39.2713L86.0008 52.3618L64.5013 65.4522L43.0017 52.3618L64.5013 39.2713Z" fill="#E0E0E0"/>
<path d="M85.9982 26.1809L107.497 39.2713L85.9973 52.3618L64.4977 39.2713L85.9982 26.1809Z" fill="#C7C7C7"/>
<path d="M263.959 163V33.4H305.269C306.349 33.4 308.479 33.43 311.659 33.49C314.899 33.55 318.019 33.76 321.019 34.12C331.279 35.44 339.949 39.1 347.029 45.1C354.169 51.04 359.569 58.63 363.229 67.87C366.889 77.11 368.719 87.22 368.719 98.2C368.719 109.18 366.889 119.29 363.229 128.53C359.569 137.77 354.169 145.39 347.029 151.39C339.949 157.33 331.279 160.96 321.019 162.28C318.079 162.64 314.989 162.85 311.749 162.91C308.509 162.97 306.349 163 305.269 163H263.959ZM286.009 142.57H305.269C307.069 142.57 309.349 142.51 312.109 142.39C314.929 142.27 317.419 142 319.579 141.58C325.699 140.44 330.679 137.71 334.519 133.39C338.359 129.07 341.179 123.82 342.979 117.64C344.839 111.46 345.769 104.98 345.769 98.2C345.769 91.18 344.839 84.58 342.979 78.4C341.119 72.22 338.239 67.03 334.339 62.83C330.499 58.63 325.579 55.96 319.579 54.82C317.419 54.34 314.929 54.07 312.109 54.01C309.349 53.89 307.069 53.83 305.269 53.83H286.009V142.57Z" fill="#B7B7B7"/>
<path d="M428.785 165.7C418.945 165.7 410.305 163.57 402.865 159.31C395.425 155.05 389.605 149.14 385.405 141.58C381.265 134.02 379.195 125.32 379.195 115.48C379.195 104.86 381.235 95.65 385.315 87.85C389.395 79.99 395.065 73.9 402.325 69.58C409.585 65.26 417.985 63.1 427.525 63.1C437.605 63.1 446.155 65.47 453.175 70.21C460.255 74.89 465.505 81.52 468.925 90.1C472.345 98.68 473.635 108.79 472.795 120.43H451.285V112.51C451.225 101.95 449.365 94.24 445.705 89.38C442.045 84.52 436.285 82.09 428.425 82.09C419.545 82.09 412.945 84.85 408.625 90.37C404.305 95.83 402.145 103.84 402.145 114.4C402.145 124.24 404.305 131.86 408.625 137.26C412.945 142.66 419.245 145.36 427.525 145.36C432.865 145.36 437.455 144.19 441.295 141.85C445.195 139.45 448.195 136 450.295 131.5L471.715 137.98C467.995 146.74 462.235 153.55 454.435 158.41C446.695 163.27 438.145 165.7 428.785 165.7ZM395.305 120.43V104.05H462.175V120.43H395.305Z" fill="#B7B7B7"/>
<path d="M487.476 163V33.4H528.786C529.866 33.4 531.996 33.43 535.176 33.49C538.416 33.55 541.536 33.76 544.536 34.12C554.796 35.44 563.466 39.1 570.546 45.1C577.686 51.04 583.086 58.63 586.746 67.87C590.406 77.11 592.236 87.22 592.236 98.2C592.236 109.18 590.406 119.29 586.746 128.53C583.086 137.77 577.686 145.39 570.546 151.39C563.466 157.33 554.796 160.96 544.536 162.28C541.596 162.64 538.506 162.85 535.266 162.91C532.026 162.97 529.866 163 528.786 163H487.476ZM509.526 142.57H528.786C530.586 142.57 532.866 142.51 535.626 142.39C538.446 142.27 540.936 142 543.096 141.58C549.216 140.44 554.196 137.71 558.036 133.39C561.876 129.07 564.696 123.82 566.496 117.64C568.356 111.46 569.286 104.98 569.286 98.2C569.286 91.18 568.356 84.58 566.496 78.4C564.636 72.22 561.756 67.03 557.856 62.83C554.016 58.63 549.096 55.96 543.096 54.82C540.936 54.34 538.446 54.07 535.626 54.01C532.866 53.89 530.586 53.83 528.786 53.83H509.526V142.57Z" fill="#B7B7B7"/>
<path d="M644.561 165.79C637.361 165.79 631.421 164.59 626.741 162.19C622.061 159.79 618.341 156.73 615.581 153.01C612.821 149.29 610.781 145.33 609.461 141.13C608.141 136.93 607.271 132.97 606.851 129.25C606.491 125.47 606.311 122.41 606.311 120.07V65.8H628.271V112.6C628.271 115.6 628.481 118.99 628.901 122.77C629.321 126.49 630.281 130.09 631.781 133.57C633.341 136.99 635.621 139.81 638.621 142.03C641.681 144.25 645.791 145.36 650.951 145.36C653.711 145.36 656.441 144.91 659.141 144.01C661.841 143.11 664.271 141.58 666.431 139.42C668.651 137.2 670.421 134.17 671.741 130.33C673.061 126.49 673.721 121.63 673.721 115.75L686.591 121.24C686.591 129.52 684.971 137.02 681.731 143.74C678.551 150.46 673.841 155.83 667.601 159.85C661.361 163.81 653.681 165.79 644.561 165.79ZM676.331 163V132.85H673.721V65.8H695.501V163H676.331Z" fill="#B7B7B7"/>
<path d="M752.917 165.7C740.917 165.7 731.167 163 723.667 157.6C716.167 152.2 711.607 144.61 709.987 134.83L732.127 131.41C733.267 136.21 735.787 139.99 739.687 142.75C743.587 145.51 748.507 146.89 754.447 146.89C759.667 146.89 763.687 145.87 766.507 143.83C769.387 141.73 770.827 138.88 770.827 135.28C770.827 133.06 770.287 131.29 769.207 129.97C768.187 128.59 765.907 127.27 762.367 126.01C758.827 124.75 753.397 123.16 746.077 121.24C737.917 119.08 731.437 116.77 726.637 114.31C721.837 111.79 718.387 108.82 716.287 105.4C714.187 101.98 713.137 97.84 713.137 92.98C713.137 86.92 714.727 81.64 717.907 77.14C721.087 72.64 725.527 69.19 731.227 66.79C736.927 64.33 743.647 63.1 751.387 63.1C758.947 63.1 765.637 64.27 771.457 66.61C777.337 68.95 782.077 72.28 785.677 76.6C789.277 80.92 791.497 85.99 792.337 91.81L770.197 95.77C769.657 91.63 767.767 88.36 764.527 85.96C761.347 83.56 757.087 82.21 751.747 81.91C746.647 81.61 742.537 82.39 739.417 84.25C736.297 86.05 734.737 88.6 734.737 91.9C734.737 93.76 735.367 95.35 736.627 96.67C737.887 97.99 740.407 99.31 744.187 100.63C748.027 101.95 753.727 103.57 761.287 105.49C769.027 107.47 775.207 109.75 779.827 112.33C784.507 114.85 787.867 117.88 789.907 121.42C792.007 124.96 793.057 129.25 793.057 134.29C793.057 144.07 789.487 151.75 782.347 157.33C775.267 162.91 765.457 165.7 752.917 165.7Z" fill="#B7B7B7"/>
<path d="M864.34 163C857.92 164.2 851.62 164.71 845.44 164.53C839.32 164.41 833.83 163.3 828.97 161.2C824.11 159.04 820.42 155.65 817.9 151.03C815.68 146.83 814.51 142.54 814.39 138.16C814.27 133.78 814.21 128.83 814.21 123.31V38.8H835.81V122.05C835.81 125.95 835.84 129.37 835.9 132.31C836.02 135.25 836.65 137.65 837.79 139.51C839.95 143.11 843.4 145.12 848.14 145.54C852.88 145.96 858.28 145.72 864.34 144.82V163ZM796.57 82.81V65.8H864.34V82.81H796.57Z" fill="#B7B7B7"/>
<path d="M85.9937 104.724L107.493 91.6331V117.814L85.9937 130.904V104.724Z" fill="#999999"/>
<path d="M85.9937 183.266L107.493 170.176V196.357L85.9937 209.447V183.266Z" fill="#A3A3A3"/>
<path d="M85.9937 157.085L107.493 143.995V170.176L85.9937 183.266V157.085Z" fill="#9C9C9C"/>
<path d="M85.9937 130.904L107.493 117.814V143.995L85.9937 157.085V130.904Z" fill="#A6A6A6"/>
<path d="M150.501 65.4522L172.001 52.3618V78.5427L150.501 91.6331V65.4522Z" fill="#969696"/>
<path d="M150.501 143.995L172.001 130.904V157.085L150.501 170.176V143.995Z" fill="#969696"/>
<path d="M150.501 117.814L172.001 104.724V130.904L150.501 143.995V117.814Z" fill="#999999"/>
<path d="M150.495 91.6331L171.995 78.5427V104.724L150.495 117.814V91.6331ZM128.995 78.5427L150.495 65.4522V91.6331L128.995 104.724V78.5427Z" fill="#BABABA"/>
<path d="M128.995 157.085L150.495 143.995V170.176L128.995 183.266V157.085Z" fill="#9E9E9E"/>
<path d="M128.995 130.904L150.495 117.814V143.995L128.995 157.085V130.904Z" fill="#969696"/>
<path d="M128.995 104.724L150.495 91.6331V117.814L128.995 130.904V104.724Z" fill="#A1A1A1"/>
<path d="M107.499 91.6331L128.999 78.5427V104.724L107.499 117.814V91.6331Z" fill="#9C9C9C"/>
<path d="M107.499 170.176L128.999 157.085V183.266L107.499 196.357V170.176Z" fill="#949494"/>
<path d="M107.499 143.995L128.999 130.904V157.085L107.499 170.176V143.995Z" fill="#9C9C9C"/>
<path d="M107.499 117.814L128.999 104.724V130.904L107.499 143.995V117.814Z" fill="#999999"/>
<path d="M0 52.3618L21.4996 65.4522V91.6331L0 78.5427V52.3618ZM0 130.904L21.4996 143.995V170.176L0 157.085V130.904Z" fill="#B0B0B0"/>
<path d="M0 104.724L21.4996 117.814V143.995L0 130.904V104.724Z" fill="#B3B3B3"/>
<path d="M0 78.5427L21.4996 91.6331V117.814L0 104.724V78.5427Z" fill="#C2C2C2"/>
<path d="M64.4977 91.6331L85.9973 104.724V130.904L64.4977 117.814V91.6331Z" fill="#B0B0B0"/>
<path d="M64.4977 170.176L85.9973 183.266V209.447L64.4977 196.357V170.176Z" fill="#B3B3B3"/>
<path d="M64.4977 143.995L85.9973 157.085V183.266L64.4977 170.176V143.995Z" fill="#B3B3B3"/>
<path d="M64.5013 117.814L86.0008 130.904V157.085L64.5013 143.995V117.814ZM43.0017 78.5427L64.5013 91.6331V117.814L43.0017 104.724V78.5427Z" fill="#B3B3B3"/>
<path d="M43.0017 157.085L64.5013 170.176V196.357L43.0017 183.266V157.085Z" fill="#B0B0B0"/>
<path d="M43.0017 130.904L64.5013 143.995V170.176L43.0017 157.085V130.904Z" fill="#C2C2C2"/>
<path d="M43.0017 104.724L64.5013 117.814V143.995L43.0017 130.904V104.724Z" fill="#B5B5B5"/>
<path d="M21.496 65.4522L42.9956 78.5427V104.724L21.496 91.6331V65.4522Z" fill="#B3B3B3"/>
<path d="M21.496 143.995L42.9956 157.085V183.266L21.496 170.176V143.995Z" fill="#B5B5B5"/>
<path d="M21.496 117.814L42.9956 130.904V157.085L21.496 143.995V117.814Z" fill="#B3B3B3"/>
<path d="M21.496 91.6331L42.9956 104.724V130.904L21.496 117.814V91.6331Z" fill="#B0B0B0"/>
<path d="M85.9982 0L107.498 13.0904L85.9982 26.1809L64.4987 13.0904L85.9982 0ZM21.4996 39.2713L42.9991 52.3618L21.4996 65.4522L0 52.3618L21.4996 39.2713Z" fill="#C7C7C7"/>
<path d="M42.9956 26.1809L64.4951 39.2713L42.9956 52.3618L21.496 39.2713L42.9956 26.1809Z" fill="#E0E0E0"/>
<path d="M64.5013 13.0904L86.0008 26.1809L64.5013 39.2713L43.0017 26.1809L64.5013 13.0904ZM150.5 39.2713L171.999 52.3618L150.5 65.4522L129 52.3618L150.5 39.2713Z" fill="#C9C9C9"/>
<path d="M85.9973 78.5427L107.497 91.6331L85.9973 104.724L64.4977 91.6331L85.9973 78.5427Z" fill="#E0E0E0"/>
<path d="M107.493 65.4522L128.993 78.5427L107.493 91.6331L85.9937 78.5427L107.493 65.4522Z" fill="#C9C9C9"/>
<path d="M129 52.3618L150.5 65.4522L128.999 78.5427L107.499 65.4522L129 52.3618Z" fill="#E0E0E0"/>
<path d="M128.999 26.1809L150.5 39.2713L129 52.3618L107.499 39.2713L128.999 26.1809Z" fill="#E8E8E8"/>
<path d="M64.5013 65.4522L86.0008 78.5427L64.5013 91.6331L43.0017 78.5427L64.5013 65.4522Z" fill="#C9C9C9"/>
<path d="M85.9973 52.3618L107.497 65.4522L85.9973 78.5427L64.4977 65.4522L85.9973 52.3618Z" fill="#E8E8E8"/>
<path d="M107.493 39.2713L128.993 52.3618L107.493 65.4522L85.9937 52.3618L107.493 39.2713Z" fill="#C9C9C9"/>
<path d="M107.493 13.0904L128.993 26.1809L107.493 39.2713L85.9937 26.1809L107.493 13.0904Z" fill="#E0E0E0"/>
<path d="M42.9956 52.3618L64.4951 65.4522L42.9956 78.5427L21.496 65.4522L42.9956 52.3618Z" fill="#C7C7C7"/>
<path d="M64.5013 39.2713L86.0008 52.3618L64.5013 65.4522L43.0017 52.3618L64.5013 39.2713Z" fill="#E0E0E0"/>
<path d="M85.9982 26.1809L107.497 39.2713L85.9973 52.3618L64.4977 39.2713L85.9982 26.1809Z" fill="#C7C7C7"/>
</svg>
