<svg width="241" height="380" viewBox="0 0 241 380" fill="none" xmlns="http://www.w3.org/2000/svg">
<path d="M125.745 147.899L164.615 256.529C172.395 253.779 179.835 250.819 187.475 248.589C191.269 247.369 195.29 247.027 199.235 247.589C207.045 249.069 212.045 255.589 212.615 263.369C212.899 267.104 211.968 270.831 209.96 273.994C207.952 277.157 204.976 279.586 201.475 280.919C193.385 284.049 185.165 286.849 176.615 289.919L183.425 309.059C194.215 305.209 204.685 301.179 215.375 297.829C219.328 296.573 223.522 296.268 227.615 296.939C235.025 298.339 240.015 305.079 240.425 312.609C240.875 320.609 236.845 327.339 229.425 330.179C220.235 333.689 210.915 336.839 201.655 340.179C199.655 340.879 197.775 341.669 195.455 342.569C196.715 346.099 197.915 349.389 199.065 352.709C203.065 364.159 198.375 374.779 187.835 378.369C177.475 381.909 167.345 376.609 163.345 365.449C139.705 299.449 116.122 233.395 92.5949 167.289C90.8049 162.229 88.7149 160.579 83.1849 160.669C43.8849 161.379 11.7549 135.929 2.90493 97.5986C-8.88507 46.5286 33.2449 -3.09141 85.5749 0.248592C120.385 2.47859 148.845 24.6786 158.575 57.2486C168.465 90.3386 156.775 124.899 128.575 145.859L125.745 147.899ZM81.2949 126.799C93.4797 126.68 105.128 121.77 113.721 113.131C122.314 104.491 127.161 92.8161 127.214 80.6308C127.266 68.4456 122.52 56.7294 114.002 48.0159C105.484 39.3025 93.8782 34.2922 81.6949 34.0686C56.3449 33.8386 35.1749 54.9886 35.1549 80.5486C35.1707 92.791 40.0334 104.529 48.6798 113.196C57.3262 121.863 69.0526 126.754 81.2949 126.799Z" fill="black"/>
</svg>
