<svg width="30" height="30" viewBox="0 0 30 30" fill="none" xmlns="http://www.w3.org/2000/svg">
<path fill-rule="evenodd" clip-rule="evenodd" d="M21.4912 17.1604C21.5666 17.1173 21.6384 17.0711 21.7068 17.0222L23.8058 15.8103C24.3862 15.4752 24.3862 14.6376 23.8058 14.3025L21.4453 12.9397C21.412 12.9204 21.3782 12.9037 21.3441 12.8893L11.9969 7.43082C10.3898 6.49231 8.37053 7.65148 8.37053 9.51256L8.37053 20.5095C8.37053 22.361 10.3711 23.5214 11.9782 22.6021L21.4912 17.1604ZM11.1137 21.0908L20.1395 15.9278V15.8265H10.1116V20.5095C10.1116 21.0238 10.6673 21.3462 11.1137 21.0908ZM10.1116 14.0854V9.51256C10.1116 8.9956 10.6725 8.6736 11.1189 8.9343L19.9397 14.0854H10.1116Z" fill="#07ACFF"/>
</svg>
