<svg width="80" height="80" viewBox="0 0 80 80" fill="none" xmlns="http://www.w3.org/2000/svg">
<path d="M80 40C80 62.0914 62.0914 80 40 80C17.9086 80 0 62.0914 0 40C0 17.9086 17.9086 0 40 0C62.0914 0 80 17.9086 80 40Z" fill="#07ACFF"/>
<path fill-rule="evenodd" clip-rule="evenodd" d="M57.3098 45.7611C57.5108 45.6462 57.7025 45.523 57.8848 45.3924L63.4821 42.1608C65.0298 41.2673 65.0298 39.0335 63.4821 38.14L57.1875 34.5058C57.0986 34.4545 57.0085 34.4098 56.9175 34.3715L31.9918 19.8155C27.7062 17.3128 22.3214 20.404 22.3214 25.3668L22.3214 54.6921C22.3214 59.6294 27.6563 62.7237 31.942 60.2722L57.3098 45.7611ZM29.6367 56.2421L53.7054 42.4742V42.204H26.9643V54.6921C26.9643 56.0635 28.4462 56.9231 29.6367 56.2421ZM26.9643 37.5611L26.9643 25.3668C26.9643 23.9883 28.4601 23.1296 29.6505 23.8248L53.1726 37.5611H26.9643Z" fill="white"/>
</svg>
