<svg width="925" height="160" viewBox="0 0 925 160" fill="none" xmlns="http://www.w3.org/2000/svg">
<g clip-path="url(#clip0_928_25137)">
<path d="M17.0947 79.9992L68.645 0.199219L120.195 79.9992L68.645 159.799L17.0947 79.9992Z" fill="#89B8FF"/>
<path d="M68.645 159.8V80H28.5503L68.645 159.8Z" fill="#BCBEBF"/>
<path d="M68.645 159.8V80H108.74L68.645 159.8Z" fill="#A4A5A6"/>
<path d="M68.645 79.9992V0.199219L28.5503 79.9992H68.645Z" fill="#C9CBCC"/>
<path d="M68.645 79.9992V0.199219L108.74 79.9992H68.645Z" fill="#AFB1B3"/>
<path d="M68.6449 159.8L-0.0888672 80H34.278L68.6449 159.8Z" fill="#D3D3D3"/>
<path d="M-0.0888672 79.9992L68.6449 0.199219L34.278 79.9992H-0.0888672Z" fill="#DEDEDE"/>
<path d="M137.379 80L68.645 159.8L103.012 80H137.379Z" fill="#979899"/>
<path d="M68.645 0.199219L137.379 79.9992H103.012L68.645 0.199219Z" fill="#A4A5A6"/>
<path d="M222.368 124.353V47.2035H191.793V29.277H275.052V47.2035H244.477V124.353H222.368ZM312.925 125.442C305.1 125.442 298.139 123.812 292.041 120.551C286.188 117.426 281.25 112.842 277.71 107.247C274.254 101.54 272.526 95.0645 272.526 87.8217C272.526 80.4877 274.254 74.0144 277.71 68.4018C281.261 62.6942 286.038 58.2558 292.041 55.0866C298.139 51.8262 305.1 50.196 312.925 50.196C320.661 50.196 327.576 51.8262 333.671 55.0866C339.769 58.2558 344.548 62.6486 348.008 68.265C351.463 73.8776 353.191 80.3965 353.191 87.8217C353.191 95.0683 351.463 101.544 348.008 107.247C344.548 112.86 339.771 117.296 333.677 120.557C327.578 123.817 320.661 125.442 312.925 125.442ZM312.925 108.062C316.273 108.113 319.572 107.266 322.479 105.611C325.314 103.969 327.632 101.57 329.169 98.6859C330.807 95.6079 331.626 91.9865 331.626 87.8217C331.626 83.5657 330.807 79.9443 329.169 76.9575C327.632 74.0732 325.314 71.6743 322.479 70.032C319.572 68.3774 316.273 67.5308 312.925 67.581C309.577 67.5308 306.277 68.3774 303.371 70.032C300.549 71.6546 298.275 73.9631 296.549 76.9575C294.907 79.9481 294.086 83.5695 294.086 87.8217C294.086 91.9827 294.907 95.606 296.549 98.6916C298.279 101.678 300.553 103.987 303.371 105.617C306.278 107.27 309.577 108.114 312.925 108.062ZM412.056 50.1903C417.883 50.1903 423.07 51.3683 427.618 53.7243C432.258 55.9891 435.897 59.5212 438.536 64.3206C441.174 69.0288 442.493 75.0955 442.493 82.5207V124.359H421.203V85.7811C421.203 79.8911 419.884 75.5439 417.245 72.7395C414.698 69.9313 411.057 68.5272 406.322 68.5272C403.141 68.4852 399.999 69.2336 397.181 70.7046C394.546 72.0612 392.453 74.1892 390.903 77.0886C389.444 79.9842 388.715 83.6968 388.715 88.2264V124.353H367.425V51.279H387.759V71.514L383.938 65.4036C386.492 60.5989 390.44 56.6703 395.268 54.129C400.182 51.507 405.778 50.1903 412.056 50.1903ZM480.389 124.359L449.544 51.279H471.522L497.183 114.167H486.26L512.877 51.279H533.348L502.366 124.353L480.389 124.359ZM542.037 124.359V51.2847H563.333V124.359H542.037ZM552.685 41.0988C548.771 41.0988 545.586 39.9664 543.131 37.7016C541.943 36.6457 540.998 35.3467 540.362 33.8936C539.725 32.4405 539.411 30.8676 539.442 29.2827C539.442 25.9349 540.672 23.1267 543.131 20.8581C545.59 18.5933 548.775 17.4609 552.685 17.4609C556.595 17.4609 559.78 18.5477 562.239 20.7213C564.698 22.8037 565.928 25.5207 565.928 28.8723C565.928 32.4063 564.698 35.3494 562.239 37.7016C559.872 39.9664 556.687 41.0988 552.685 41.0988ZM619.54 125.447C611.166 125.447 603.794 123.817 597.425 120.557C591.147 117.296 586.279 112.86 582.819 107.247C579.363 101.54 577.635 95.0645 577.635 87.8217C577.635 80.4877 579.318 74.0144 582.682 68.4018C586.059 62.7687 590.922 58.1637 596.743 55.0866C602.654 51.8262 609.343 50.196 616.808 50.196C623.994 50.196 630.455 51.735 636.191 54.813C641.954 57.7463 646.742 62.2754 649.978 67.8546C653.338 73.471 655.02 80.216 655.024 88.0896C655.024 88.9066 654.978 89.8585 654.886 90.9453C654.795 91.9447 654.705 92.8947 654.617 93.7953H594.968V81.4377H643.425L635.234 85.1085C635.234 81.3009 634.461 77.9949 632.915 75.1905C631.433 72.461 629.21 70.2012 626.499 68.6697C623.765 67.0395 620.581 66.2244 616.945 66.2244C613.302 66.2244 610.072 67.0414 607.254 68.6754C604.524 70.2106 602.385 72.4279 600.839 75.3273C599.292 78.1317 598.519 81.4814 598.519 85.3764V88.6368C598.519 92.6268 599.382 96.1589 601.108 99.2331C602.929 102.224 605.433 104.532 608.617 106.159C611.893 107.698 615.716 108.467 620.084 108.467C623.998 108.467 627.41 107.878 630.32 106.7C633.371 105.483 636.153 103.685 638.511 101.405L649.84 113.631C646.472 117.431 642.241 120.374 637.147 122.461C632.05 124.456 626.181 125.451 619.54 125.447ZM684.654 124.364L658.174 51.2847H678.239L700.216 114.173H690.657L713.591 51.2847H731.605L753.857 114.173H744.303L766.957 51.2847H785.796L759.178 124.359H738.57L719.049 70.4367H725.327L705.125 124.359L684.654 124.364ZM830.14 125.447C821.766 125.447 814.396 123.817 808.031 120.557C801.753 117.296 796.885 112.86 793.425 107.247C789.965 101.54 788.236 95.0645 788.236 87.8217C788.236 80.4877 789.92 74.0144 793.287 68.4018C796.665 62.7687 801.528 58.1637 807.349 55.0866C813.264 51.8262 819.952 50.196 827.414 50.196C834.6 50.196 841.059 51.735 846.791 54.813C852.556 57.7436 857.345 62.2734 860.578 67.8546C863.946 73.471 865.63 80.216 865.63 88.0896C865.63 88.9066 865.584 89.8585 865.492 90.9453C865.404 91.9447 865.313 92.8947 865.217 93.7953H805.574V81.4377H854.025L845.84 85.1085C845.84 81.3009 845.065 77.9949 843.515 75.1905C842.041 72.4554 839.816 70.1938 837.1 68.6697C834.369 67.0395 831.185 66.2244 827.546 66.2244C823.906 66.2244 820.676 67.0414 817.854 68.6754C815.128 70.2106 812.989 72.4279 811.439 75.3273C809.892 78.1317 809.119 81.4814 809.119 85.3764V88.6368C809.119 92.6268 809.984 96.1589 811.714 99.2331C813.531 102.224 816.035 104.532 819.223 106.159C822.499 107.698 826.32 108.467 830.684 108.467C834.595 108.467 838.008 107.878 840.926 106.7C843.982 105.496 846.765 103.696 849.111 101.405L860.44 113.631C857.08 117.431 852.849 120.374 847.747 122.461C842.65 124.456 836.781 125.451 830.14 125.447ZM879.806 124.364V51.2733H900.14V71.9187L897.276 65.9451C899.456 60.7809 902.96 56.8859 907.786 54.2601C912.609 51.5431 918.478 50.1846 925.394 50.1846V69.747C924.578 69.6577 923.757 69.612 922.936 69.6102C922.167 69.5126 921.392 69.4669 920.617 69.4734C914.79 69.4734 910.057 71.1492 906.417 74.5008C902.87 77.7612 901.096 82.8779 901.096 89.8509V124.347L879.806 124.364Z" fill="#B7B7B7"/>
</g>
<defs>
<clipPath id="clip0_928_25137">
<rect width="925" height="160" fill="white"/>
</clipPath>
</defs>
</svg>
