<svg width="752" height="866" viewBox="0 0 752 866" fill="none" xmlns="http://www.w3.org/2000/svg">
<g clip-path="url(#clip0_790_25243)">
<path d="M629.05 321.199H617.85C618.08 322.649 618.2 323.899 618.49 325.109C623.39 345.259 621.85 365.109 616.26 384.929C609.06 410.399 598.67 434.629 588.03 458.779C578.57 480.239 568.89 501.629 561.7 524.009C557.23 537.929 550.14 550.089 538.37 559.129C528.05 567.049 516.15 571.049 503.43 572.959C493.161 574.395 482.765 574.7 472.43 573.869C471.735 573.741 471.018 573.852 470.395 574.184C469.772 574.517 469.28 575.051 469 575.699C465.18 582.629 461.24 589.479 457.25 596.519C460.03 598.279 462.84 599.969 465.56 601.779C475.054 608.117 483.779 615.536 491.56 623.889C492.442 624.794 493.524 625.479 494.72 625.889C533.81 639.189 572.99 652.229 611.98 665.809C630.1 672.119 647.91 679.309 665.73 686.429C670.312 688.201 674.462 690.934 677.9 694.444C681.338 697.954 683.984 702.16 685.66 706.779C685.82 707.394 686.149 707.951 686.61 708.389C692.61 712.549 696.16 718.589 699.35 724.889C710.87 747.716 722.376 770.546 733.87 793.379C734.48 794.589 734.48 795.319 733.22 796.149C729.66 798.499 726.22 800.999 722.7 803.429C721.3 800.429 719.91 797.429 718.5 794.429C711.7 779.959 704.94 765.429 698.07 751.049C694.35 743.249 690.39 735.569 686.6 727.809C684.471 723.139 680.866 719.298 676.34 716.879C675.992 716.717 675.68 716.487 675.42 716.204C675.161 715.921 674.961 715.59 674.83 715.229C673.33 706.229 667.77 700.649 659.69 697.499C642.03 690.609 624.33 683.799 606.51 677.319C591.95 672.029 577.21 667.249 562.51 662.319C553.51 659.269 544.43 656.319 535.39 653.319L504.39 642.569C504.512 642.916 504.666 643.25 504.85 643.569C518.52 658.729 532.35 673.749 545.85 689.099C551.679 695.78 557.083 702.821 562.03 710.179C566.96 717.479 567.1 725.429 561.93 732.329C559.75 735.239 557.38 737.989 555.09 740.809L546.09 751.759C546.7 752.119 547.09 752.299 547.4 752.539C552.46 756.409 557.47 760.359 562.6 764.139C569.4 769.139 573.23 775.629 573.24 784.239C573.24 791.659 571.24 798.609 568.33 805.289C564.596 813.856 560.666 822.342 556.54 830.749C550.83 842.429 544.88 853.999 539.03 865.609C536.2 871.229 533.34 876.829 530.5 882.439L517.89 884.439C518.149 883.691 518.446 882.957 518.78 882.239C525.96 868.769 533.36 855.409 540.29 841.809C547.47 827.709 554.383 813.472 561.03 799.099C565.83 788.669 563.76 778.629 555.91 771.929C550.51 767.329 544.83 763.049 539.23 758.679C536.84 756.819 534.33 755.099 531.71 753.199C532.61 752.199 533.33 751.459 534.01 750.679C540.27 743.489 546.38 736.169 552.81 729.159C556.23 725.429 556.4 721.539 554.61 717.319C553.618 714.76 552.271 712.353 550.61 710.169C541.15 698.609 531.84 686.909 521.88 675.789C506.88 659.069 491.43 642.789 476.17 626.319C469.286 619.475 461.444 613.667 452.89 609.079C453.06 612.222 453.556 615.338 454.37 618.379C457.53 629.209 458.27 640.379 459.55 651.519C461.12 665.199 462.05 678.959 463.01 692.699C463.58 700.899 463.77 709.139 464.01 717.359C464.26 727.299 464.5 737.229 464.49 747.169C464.49 763.979 464.3 780.789 464.13 797.599C464.03 808.499 463.82 819.409 463.65 830.309C463.5 839.999 463.31 849.689 463.19 859.379C463.1 865.769 463.19 872.159 463.04 878.549C462.98 882.059 462.68 885.549 462.49 888.919L455.85 889.749H453.91C453.763 871.569 453.61 853.389 453.45 835.209C453.25 815.209 453.026 795.242 452.78 775.309C452.78 772.316 452.713 769.316 452.58 766.309C452.605 765.582 452.472 764.859 452.19 764.189C446.598 753.787 440.184 743.849 433.01 734.469C432.85 736.209 432.75 737.469 432.62 738.619C431.82 745.839 430.96 753.049 430.26 760.269C430.056 761.824 430.217 763.406 430.73 764.889C437.07 780.579 442.35 796.569 444.89 813.349C446.89 826.619 447.62 839.889 442.89 852.849C440.04 860.639 435.22 867.209 429.8 873.349C425.53 878.189 421.07 882.879 416.64 887.579C416.08 888.21 415.3 888.603 414.46 888.679C409.65 888.379 404.84 887.909 400.03 887.489C403.79 884.569 407.79 881.909 411.25 878.679C430.97 860.269 439.49 838.089 433.69 811.119C430.69 796.969 425.21 783.689 419.77 770.389C419.17 768.909 418.17 768.869 416.9 768.879C406.394 769.031 395.944 770.434 385.77 773.059C381.58 774.059 377.48 775.489 373.68 776.609C376.97 784.259 380.44 791.459 383.21 798.929C387.9 811.579 387.71 823.929 379.52 835.379C375.716 840.521 371.111 845.019 365.88 848.699C354.282 856.986 343.437 866.278 333.47 876.469L320.23 872.909C320.592 872.758 320.93 872.552 321.23 872.299C327.86 864.499 335.87 858.209 343.7 851.699C351.53 845.189 359.46 838.829 366.86 831.869C372.03 827.009 375.65 820.959 375.92 813.419C376.19 805.879 372.92 799.419 368.59 793.589C352.14 771.419 335.77 749.189 318.95 727.289C307.89 712.889 296.25 698.929 284.64 684.949C271.973 669.669 259.136 654.512 246.13 639.479C231.23 622.259 216.03 605.309 201.13 588.109C198.255 584.868 195.817 581.264 193.88 577.389C193.022 575.825 192.794 573.992 193.242 572.266C193.69 570.539 194.78 569.049 196.29 568.099C198.94 566.399 198.95 564.599 198.29 562.099C197.96 560.759 197.56 560.429 196.19 560.629C184.503 562.241 173.093 565.451 162.28 570.169C152.28 574.659 143.72 580.689 139.54 591.389C137.88 595.659 135.9 599.859 136.64 604.699C138.32 615.769 139.64 626.919 141.64 637.939C145.09 656.939 148.84 675.939 152.64 694.939C155.19 707.589 157.98 720.189 160.89 732.759C162.7 740.599 166.34 747.129 174.4 750.459C199.7 760.889 224.93 771.459 250.19 782.039C253.57 783.449 256.95 784.889 260.46 786.369C259.97 787.139 259.71 787.639 259.37 788.079C249.496 801.072 239.63 814.072 229.77 827.079C227.69 829.819 225.82 832.719 223.86 835.539L213.7 830.289C214.03 829.739 214.31 829.149 214.7 828.639C222.7 818.012 230.7 807.392 238.7 796.779C240.17 794.779 241.59 792.779 243.18 790.659C242.13 790.149 241.51 789.799 240.85 789.539C218.3 780.779 195.7 772.139 173.21 763.229C159.87 757.939 151.54 748.159 148.68 733.969C146.68 724.122 144.753 714.256 142.9 704.369C141.1 694.889 139.31 685.369 137.64 675.909C135.64 664.499 133.64 653.089 131.91 641.649C130.52 632.589 129.5 623.479 128.32 614.389C127.96 611.639 127.63 608.889 127.32 606.019L112.32 610.929C101.68 613.429 91.0197 615.839 80.4097 618.459C59.9597 623.469 39.4697 628.619 19.0497 633.769L12.1797 621.089L33.1797 616.169C58.2497 610.329 83.3497 604.589 108.38 598.589C113.76 597.289 118.93 595.089 124.16 593.199C124.552 593.044 124.908 592.81 125.208 592.513C125.507 592.215 125.742 591.86 125.9 591.469C131.25 574.269 143.54 564.029 159.64 557.469C170.719 552.965 182.314 549.855 194.16 548.209C194.95 548.089 195.73 547.929 196.91 547.729C196.12 542.969 195.47 538.279 194.55 533.639C190.8 514.639 184.41 496.459 178.08 478.239C169.95 454.849 161.74 431.489 155.83 407.389C146.99 371.339 142.37 334.829 143.49 297.679C144.621 254.692 154.338 212.365 172.07 173.189C192.85 127.189 225.36 92.1889 269.27 67.5989C294.059 53.7615 321.025 44.2487 349.01 39.4689C374.211 35.0934 399.924 34.5035 425.3 37.7189C456.49 41.5989 485.99 50.6689 513.44 66.1289C543.419 82.9117 568.415 107.341 585.88 136.929C598.909 158.638 608.445 182.259 614.14 206.929C617.57 221.779 619.71 236.779 618.85 252.089C618.85 252.489 618.85 252.889 618.92 253.289L619.34 253.659L630.01 253.469C633.01 253.469 635.95 253.469 638.91 253.389L679.91 252.679C681.34 252.589 682.2 253.029 681.91 254.679C681.86 255.315 681.86 255.953 681.91 256.589V268.469H673.91V286.179H665.48V294.859H657.02V303.569H648.64V312.339H640.05V321.189L629.05 321.199ZM639.22 269.319H631.22V277.999H622.78V286.739H614.18V295.659H605.88V304.109H614.47V295.469H622.77V303.889H631.47V295.469H640.15V286.759L648.36 286.379V278.069H639.74L639.68 269.789L639.22 269.319ZM485.93 293.039H490.29C490.73 292.669 491.54 292.289 491.54 291.929C491.54 288.869 491.35 285.819 491.23 282.769H501.47V272.469H491.29V282.849L481.04 282.899V272.779H470.92V282.849H460.71V293.539H450.6V304.239H440.47V314.239H450.55V304.179L460.72 303.659V313.959H471.36V303.669H481.3V292.979L485.93 293.039ZM603.21 222.639L601.33 213.359C602.39 210.359 609.23 223.54 606 221.5C602.77 219.46 603.21 221.5 601.33 213.359C597.408 195.034 591.224 177.268 582.92 160.469C559.92 113.379 523.63 81.2389 474.42 63.4689C453.286 55.8077 431.137 51.3091 408.69 50.1188C397.75 49.5488 386.75 50.1189 375.78 50.2189C370.57 50.7289 365.33 51.0788 360.14 51.7788C329.07 55.864 299.128 66.1109 272.07 81.9188C242.61 99.1089 218.25 121.709 199.92 150.569C188.39 168.719 179.84 188.289 172.99 208.639C164.947 232.705 159.945 257.682 158.1 282.989C156.953 298.632 156.863 314.334 157.83 329.989C159.087 350.215 161.841 370.32 166.07 390.139C170.95 413.409 178.07 436.019 185.81 458.469C191.09 473.799 196.36 489.139 201.36 504.569C207.06 522.149 210.06 540.239 211.89 558.639C213.64 576.319 221.44 591.379 235.25 602.639C249.06 613.899 263.35 624.929 277.87 635.429C300.56 651.829 324.95 665.189 351.62 674.039C363.94 678.129 376.49 679.479 389.29 676.279C397.94 674.109 405.29 669.409 412.29 664.279C420.92 657.969 429.29 651.349 435.6 642.569C439.7 636.849 442.45 630.729 440.78 623.339C439.96 619.729 439.68 616.009 439.16 612.339C439.32 609.599 439.34 606.849 439.68 604.129C440.4 598.319 443.08 593.249 446.08 588.339C448.105 585.327 449.38 581.874 449.8 578.269C450.34 571.849 447.4 567.209 441.24 565.449C436.66 564.149 432.07 562.879 427.56 561.389C399.5 552.079 375.16 537.079 356.45 513.899C350.81 506.899 346.32 498.989 341.3 491.499C341.933 491.917 342.535 492.382 343.1 492.889C373.853 524.889 410.73 546.322 453.73 557.189C458.23 558.319 462.89 558.789 467.47 559.559L467.6 559.629L467.72 559.559L468.43 559.719C480.3 560.639 492.15 560.909 503.96 558.909C525.73 555.199 540.39 543.189 547.7 522.179C551.89 510.179 556.17 498.109 561.06 486.349C569.78 465.419 579.17 444.769 587.93 423.859C595.29 406.279 601.54 388.299 605.6 369.599C609.12 353.409 607.77 337.529 603.43 321.849H571.75V313.469H565.75L563.27 313.179C563.21 312.369 563.12 311.659 563.11 310.959C563.03 305.129 563.03 305.019 557.32 305.179C555.02 305.239 554.25 304.639 554.32 302.259C554.44 297.619 554.22 292.989 554.13 288.189H545.26V271.039H522.08V292.819H511.9V303.199H501.78V313.569H491.68V324.119H481.55V334.299L399.55 335.709V325.469H389.03V315.299H378.47V295.069H367.78V273.689C360.14 273.769 353.15 273.879 346.14 276.389C327.14 283.169 307.96 289.339 288.85 295.749C288.31 295.909 287.76 296.049 287.23 296.229L232.23 314.559C232.23 311.679 232.07 308.789 232.23 305.919C232.31 304.069 231.62 303.549 229.87 303.649C227.538 303.77 225.201 303.77 222.87 303.649C222.24 303.649 221.63 303.059 221 302.749C235.38 297.902 249.753 293.049 264.12 288.189C271.6 285.659 279.06 283.069 286.53 280.509C287.083 280.416 287.63 280.293 288.17 280.139C306.836 273.879 325.503 267.622 344.17 261.369C347.68 260.199 351.23 258.439 354.81 258.309C370.87 257.729 386.96 257.639 403.04 257.359C422.68 257.019 442.316 256.686 461.95 256.359C482.39 256.009 502.83 255.709 523.28 255.359C532.16 255.199 541.04 254.939 549.92 254.729C549.92 255.129 549.92 255.529 549.92 255.939C549.92 262.019 549.92 262.019 556.14 262.009C560.02 262.009 559.99 262.009 560.14 258.009C560.237 256.891 560.394 255.78 560.61 254.679L604.68 254.059C604.935 252.116 605.062 250.158 605.06 248.199C604.55 239.649 603.85 231.149 603.21 222.639ZM367.57 769.759C367.85 769.759 367.94 769.839 368 769.809C383.297 764.081 399.449 760.968 415.78 760.599C417.07 760.599 417.78 760.269 418.08 758.789C420.5 746.499 420.9 734.099 420.32 721.649C420.174 720.714 419.677 719.869 418.93 719.289C415.465 716.405 411.828 713.733 408.04 711.289C395.55 703.809 382.33 701.679 368.38 706.859C355.94 711.479 346.85 720.229 339.06 730.599C338.18 731.769 338.74 732.449 339.42 733.319C344.086 739.319 348.753 745.319 353.42 751.319C358.17 757.469 362.91 763.659 367.57 769.759ZM386.3 691.229C415.83 698.379 435.36 718.529 451.8 743.069L446.89 651.399C429.68 669.859 411.53 686.109 386.3 691.229ZM269.08 646.469L268.99 646.749L330.62 721.749C342.515 710.159 355.919 700.226 370.47 692.219C364.16 690.969 357.67 690.059 351.4 688.329C345.128 686.505 338.961 684.335 332.93 681.829C311.19 673.119 291.07 661.419 271.86 648.089C270.95 647.469 270 646.979 269.08 646.469ZM648.56 277.569H656.74V269.239H648.41C648.41 271.989 648.41 274.549 648.41 277.109C648.438 277.268 648.489 277.423 648.56 277.569Z" fill="white"/>
<path d="M220.04 303.102L221.04 302.742C221.67 303.052 222.28 303.612 222.91 303.642C225.242 303.764 227.578 303.764 229.91 303.642C231.66 303.542 232.35 304.062 232.27 305.912C232.14 308.782 232.27 311.672 232.27 314.552V344.212H218.71V341.912C218.71 329.812 218.71 317.722 218.71 305.622C218.858 304.793 219.146 303.995 219.56 303.262L220.04 303.102Z" fill="white"/>
<path d="M622.76 295.467H614.47V304.157H605.89V295.707H614.19V286.787H622.79L622.73 286.727C622.73 289.66 622.73 292.59 622.73 295.517L622.76 295.467Z" fill="black"/>
<path d="M639.73 278.027H648.35V286.337L640.14 286.717V295.467H631.47V295.517C631.47 292.587 631.47 289.658 631.47 286.728H631.41H639.71V277.938L639.73 278.027Z" fill="black"/>
<path d="M471.36 303.666V313.956H460.72V303.656V303.706H471.47L471.36 303.666Z" fill="black"/>
<path d="M481.3 292.977V303.667H471.36L471.42 303.727C471.26 300.307 471.093 296.89 470.92 293.477L470.85 293.547L481.35 293.027L481.3 292.977Z" fill="black"/>
<path d="M460.71 293.537V282.847H470.92L470.87 282.797C470.87 286.377 470.87 289.967 470.87 293.547L470.94 293.477H460.68L460.71 293.537Z" fill="black"/>
<path d="M460.72 303.657L450.55 304.177L450.6 304.247V293.537H460.71V293.477C460.71 296.887 460.71 300.297 460.71 303.707L460.72 303.657Z" fill="black"/>
<path d="M491.29 282.789V272.469H501.47V282.779H491.27L491.29 282.789Z" fill="black"/>
<path d="M470.92 282.851V272.781H481.04V282.851L481.11 282.801H470.87L470.92 282.851Z" fill="black"/>
<path d="M481.3 292.977V293.027L481.06 282.797L480.99 282.847L491.24 282.797L491.18 282.727C491.3 285.777 491.47 288.827 491.49 291.887C491.49 292.247 490.68 292.627 490.24 292.997H485.88L481.3 292.977Z" fill="black"/>
<path d="M450.55 304.18V314.26H440.47V304.26H450.6L450.55 304.18Z" fill="black"/>
<path d="M622.781 286.74V278H631.22C631.307 280.927 631.39 283.857 631.47 286.79H631.531H622.73L622.781 286.74Z" fill="black"/>
<path d="M631.21 277.95V269.32H639.21L639.66 269.75L639.72 278.03V277.95H631.21Z" fill="black"/>
<path d="M631.469 295.469V303.879H622.77V295.469V295.519H631.469V295.469Z" fill="black"/>
<path d="M648.56 277.572C648.489 277.427 648.439 277.272 648.41 277.112C648.41 274.552 648.41 271.992 648.41 269.242H656.74V277.572H648.56Z" fill="black"/>
<path d="M220.04 303.102L219.6 303.272C219.723 303.166 219.878 303.106 220.04 303.102Z" fill="white"/>
<path d="M509.57 374.35L509.47 374.47C509.47 374.42 509.36 374.36 509.37 374.32C509.38 374.28 509.46 374.23 509.5 374.18L509.57 374.35Z" fill="white"/>
<path d="M631.47 295.47H622.67C622.67 292.543 622.67 289.613 622.67 286.68H631.47C631.52 289.62 631.47 292.55 631.47 295.47Z" fill="white"/>
<path d="M631.21 277.953H639.76V286.743H631.47C631.383 283.816 631.297 280.886 631.21 277.953Z" fill="white"/>
<path d="M460.67 303.707C460.67 300.297 460.67 296.887 460.67 293.477H470.91C471.077 296.89 471.243 300.307 471.41 303.727L460.67 303.707Z" fill="white"/>
<path d="M481.11 282.797L481.35 293.027L470.85 293.547C470.85 289.967 470.85 286.377 470.85 282.797H481.11Z" fill="white"/>
</g>
<defs>
<clipPath id="clip0_790_25243">
<rect width="752" height="866" fill="white"/>
</clipPath>
</defs>
</svg>
