<svg width="398" height="312" viewBox="0 0 398 312" fill="none" xmlns="http://www.w3.org/2000/svg">
<g clip-path="url(#clip0_727_25574)">
<path d="M64.5996 237.902C66.9996 235.502 70.2997 234.102 73.7997 234.102H391.2C397 234.102 399.9 241.102 395.8 245.202L333.1 307.902C330.7 310.302 327.4 311.702 323.9 311.702H6.49965C0.69965 311.702 -2.20035 304.702 1.89965 300.602L64.5996 237.902Z" fill="black"/>
<path d="M64.5996 3.8C67.0996 1.4 70.3997 0 73.7997 0H391.2C397 0 399.9 7 395.8 11.1L333.1 73.8C330.7 76.2 327.4 77.6 323.9 77.6H6.49965C0.69965 77.6 -2.20035 70.6 1.89965 66.5L64.5996 3.8Z" fill="black"/>
<path d="M333.1 120.101C330.7 117.701 327.4 116.301 323.9 116.301H6.49965C0.69965 116.301 -2.20035 123.301 1.89965 127.401L64.5996 190.101C66.9996 192.501 70.2997 193.901 73.7997 193.901H391.2C397 193.901 399.9 186.901 395.8 182.801L333.1 120.101Z" fill="black"/>
</g>
<defs>
<clipPath id="clip0_727_25574">
<rect width="397.7" height="311.7" fill="white"/>
</clipPath>
</defs>
</svg>
