<svg width="860" height="220" viewBox="0 0 860 220" fill="none" xmlns="http://www.w3.org/2000/svg">
<path d="M860 110C860 49.2487 810.751 0 750 0H90C62.3858 0 40 22.3858 40 50V220H750C810.751 220 860 170.751 860 110V110Z" fill="#07ACFF"/>
<path fill-rule="evenodd" clip-rule="evenodd" d="M0 213.503V220H40V165H39.941C38.8357 188.576 22.1803 208.085 0 213.503Z" fill="#07ACFF"/>
<path d="M463.783 125.342V185H456.816V132.789H456.776L441.922 142.639V135.271L456.816 125.342H463.783ZM493.492 125.342V185H486.525V132.789H486.485L471.631 142.639V135.271L486.525 125.342H493.492ZM508.427 175.871C507.039 175.871 505.851 175.391 504.863 174.43C503.902 173.442 503.422 172.254 503.422 170.866C503.422 169.451 503.902 168.264 504.863 167.303C505.851 166.342 507.039 165.861 508.427 165.861C509.841 165.861 511.029 166.342 511.99 167.303C512.951 168.264 513.432 169.451 513.432 170.866C513.432 172.254 512.951 173.442 511.99 174.43C511.029 175.391 509.841 175.871 508.427 175.871ZM508.427 144.48C507.039 144.48 505.851 144 504.863 143.039C503.902 142.051 503.422 140.864 503.422 139.476C503.422 138.061 503.902 136.873 504.863 135.912C505.851 134.951 507.039 134.471 508.427 134.471C509.841 134.471 511.029 134.951 511.99 135.912C512.951 136.873 513.432 138.061 513.432 139.476C513.432 140.864 512.951 142.051 511.99 143.039C511.029 144 509.841 144.48 508.427 144.48ZM520.839 185V178.954L542.06 159.575C544.595 157.253 546.651 155.211 548.226 153.449C549.827 151.688 551.002 149.966 551.749 148.284C552.496 146.603 552.87 144.747 552.87 142.719C552.87 140.263 552.376 138.141 551.389 136.353C550.401 134.564 549 133.189 547.185 132.229C545.369 131.268 543.194 130.787 540.658 130.787C537.936 130.787 535.613 131.361 533.691 132.509C531.796 133.63 530.341 135.231 529.327 137.313C528.313 139.369 527.806 141.811 527.806 144.641H521.079C521.079 140.663 521.88 137.153 523.481 134.11C525.11 131.067 527.392 128.692 530.328 126.983C533.264 125.248 536.694 124.381 540.618 124.381C544.355 124.381 547.652 125.155 550.508 126.703C553.364 128.225 555.606 130.347 557.234 133.069C558.863 135.765 559.677 138.888 559.677 142.438C559.677 145.001 559.21 147.417 558.275 149.686C557.341 151.928 555.913 154.183 553.991 156.452C552.096 158.721 549.68 161.19 546.744 163.859L530.608 178.514V178.594H560.037V185H520.839ZM585.902 185.961C582.459 185.961 579.403 185.307 576.733 183.999C574.064 182.664 571.902 180.809 570.247 178.434C568.619 176.031 567.618 173.255 567.244 170.105H574.291C574.852 172.988 576.093 175.284 578.015 176.992C579.937 178.701 582.406 179.555 585.422 179.555C588.865 179.555 591.708 178.567 593.95 176.592C596.219 174.617 597.914 171.894 599.035 168.424C600.156 164.954 600.717 161.003 600.717 156.572H600.637C599.729 158.094 598.515 159.402 596.993 160.496C595.498 161.59 593.79 162.431 591.868 163.019C589.973 163.579 587.958 163.859 585.822 163.859C582.245 163.859 579.042 163.019 576.213 161.337C573.383 159.629 571.155 157.293 569.526 154.33C567.898 151.367 567.084 148.004 567.084 144.24C567.084 140.316 567.925 136.86 569.606 133.87C571.315 130.881 573.664 128.558 576.653 126.903C579.67 125.222 583.126 124.381 587.023 124.381C590.333 124.381 593.27 125.008 595.832 126.263C598.395 127.517 600.557 129.359 602.318 131.788C604.107 134.19 605.455 137.14 606.362 140.637C607.297 144.133 607.764 148.137 607.764 152.648C607.764 157.667 607.323 162.218 606.442 166.302C605.562 170.386 604.227 173.896 602.438 176.832C600.65 179.768 598.381 182.024 595.632 183.599C592.882 185.174 589.639 185.961 585.902 185.961ZM586.783 157.453C588.598 157.453 590.293 157.119 591.868 156.452C593.47 155.758 594.871 154.811 596.072 153.609C597.273 152.382 598.208 150.967 598.875 149.365C599.569 147.764 599.916 146.029 599.916 144.16C599.916 141.651 599.329 139.396 598.154 137.394C597.007 135.365 595.458 133.763 593.51 132.589C591.561 131.388 589.399 130.787 587.023 130.787C584.621 130.787 582.432 131.388 580.457 132.589C578.508 133.763 576.947 135.365 575.772 137.394C574.625 139.422 574.051 141.704 574.051 144.24C574.051 146.749 574.611 149.005 575.732 151.007C576.854 152.982 578.375 154.557 580.297 155.731C582.245 156.879 584.408 157.453 586.783 157.453Z" fill="white"/>
<path d="M711.938 175.867L710.3 174.217C708.216 172.119 704.838 172.119 702.755 174.217C700.671 176.315 700.671 179.716 702.755 181.814L707.023 186.112C707.117 186.207 707.215 186.298 707.314 186.385C707.527 186.729 707.781 187.054 708.077 187.352C710.161 189.45 713.539 189.45 715.622 187.352L768.437 134.171C770.521 132.073 770.521 128.671 768.437 126.573C766.354 124.476 762.976 124.476 760.892 126.573L711.938 175.867Z" fill="white"/>
<path d="M672.661 187.459C672.873 187.803 673.128 188.128 673.424 188.427C675.508 190.524 678.886 190.524 680.969 188.427L733.784 135.245C735.868 133.147 735.868 129.746 733.784 127.648C731.701 125.55 728.323 125.55 726.239 127.648L677.285 176.941L659.108 158.638C657.024 156.54 653.646 156.54 651.563 158.638C649.479 160.736 649.479 164.137 651.563 166.235L672.37 187.186C672.464 187.282 672.561 187.373 672.661 187.459Z" fill="white"/>
<path d="M150.299 78.2578L125.455 170.594H115.569L140.413 78.2578H150.299ZM176.153 160.294C171.978 160.294 168.217 159.621 164.87 158.275C161.523 156.93 158.831 154.928 156.795 152.271C154.76 149.615 153.604 146.319 153.328 142.386H164.093C164.404 145.319 165.56 147.596 167.561 149.218C169.597 150.805 172.392 151.599 175.946 151.599C179.431 151.599 182.174 150.891 184.175 149.477C186.177 148.062 187.177 146.268 187.177 144.094C187.177 142.23 186.453 140.747 185.003 139.643C183.589 138.504 181.691 137.676 179.31 137.158L170.252 135.14C165.111 134.001 161.212 132.12 158.555 129.498C155.898 126.876 154.57 123.546 154.57 119.509C154.57 116.265 155.433 113.419 157.158 110.969C158.918 108.519 161.367 106.604 164.507 105.224C167.647 103.843 171.305 103.153 175.48 103.153C179.586 103.153 183.226 103.878 186.401 105.327C189.61 106.776 192.129 108.829 193.958 111.486C195.821 114.143 196.804 117.318 196.908 121.01H186.453C186.418 118.353 185.418 116.162 183.451 114.437C181.484 112.677 178.879 111.797 175.635 111.797C172.53 111.797 170.063 112.521 168.234 113.971C166.405 115.42 165.491 117.197 165.491 119.302C165.491 121.165 166.181 122.666 167.561 123.805C168.976 124.943 170.908 125.789 173.358 126.341L182.674 128.411C188.023 129.584 191.939 131.396 194.423 133.846C196.942 136.296 198.202 139.505 198.202 143.473C198.202 146.958 197.236 149.96 195.303 152.479C193.405 154.963 190.8 156.895 187.488 158.275C184.175 159.621 180.397 160.294 176.153 160.294ZM234.2 104.344V113.35H202.525V104.344H234.2ZM212.151 89.4375H223.072V144.56C223.072 146.561 223.486 147.976 224.315 148.804C225.177 149.597 226.695 149.994 228.869 149.994C229.697 149.994 230.612 149.994 231.612 149.994C232.613 149.994 233.476 149.994 234.2 149.994V159C233.303 159 232.216 159 230.94 159C229.697 159 228.49 159 227.317 159C222.175 159 218.362 157.93 215.878 155.791C213.394 153.617 212.151 150.339 212.151 145.957V89.4375ZM259.796 159.88C256.173 159.88 252.929 159.259 250.065 158.017C247.236 156.774 244.993 154.928 243.337 152.479C241.68 150.029 240.852 146.992 240.852 143.369C240.852 140.264 241.439 137.71 242.612 135.709C243.82 133.708 245.441 132.12 247.477 130.947C249.513 129.774 251.825 128.894 254.413 128.308C257.001 127.687 259.675 127.221 262.435 126.91C265.886 126.462 268.594 126.117 270.561 125.875C272.563 125.599 273.977 125.185 274.805 124.633C275.668 124.046 276.099 123.097 276.099 121.786V121.32C276.099 119.561 275.668 118.008 274.805 116.662C273.943 115.282 272.683 114.195 271.027 113.401C269.371 112.608 267.387 112.211 265.075 112.211C262.763 112.211 260.71 112.59 258.916 113.35C257.156 114.109 255.741 115.161 254.672 116.507C253.636 117.818 253.05 119.319 252.912 121.01H242.198C242.37 117.525 243.423 114.454 245.355 111.797C247.287 109.14 249.944 107.052 253.326 105.534C256.707 104.016 260.675 103.257 265.23 103.257C268.577 103.257 271.596 103.688 274.288 104.551C276.979 105.413 279.257 106.656 281.12 108.277C283.018 109.865 284.45 111.78 285.416 114.022C286.416 116.265 286.917 118.767 286.917 121.527V159H276.151V151.236H275.944C275.185 152.72 274.15 154.118 272.839 155.429C271.527 156.74 269.802 157.81 267.663 158.638C265.558 159.466 262.936 159.88 259.796 159.88ZM262.021 151.081C265.23 151.081 267.87 150.512 269.94 149.373C272.045 148.2 273.598 146.664 274.598 144.767C275.633 142.869 276.151 140.799 276.151 138.556V132.138C275.771 132.448 275.15 132.742 274.288 133.018C273.46 133.259 272.442 133.501 271.234 133.742C270.026 133.949 268.715 134.174 267.3 134.415C265.886 134.657 264.471 134.864 263.056 135.036C261.055 135.312 259.192 135.778 257.466 136.434C255.741 137.055 254.344 137.935 253.274 139.073C252.239 140.212 251.721 141.713 251.721 143.576C251.721 145.129 252.135 146.475 252.964 147.613C253.792 148.717 254.982 149.58 256.535 150.201C258.088 150.788 259.916 151.081 262.021 151.081ZM298.175 159V104.344H308.63V113.194H308.837C309.838 110.192 311.408 107.863 313.547 106.207C315.721 104.516 318.55 103.671 322.035 103.671C322.864 103.671 323.623 103.705 324.313 103.774C325.037 103.809 325.607 103.861 326.021 103.93V114.126C325.607 114.022 324.865 113.919 323.795 113.815C322.725 113.677 321.552 113.608 320.276 113.608C318.24 113.608 316.359 114.074 314.634 115.006C312.943 115.938 311.598 117.369 310.597 119.302C309.596 121.234 309.096 123.701 309.096 126.703V159H298.175ZM361.243 104.344V113.35H329.567V104.344H361.243ZM339.194 89.4375H350.115V144.56C350.115 146.561 350.529 147.976 351.357 148.804C352.22 149.597 353.738 149.994 355.912 149.994C356.74 149.994 357.654 149.994 358.655 149.994C359.656 149.994 360.518 149.994 361.243 149.994V159C360.346 159 359.259 159 357.982 159C356.74 159 355.532 159 354.359 159C349.218 159 345.405 157.93 342.921 155.791C340.436 153.617 339.194 150.339 339.194 145.957V89.4375Z" fill="white"/>
</svg>
