<svg width="838" height="177" viewBox="0 0 838 177" fill="none" xmlns="http://www.w3.org/2000/svg">
<path d="M110.714 128.343C111.813 127.623 113.335 128.085 113.786 129.277L130.877 174.422C131.427 175.874 130.042 177.318 128.463 176.939L65.5354 161.842C63.8428 161.436 63.4417 159.332 64.8773 158.391L110.714 128.343Z" fill="#A5A5A5"/>
<path d="M121.864 118.351C121.786 118.142 121.746 117.921 121.746 117.698V71.9813C121.746 70.6884 120.448 69.7588 119.153 70.1253L65.5927 85.2875C64.2984 85.654 63 84.7245 63 83.4315V53.8858C63 53.2819 63.2942 52.7126 63.7959 52.3466L133.592 1.39631C134.562 0.688192 135.961 0.958576 136.568 1.97163L178.732 72.2804C179.03 72.7786 179.083 73.3781 178.874 73.9167L143.376 165.737C142.721 167.431 140.216 167.418 139.58 165.717L121.864 118.351Z" fill="#D3D3D3"/>
<path d="M45.2216 5.60101C45.5579 5.28399 45.9997 5.09025 46.4693 5.05341L110.813 0.00722323C112.822 -0.150403 113.803 2.31171 112.198 3.48575L57.3555 43.6039C56.8478 43.9752 56.1875 44.0939 55.5745 43.9241L19.4601 33.9137C17.9747 33.502 17.5026 31.7028 18.6072 30.6627L45.2216 5.60101Z" fill="#B7B7B7"/>
<path d="M8.98535 43.6949C9.13982 42.5153 10.3622 41.7468 11.5587 42.0769L49.9897 52.682C50.8567 52.921 51.4531 53.6783 51.4531 54.5397V97.477C51.4531 98.7694 52.7566 99.6982 54.0552 99.3311L107.398 84.2481C108.697 83.881 110 84.8098 110 86.1022V113.375C110 114.008 109.675 114.602 109.13 114.963L49.2991 154.654C48.5187 155.172 47.4663 155.102 46.7682 154.487L0.651788 113.852C0.171462 113.429 -0.0654116 112.81 0.0156631 112.192L8.98535 43.6949Z" fill="#B1B1B1"/>
<path d="M314.955 144C306.447 144 298.302 142.818 290.521 140.454C282.739 137.988 276.565 134.853 272 131.05L279.003 115.479C283.361 118.871 288.757 121.697 295.19 123.958C301.623 126.22 308.211 127.35 314.955 127.35C320.662 127.35 325.279 126.733 328.807 125.5C332.335 124.267 334.928 122.622 336.589 120.567C338.249 118.408 339.079 115.993 339.079 113.321C339.079 110.032 337.886 107.411 335.499 105.458C333.113 103.403 330 101.81 326.161 100.679C322.426 99.4458 318.224 98.3152 313.554 97.2873C308.989 96.2598 304.372 95.0776 299.703 93.7415C295.138 92.3028 290.936 90.5043 287.097 88.3459C283.361 86.0848 280.3 83.1041 277.914 79.404C275.528 75.7043 274.334 70.9763 274.334 65.2207C274.334 59.3626 275.891 54.0179 279.003 49.1877C282.22 44.2541 287.045 40.3486 293.478 37.4708C300.014 34.4903 308.263 33 318.224 33C324.761 33 331.245 33.8222 337.678 35.4667C344.111 37.1111 349.714 39.475 354.487 42.5583L348.105 58.1291C343.229 55.2514 338.197 53.1446 333.009 51.8081C327.821 50.3695 322.841 49.6501 318.068 49.6501C312.465 49.6501 307.9 50.3182 304.372 51.6543C300.948 52.9903 298.406 54.7376 296.746 56.896C295.19 59.054 294.411 61.5206 294.411 64.2958C294.411 67.5848 295.553 70.2569 297.835 72.3124C300.222 74.2652 303.283 75.8069 307.018 76.9374C310.857 78.0679 315.111 79.1988 319.78 80.3293C324.449 81.3568 329.066 82.539 333.631 83.8751C338.3 85.2112 342.503 86.9585 346.238 89.1165C350.077 91.2749 353.138 94.2044 355.42 97.9041C357.807 101.604 359 106.28 359 111.933C359 117.689 357.392 123.033 354.176 127.967C351.063 132.797 346.238 136.703 339.701 139.683C333.164 142.561 324.916 144 314.955 144Z" fill="#B7B7B7"/>
<path d="M398.933 142V50.9714H363V34H455V50.9714H419.067V142H398.933Z" fill="#B7B7B7"/>
<path d="M519.154 144C510.745 144 503.002 142.613 495.925 139.837C488.848 137.063 482.694 133.208 477.461 128.275C472.233 123.239 468.178 117.38 465.306 110.7C462.438 103.917 461 96.5167 461 88.5001C461 80.4832 462.438 73.1347 465.306 66.4542C468.178 59.6708 472.233 53.8127 477.461 48.8791C482.694 43.8429 488.848 39.9375 495.925 37.1625C503.002 34.3875 510.692 33 519 33C527.409 33 535.104 34.3875 542.079 37.1625C549.156 39.9375 555.306 43.8429 560.539 48.8791C565.767 53.8127 569.822 59.6708 572.694 66.4542C575.566 73.1347 577 80.4832 577 88.5001C577 96.5167 575.566 103.917 572.694 110.7C569.822 117.483 565.767 123.341 560.539 128.275C555.306 133.208 549.156 137.063 542.079 139.837C535.104 142.613 527.462 144 519.154 144ZM519 126.425C524.436 126.425 529.461 125.5 534.076 123.65C538.691 121.8 542.692 119.179 546.076 115.787C549.46 112.293 552.077 108.285 553.921 103.763C555.871 99.1376 556.846 94.0501 556.846 88.5001C556.846 82.9502 555.871 77.914 553.921 73.3916C552.077 68.7666 549.46 64.7583 546.076 61.3668C542.692 57.8722 538.691 55.2001 534.076 53.3498C529.461 51.5 524.436 50.575 519 50.575C513.564 50.575 508.539 51.5 503.924 53.3498C499.411 55.2001 495.409 57.8722 491.924 61.3668C488.54 64.7583 485.87 68.7666 483.925 73.3916C482.076 77.914 481.154 82.9502 481.154 88.5001C481.154 93.9471 482.076 98.9833 483.925 103.608C485.87 108.233 488.54 112.293 491.924 115.787C495.308 119.179 499.309 121.8 503.924 123.65C508.539 125.5 513.564 126.425 519 126.425Z" fill="#B7B7B7"/>
<path d="M598 142V34H614.514L682.271 117.16H674.091V34H694V142H677.486L609.729 58.8401H617.913V142H598Z" fill="#B7B7B7"/>
<path d="M727.5 143C724.046 143 721.095 141.846 718.655 139.536C716.22 137.127 715 134.115 715 130.5C715 126.685 716.22 123.673 718.655 121.464C721.095 119.154 724.046 118 727.5 118C730.954 118 733.901 119.154 736.341 121.464C738.78 123.673 740 126.685 740 130.5C740 134.115 738.78 137.127 736.341 139.536C733.901 141.846 730.954 143 727.5 143Z" fill="#B7B7B7"/>
<path d="M760.644 142V55.0621C760.644 46.43 763.174 39.5449 768.237 34.4067C773.408 29.1658 780.743 26.5454 790.253 26.5454C793.663 26.5454 796.868 26.905 799.864 27.6244C802.963 28.3437 805.546 29.4741 807.613 31.0155L802.345 45.5052C800.896 44.3749 799.242 43.5526 797.384 43.039C795.521 42.4223 793.609 42.114 791.649 42.114C787.616 42.114 784.567 43.2445 782.499 45.5052C780.432 47.6633 779.401 50.9518 779.401 55.3706V64.6194L780.019 73.2515V142H760.644ZM747 75.7177V60.3031H802.19V75.7177H747ZM815.829 142V59.6865H835.208V142H815.829ZM825.596 46.1219C821.978 46.1219 818.981 44.9915 816.607 42.7304C814.331 40.4698 813.193 37.7466 813.193 34.5609C813.193 31.2725 814.331 28.5492 816.607 26.3912C818.981 24.1304 821.978 23 825.596 23C829.215 23 832.158 24.079 834.435 26.2371C836.809 28.2923 838 30.9128 838 34.0985C838 37.4896 836.862 40.367 834.59 42.7304C832.314 44.9915 829.318 46.1219 825.596 46.1219Z" fill="#B7B7B7"/>
</svg>
