<svg width="917" height="1057" viewBox="0 0 917 1057" fill="none" xmlns="http://www.w3.org/2000/svg">
<mask id="mask0_119_1137" style="mask-type:luminance" maskUnits="userSpaceOnUse" x="0" y="0" width="917" height="1057">
<path d="M917 0H0V1056.01H917V0Z" fill="white"/>
</mask>
<g mask="url(#mask0_119_1137)">
<path d="M889.563 927.364C886.514 916.39 866.846 878.852 852.798 851.017C848.908 843.335 840.396 833.08 838.567 830.641C837.347 828.812 836.737 826.983 833.689 822.715C831.25 818.447 830.777 818.17 826.584 813.889C822.392 809.608 817.33 806.276 811.74 804.118C790.01 795.436 768.293 786.668 746.197 778.974C698.64 762.414 650.875 746.513 603.208 730.295C601.751 729.794 600.431 728.959 599.355 727.856C589.865 717.673 579.225 708.626 567.65 700.895C564.333 698.688 560.907 696.627 557.517 694.481C562.395 685.945 567.187 677.543 571.845 669.092C572.188 668.299 572.79 667.646 573.552 667.239C574.3 666.844 575.159 666.71 575.991 666.861C588.594 667.876 601.271 667.504 613.793 665.751C629.304 663.422 643.815 658.544 656.399 648.887C670.752 637.912 679.397 623.035 684.848 606.061C693.616 578.77 705.42 552.687 716.955 526.518C729.93 497.07 742.563 467.523 751.379 436.465C758.196 412.296 760.074 388.09 754.099 363.519C753.745 362.044 753.599 360.52 753.318 358.751H753.623C753.329 358.337 753.061 357.905 752.818 357.459C752.733 357.3 752.635 357.142 752.538 356.983C752.44 356.825 752.355 356.532 752.257 356.313C746.502 356.313 740.746 356.447 735.051 356.788C735.026 356.9 734.994 357.01 734.954 357.117C735.191 357.916 735.366 358.731 735.478 359.556H735.734C741.027 378.677 742.673 398.041 738.381 417.783C733.43 440.586 725.808 462.511 716.833 483.949C706.151 509.447 694.701 534.628 684.068 560.15C678.105 574.49 672.886 589.209 667.776 603.842C658.862 629.449 640.949 644.082 614.439 648.631C600.038 651.069 585.588 650.74 571.113 649.618L570.248 649.423L570.101 649.509L569.943 649.423C564.358 648.484 558.675 647.911 553.188 646.533C501.657 633.81 454.846 606.602 418.284 568.125C417.596 567.506 416.862 566.939 416.089 566.43C422.186 575.563 427.686 585.209 434.563 593.745C457.379 622.011 487.059 640.302 521.276 651.655C526.775 653.472 532.373 655.02 537.958 656.606C545.469 658.752 549.054 664.41 548.396 672.238C547.886 676.635 546.331 680.846 543.859 684.518C540.201 690.505 536.933 696.712 536.055 703.773C535.641 707.089 535.616 710.443 535.421 713.784C536.055 718.259 536.397 722.795 537.397 727.197C539.433 736.209 536.08 743.672 531.08 750.647C523.385 761.353 513.179 769.426 502.655 777.12C494.12 783.376 485.157 789.107 474.609 791.753C459 795.655 443.697 794.009 428.674 789.022C396.152 778.23 366.41 761.939 338.742 741.94C321.036 729.136 303.61 715.686 286.77 701.956C269.93 688.225 260.419 669.861 258.285 648.301C256.053 625.864 252.395 603.805 245.444 582.368C239.347 563.552 232.921 544.846 226.482 526.153C217.142 498.74 208.521 471.194 202.509 442.818C197.354 418.654 193.996 394.142 192.461 369.482C191.278 350.392 191.388 331.245 192.79 312.17C195.048 281.306 201.151 250.845 210.959 221.494C219.312 196.679 229.738 172.815 243.798 150.683C266.15 115.49 295.855 87.9316 331.779 66.9698C364.772 47.6898 401.285 35.1943 439.173 30.2167C445.501 29.3631 451.891 28.9363 458.244 28.3144C471.658 28.1924 485.072 27.4974 498.375 28.1924C525.748 29.6437 552.757 35.1293 578.527 44.4716C638.535 66.1406 682.787 105.333 710.834 162.755C720.96 183.24 728.501 204.904 733.283 227.25L735.576 238.566C736.356 248.943 737.21 259.296 737.832 269.734C737.83 272.123 737.675 274.51 737.368 276.88L737.355 277.027C737.965 277.637 737.965 277.637 740.404 277.551C745.464 277.794 746.294 277.783 751.378 277.637C751.65 277.629 754.154 278.026 754.477 277.551C754.586 277.051 754.477 277.551 754.647 276.732L754.733 275.941C754.662 275.457 754.633 274.967 754.647 274.478C755.696 255.808 753.087 237.517 748.904 219.409C741.963 189.325 730.334 160.52 714.443 134.05C693.147 97.9702 662.667 68.1805 626.109 47.7153C592.636 28.8631 556.651 17.803 518.618 13.0717C487.671 9.144 456.311 9.86327 425.576 15.2057C391.455 21.0352 358.577 32.6352 328.352 49.5078C274.808 79.4932 235.165 122.173 209.825 178.266C188.202 226.037 176.353 277.651 174.974 330.071C173.609 375.372 179.242 419.893 190.022 463.853C197.229 493.241 207.24 521.726 217.154 550.248C224.873 572.466 232.665 594.635 237.238 617.804C238.36 623.462 239.152 629.181 240.116 634.985C238.677 635.229 237.677 635.424 236.762 635.571C222.317 637.576 208.177 641.369 194.668 646.862C175.035 654.862 160.049 667.349 153.525 688.323C153.329 688.781 153.043 689.196 152.684 689.542C152.335 689.898 151.921 690.184 151.464 690.383C145.087 692.688 138.782 695.371 132.222 696.956C101.736 704.272 71.0925 711.272 40.5218 718.393L14.9141 724.393L36.1919 730.649C63.019 730.649 73.1777 727.295 98.1147 721.186C111.053 717.991 124.052 715.089 137.026 712.004L155.317 706.016C155.695 709.516 156.098 712.869 156.537 716.223C157.976 727.307 159.22 738.416 160.915 749.464C163.024 763.414 165.463 777.328 167.902 791.241C169.938 802.777 172.121 814.41 174.316 825.946C176.576 838.002 178.925 850.033 181.364 862.04C184.852 879.344 195.009 891.306 211.276 897.72C238.701 908.585 266.26 919.121 293.758 929.803C294.562 930.12 295.318 930.547 296.599 931.169C294.66 933.754 292.941 936.193 291.136 938.632L261.87 977.482C261.426 978.13 251.568 987.642 251.199 988.335L270.929 978.8C274.978 976.751 276.807 976.141 282.904 971.263C294.928 955.403 304.301 943.867 316.341 928.023C316.756 927.486 317.073 926.877 317.67 925.938C313.39 924.133 309.269 922.377 305.147 920.658C274.345 907.756 243.538 894.92 212.727 882.148C202.899 878.088 198.46 870.125 196.253 860.565C192.705 845.237 189.303 829.872 186.193 814.447C181.559 791.278 176.986 768.109 172.779 744.94C170.341 731.526 168.731 717.906 166.682 704.407C165.78 698.505 168.194 693.432 170.219 688.176C175.316 675.128 185.754 667.775 197.948 662.3C211.133 656.544 225.047 652.629 239.299 650.667C240.969 650.423 241.457 650.826 241.859 652.46C242.664 655.508 242.652 657.703 239.42 659.776C237.579 660.934 236.25 662.752 235.704 664.857C235.158 666.963 235.436 669.197 236.482 671.104C238.849 675.827 241.821 680.221 245.322 684.177C263.492 705.15 282.027 725.82 300.196 746.818C316.024 765.158 331.657 783.677 347.095 802.374C361.252 819.446 375.446 836.445 388.933 854.004C409.443 880.71 429.405 907.817 449.465 934.852C454.745 941.961 458.732 949.838 458.403 959.033C458.074 968.227 453.623 975.531 447.355 981.47C438.331 990.006 428.661 997.712 419.113 1005.65C409.565 1013.59 399.798 1021.26 391.713 1030.77C391.346 1031.08 382.337 1046.29 381.896 1046.48L406.639 1035.86C418.794 1023.43 432.019 1012.1 446.16 1001.99C452.539 997.505 458.155 992.021 462.793 985.75C472.78 971.788 473.011 956.728 467.292 941.302C463.915 932.193 459.683 923.413 455.671 914.085C460.305 912.719 465.305 910.975 470.414 909.756C482.819 906.55 495.563 904.839 508.374 904.659C509.923 904.659 511.143 904.659 511.874 906.5C518.508 922.718 525.19 938.912 528.848 956.167C535.921 989.091 535.225 1007.05 501.485 1038.55C497.266 1042.49 485.253 1045.84 480.668 1049.4C486.534 1049.92 498.96 1048.92 505.057 1047.7C506.08 1047.6 509.859 1046.02 510.544 1045.26C514.202 1042.82 518.898 1037.95 524.105 1032.05C530.714 1024.56 536.592 1016.55 540.067 1007.05C545.835 991.201 544.945 975.068 542.506 958.886C539.409 938.424 532.97 918.926 525.239 899.793C524.618 897.984 524.422 896.057 524.666 894.16C525.519 885.356 526.568 876.564 527.544 867.759C527.702 866.357 527.824 864.821 528.019 862.699C536.766 874.138 544.587 886.257 551.408 898.94C551.752 899.757 551.915 900.639 551.883 901.525C552.038 905.199 552.119 908.858 552.127 912.5C552.436 936.807 552.708 961.154 552.944 985.543C553.139 1007.71 553.045 1030.41 553.224 1052.57L558.101 1045.87L561.76 1037.33C562.369 1034.89 562.775 1033.43 563.589 1029.41C564.821 1023.31 564.711 1022.81 564.821 1015.02C564.968 1003.2 565.199 991.384 565.382 979.568C565.589 966.276 565.846 952.972 565.967 939.68C566.175 919.182 566.406 898.684 566.406 878.185C566.406 866.064 566.126 853.956 565.821 841.835C565.528 831.811 565.297 821.763 564.602 811.764C563.382 795.009 562.297 778.23 560.383 761.548C558.822 747.964 557.944 734.343 554.066 721.137C553.076 717.429 552.471 713.629 552.261 709.796C562.693 715.39 572.256 722.472 580.649 730.819C599.257 750.903 618.097 770.755 636.389 791.144C648.583 804.703 659.887 818.971 671.422 833.067C673.45 835.73 675.092 838.665 676.3 841.786C678.483 846.932 678.276 851.675 674.105 856.224C666.264 864.76 658.814 873.698 651.18 882.466C650.351 883.417 649.473 884.319 648.376 885.538C651.57 887.855 654.631 889.953 657.545 892.221C664.374 897.55 671.3 902.769 677.885 908.378C687.458 916.548 689.982 928.791 684.129 941.51C675.999 959.028 667.569 976.389 658.838 993.591C650.388 1010.17 641.364 1026.51 632.608 1042.89C632.206 1043.77 628.535 1050.12 628.218 1051.04L648.376 1036.72C653.216 1030.63 653.851 1029.47 657.302 1022.61C664.435 1008.46 671.691 994.347 678.654 980.104C683.686 969.845 688.478 959.496 693.03 949.058C696.579 940.912 699.018 932.437 699.018 923.45C699.018 912.951 694.335 905.037 686.043 898.94C679.788 894.33 673.678 889.514 667.508 884.795C666.992 884.451 666.459 884.133 665.911 883.843L676.885 870.43C679.678 866.991 682.568 863.638 685.226 860.089C691.531 851.675 691.323 841.981 685.348 833.079C679.316 824.106 672.726 815.521 665.618 807.374C649.156 788.656 632.291 770.34 615.622 751.854C615.398 751.466 615.21 751.057 615.061 750.635L652.863 763.743C663.838 767.402 674.959 770.999 685.933 774.718C703.859 780.73 721.833 786.559 739.588 793.009C761.318 800.911 782.901 809.215 804.436 817.617C814.289 821.458 820.701 831.8 821.495 833.08C821.648 833.532 822.714 835.519 823.934 837.958C825.153 839.787 825.763 840.396 827.592 842.835C829.421 844.664 834.655 848.919 837.251 854.614C841.872 864.077 846.701 873.442 851.237 882.953C859.615 900.489 867.858 918.207 876.15 935.852C880.417 948.094 888.685 984.287 890.392 987.946C892.221 970.874 891.611 957.46 891.611 945.876C891.611 935.852 890.307 928.84 889.563 927.364ZM328.023 755.732L328.133 755.39C329.255 756.012 330.413 756.61 331.523 757.366C354.948 773.621 379.482 787.851 405.992 798.509C413.346 801.569 420.866 804.215 428.515 806.435C436.161 808.545 444.075 809.654 451.769 811.179C434.028 820.945 417.683 833.057 403.176 847.188L328.023 755.732ZM509.826 892.306C509.46 894.111 508.606 894.513 507.021 894.513C487.1 894.977 467.4 898.79 448.745 905.793C448.672 905.793 448.562 905.793 448.221 905.793C442.538 898.355 436.758 890.806 430.966 883.307L413.894 861.357C413.065 860.297 412.382 859.467 413.455 858.041C422.955 845.395 434.039 834.725 449.209 829.092C466.219 822.775 482.34 825.373 497.571 834.494C502.191 837.472 506.626 840.73 510.85 844.249C511.762 844.956 512.369 845.986 512.545 847.127C513.252 862.248 512.764 877.368 509.813 892.355L509.826 892.306ZM471.06 809.971C501.826 803.728 523.959 783.912 544.945 761.402L550.932 873.186C530.885 843.261 507.07 818.69 471.06 809.971Z" fill="black"/>
</g>
<path d="M263.391 335.95V385.946H279.853V348.753L429.841 299.977H445.083V324.975H458.497V348.753H471.911V360.948H484.105V374.361H582.877V360.948H595.681V348.753H607.875V335.95H620.069V321.926H632.264V297.538H662.139V315.22H673.114V335.95H684.089V346.315H693.234V357.899H776.154V346.315H787.129V335.95H796.885V324.975H807.859V315.22H817.005V293.88H827.37V274.369L679.821 276.808V285.344H666.407V276.808L427.402 281.076L263.391 335.95Z" fill="black" stroke="#00AAFF" stroke-opacity="0.32" stroke-width="2" stroke-linejoin="round"/>
<rect x="570.688" y="299.98" width="12.1941" height="12.1941" fill="#07ACFF"/>
<rect x="582.883" y="312.174" width="12.1941" height="12.1941" fill="#07ACFF"/>
<rect x="595.074" y="299.98" width="12.1941" height="12.1941" fill="#07ACFF"/>
<rect x="570.688" y="324.367" width="12.1941" height="12.1941" fill="#07ACFF"/>
<rect x="558.496" y="336.562" width="12.1941" height="12.1941" fill="#07ACFF"/>
<rect x="534.105" y="336.562" width="12.1941" height="12.1941" fill="#07ACFF"/>
<rect x="546.301" y="324.367" width="12.1941" height="12.1941" fill="#07ACFF"/>
<rect x="558.496" y="312.174" width="12.1941" height="12.1941" fill="#07ACFF"/>
<rect x="756.039" y="304.857" width="10.9747" height="10.9747" fill="#07ACFF"/>
<rect x="746.285" y="315.832" width="9.75532" height="9.75532" fill="#07ACFF"/>
<rect x="736.531" y="325.588" width="9.75532" height="9.75532" fill="#07ACFF"/>
<rect x="767.012" y="293.883" width="10.9747" height="10.9747" fill="#07ACFF"/>
<rect x="787.746" y="293.883" width="10.9747" height="10.9747" fill="#07ACFF"/>
<rect x="767.012" y="315.832" width="10.9747" height="10.9747" fill="#07ACFF"/>
<rect x="757.258" y="326.807" width="9.75532" height="9.75532" fill="#07ACFF"/>
<rect x="777.992" y="304.857" width="9.75532" height="10.9747" fill="#07ACFF"/>
</svg>
