<svg width="723" height="831" viewBox="0 0 723 831" fill="none" xmlns="http://www.w3.org/2000/svg">
<path d="M617.05 286.199H605.85C606.08 287.649 606.2 288.899 606.49 290.109C611.39 310.259 609.85 330.109 604.26 349.929C597.06 375.399 586.67 399.629 576.03 423.779C566.57 445.239 556.89 466.629 549.7 489.009C545.23 502.929 538.14 515.089 526.37 524.129C516.05 532.049 504.15 536.049 491.43 537.959C481.161 539.395 470.765 539.7 460.43 538.869C459.735 538.741 459.018 538.852 458.395 539.184C457.772 539.517 457.28 540.051 457 540.699C453.18 547.629 449.24 554.479 445.25 561.519C448.03 563.279 450.84 564.969 453.56 566.779C463.054 573.117 471.779 580.536 479.56 588.889C480.442 589.794 481.524 590.479 482.72 590.889C521.81 604.189 560.99 617.229 599.98 630.809C618.1 637.119 635.91 644.309 653.73 651.429C658.312 653.201 662.462 655.934 665.9 659.444C669.338 662.954 671.984 667.16 673.66 671.779C673.82 672.394 674.149 672.951 674.61 673.389C680.61 677.549 684.16 683.589 687.35 689.889C698.87 712.716 710.376 735.546 721.87 758.379C722.48 759.589 722.48 760.319 721.22 761.149C717.66 763.499 714.22 765.999 710.7 768.429C709.3 765.429 707.91 762.429 706.5 759.429C699.7 744.959 692.94 730.429 686.07 716.049C682.35 708.249 678.39 700.569 674.6 692.809C672.471 688.139 668.866 684.298 664.34 681.879C663.992 681.717 663.68 681.487 663.42 681.204C663.161 680.921 662.961 680.59 662.83 680.229C661.33 671.229 655.77 665.649 647.69 662.499C630.03 655.609 612.33 648.799 594.51 642.319C579.95 637.029 565.21 632.249 550.51 627.319C541.51 624.269 532.43 621.319 523.39 618.319L492.39 607.569C492.512 607.916 492.666 608.25 492.85 608.569C506.52 623.729 520.35 638.749 533.85 654.099C539.679 660.78 545.083 667.821 550.03 675.179C554.96 682.479 555.1 690.429 549.93 697.329C547.75 700.239 545.38 702.989 543.09 705.809L534.09 716.759C534.7 717.119 535.09 717.299 535.4 717.539C540.46 721.409 545.47 725.359 550.6 729.139C557.4 734.139 561.23 740.629 561.24 749.239C561.24 756.659 559.24 763.609 556.33 770.289C552.596 778.856 548.666 787.342 544.54 795.749C538.83 807.429 532.88 818.999 527.03 830.609C524.2 836.229 521.34 841.829 518.5 847.439L505.89 849.439C506.149 848.691 506.446 847.957 506.78 847.239C513.96 833.769 521.36 820.409 528.29 806.809C535.47 792.709 542.383 778.472 549.03 764.099C553.83 753.669 551.76 743.629 543.91 736.929C538.51 732.329 532.83 728.049 527.23 723.679C524.84 721.819 522.33 720.099 519.71 718.199C520.61 717.199 521.33 716.459 522.01 715.679C528.27 708.489 534.38 701.169 540.81 694.159C544.23 690.429 544.4 686.539 542.61 682.319C541.618 679.76 540.271 677.353 538.61 675.169C529.15 663.609 519.84 651.909 509.88 640.789C494.88 624.069 479.43 607.789 464.17 591.319C457.286 584.475 449.444 578.667 440.89 574.079C441.06 577.222 441.556 580.338 442.37 583.379C445.53 594.209 446.27 605.379 447.55 616.519C449.12 630.199 450.05 643.959 451.01 657.699C451.58 665.899 451.77 674.139 452.01 682.359C452.26 692.299 452.5 702.229 452.49 712.169C452.49 728.979 452.3 745.789 452.13 762.599C452.03 773.499 451.82 784.409 451.65 795.309C451.5 804.999 451.31 814.689 451.19 824.379C451.1 830.769 451.19 837.159 451.04 843.549C450.98 847.059 450.68 850.549 450.49 853.919L443.85 854.749H441.91C441.763 836.569 441.61 818.389 441.45 800.209C441.25 780.209 441.026 760.242 440.78 740.309C440.78 737.316 440.713 734.316 440.58 731.309C440.605 730.582 440.472 729.859 440.19 729.189C434.598 718.787 428.184 708.849 421.01 699.469C420.85 701.209 420.75 702.469 420.62 703.619C419.82 710.839 418.96 718.049 418.26 725.269C418.056 726.824 418.217 728.406 418.73 729.889C425.07 745.579 430.35 761.569 432.89 778.349C434.89 791.619 435.62 804.889 430.89 817.849C428.04 825.639 423.22 832.209 417.8 838.349C413.53 843.189 409.07 847.879 404.64 852.579C404.08 853.21 403.3 853.603 402.46 853.679C397.65 853.379 392.84 852.909 388.03 852.489C391.79 849.569 395.79 846.909 399.25 843.679C418.97 825.269 427.49 803.089 421.69 776.119C418.69 761.969 413.21 748.689 407.77 735.389C407.17 733.909 406.17 733.869 404.9 733.879C394.394 734.031 383.944 735.434 373.77 738.059C369.58 739.059 365.48 740.489 361.68 741.609C364.97 749.259 368.44 756.459 371.21 763.929C375.9 776.579 375.71 788.929 367.52 800.379C363.716 805.521 359.111 810.019 353.88 813.699C342.282 821.986 331.437 831.278 321.47 841.469L308.23 837.909C308.592 837.758 308.93 837.552 309.23 837.299C315.86 829.499 323.87 823.209 331.7 816.699C339.53 810.189 347.46 803.829 354.86 796.869C360.03 792.009 363.65 785.959 363.92 778.419C364.19 770.879 360.92 764.419 356.59 758.589C340.14 736.419 323.77 714.189 306.95 692.289C295.89 677.889 284.25 663.929 272.64 649.949C259.973 634.669 247.136 619.512 234.13 604.479C219.23 587.259 204.03 570.309 189.13 553.109C186.255 549.868 183.817 546.264 181.88 542.389C181.022 540.825 180.794 538.992 181.242 537.266C181.69 535.539 182.78 534.049 184.29 533.099C186.94 531.399 186.95 529.599 186.29 527.099C185.96 525.759 185.56 525.429 184.19 525.629C172.503 527.241 161.093 530.451 150.28 535.169C140.28 539.659 131.72 545.689 127.54 556.389C125.88 560.659 123.9 564.859 124.64 569.699C126.32 580.769 127.64 591.919 129.64 602.939C133.09 621.939 136.84 640.939 140.64 659.939C143.19 672.589 145.98 685.189 148.89 697.759C150.7 705.599 154.34 712.129 162.4 715.459C187.7 725.889 212.93 736.459 238.19 747.039C241.57 748.449 244.95 749.889 248.46 751.369C247.97 752.139 247.71 752.639 247.37 753.079C237.496 766.072 227.63 779.072 217.77 792.079C215.69 794.819 213.82 797.719 211.86 800.539L201.7 795.289C202.03 794.739 202.31 794.149 202.7 793.639C210.7 783.012 218.7 772.392 226.7 761.779C228.17 759.779 229.59 757.779 231.18 755.659C230.13 755.149 229.51 754.799 228.85 754.539C206.3 745.779 183.7 737.139 161.21 728.229C147.87 722.939 139.54 713.159 136.68 698.969C134.68 689.122 132.753 679.256 130.9 669.369C129.1 659.889 127.31 650.369 125.64 640.909C123.64 629.499 121.64 618.089 119.91 606.649C118.52 597.589 117.5 588.479 116.32 579.389C115.96 576.639 115.63 573.889 115.32 571.019L100.32 575.929C89.68 578.429 79.0197 580.839 68.4097 583.459C47.9597 588.469 27.4697 593.619 7.04969 598.769L0.179688 586.089L21.1797 581.169C46.2497 575.329 71.3497 569.589 96.38 563.589C101.76 562.289 106.93 560.089 112.16 558.199C112.552 558.044 112.908 557.81 113.208 557.513C113.507 557.215 113.742 556.86 113.9 556.469C119.25 539.269 131.54 529.029 147.64 522.469C158.719 517.965 170.314 514.855 182.16 513.209C182.95 513.089 183.73 512.929 184.91 512.729C184.12 507.969 183.47 503.279 182.55 498.639C178.8 479.639 172.41 461.459 166.08 443.239C157.95 419.849 149.74 396.489 143.83 372.389C134.99 336.339 130.37 299.829 131.49 262.679C132.621 219.692 142.338 177.365 160.07 138.189C180.85 92.189 213.36 57.1889 257.27 32.5989C282.059 18.7615 309.025 9.24869 337.01 4.46889C362.211 0.0933855 387.924 -0.496514 413.3 2.71889C444.49 6.59889 473.99 15.6689 501.44 31.1289C531.419 47.9117 556.415 72.341 573.88 101.929C586.909 123.638 596.445 147.259 602.14 171.929C605.57 186.779 607.71 201.779 606.85 217.089C606.85 217.489 606.85 217.889 606.92 218.289L607.34 218.659L618.01 218.469C621.01 218.469 623.95 218.469 626.91 218.389L667.91 217.679C669.34 217.589 670.2 218.029 669.91 219.679C669.86 220.315 669.86 220.953 669.91 221.589V233.469H661.91V251.179H653.48V259.859H645.02V268.569H636.64V277.339H628.05V286.189L617.05 286.199ZM627.22 234.319H619.22V242.999H610.78V251.739H602.18V260.659H593.88V269.109H602.47V260.469H610.77V268.889H619.47V260.469H628.15V251.759L636.36 251.379V243.069H627.74L627.68 234.789L627.22 234.319ZM473.93 258.039H478.29C478.73 257.669 479.54 257.289 479.54 256.929C479.54 253.869 479.35 250.819 479.23 247.769H489.47V237.469H479.29V247.849L469.04 247.899V237.779H458.92V247.849H448.71V258.539H438.6V269.239H428.47V279.239H438.55V269.179L448.72 268.659V278.959H459.36V268.669H469.3V257.979L473.93 258.039ZM591.21 187.639L589.33 178.359C590.39 175.359 597.23 188.54 594 186.5C590.77 184.46 591.21 186.5 589.33 178.359C585.408 160.034 579.224 142.268 570.92 125.469C547.92 78.379 511.63 46.2389 462.42 28.4689C441.286 20.8077 419.137 16.3091 396.69 15.1188C385.75 14.5488 374.75 15.1189 363.78 15.2189C358.57 15.7289 353.33 16.0788 348.14 16.7788C317.07 20.864 287.128 31.1109 260.07 46.9188C230.61 64.1089 206.25 86.709 187.92 115.569C176.39 133.719 167.84 153.289 160.99 173.639C152.947 197.705 147.945 222.682 146.1 247.989C144.953 263.632 144.863 279.334 145.83 294.989C147.087 315.215 149.841 335.32 154.07 355.139C158.95 378.409 166.07 401.019 173.81 423.469C179.09 438.799 184.36 454.139 189.36 469.569C195.06 487.149 198.06 505.239 199.89 523.639C201.64 541.319 209.44 556.379 223.25 567.639C237.06 578.899 251.35 589.929 265.87 600.429C288.56 616.829 312.95 630.189 339.62 639.039C351.94 643.129 364.49 644.479 377.29 641.279C385.94 639.109 393.29 634.409 400.29 629.279C408.92 622.969 417.29 616.349 423.6 607.569C427.7 601.849 430.45 595.729 428.78 588.339C427.96 584.729 427.68 581.009 427.16 577.339C427.32 574.599 427.34 571.849 427.68 569.129C428.4 563.319 431.08 558.249 434.08 553.339C436.105 550.327 437.38 546.874 437.8 543.269C438.34 536.849 435.4 532.209 429.24 530.449C424.66 529.149 420.07 527.879 415.56 526.389C387.5 517.079 363.16 502.079 344.45 478.899C338.81 471.899 334.32 463.989 329.3 456.499C329.933 456.917 330.535 457.382 331.1 457.889C361.853 489.889 398.73 511.322 441.73 522.189C446.23 523.319 450.89 523.789 455.47 524.559L455.6 524.629L455.72 524.559L456.43 524.719C468.3 525.639 480.15 525.909 491.96 523.909C513.73 520.199 528.39 508.189 535.7 487.179C539.89 475.179 544.17 463.109 549.06 451.349C557.78 430.419 567.17 409.769 575.93 388.859C583.29 371.279 589.54 353.299 593.6 334.599C597.12 318.409 595.77 302.529 591.43 286.849H559.75V278.469H553.75L551.27 278.179C551.21 277.369 551.12 276.659 551.11 275.959C551.03 270.129 551.03 270.019 545.32 270.179C543.02 270.239 542.25 269.639 542.32 267.259C542.44 262.619 542.22 257.989 542.13 253.189H533.26V236.039H510.08V257.819H499.9V268.199H489.78V278.569H479.68V289.119H469.55V299.299L387.55 300.709V290.469H377.03V280.299H366.47V260.069H355.78V238.689C348.14 238.769 341.15 238.879 334.14 241.389C315.14 248.169 295.96 254.339 276.85 260.749C276.31 260.909 275.76 261.049 275.23 261.229L220.23 279.559C220.23 276.679 220.07 273.789 220.23 270.919C220.31 269.069 219.62 268.549 217.87 268.649C215.538 268.77 213.201 268.77 210.87 268.649C210.24 268.649 209.63 268.059 209 267.749C223.38 262.902 237.753 258.049 252.12 253.189C259.6 250.659 267.06 248.069 274.53 245.509C275.083 245.416 275.63 245.293 276.17 245.139C294.836 238.879 313.503 232.622 332.17 226.369C335.68 225.199 339.23 223.439 342.81 223.309C358.87 222.729 374.96 222.639 391.04 222.359C410.68 222.019 430.316 221.686 449.95 221.359C470.39 221.009 490.83 220.709 511.28 220.359C520.16 220.199 529.04 219.939 537.92 219.729C537.92 220.129 537.92 220.529 537.92 220.939C537.92 227.019 537.92 227.019 544.14 227.009C548.02 227.009 547.99 227.009 548.14 223.009C548.237 221.891 548.394 220.78 548.61 219.679L592.68 219.059C592.935 217.116 593.062 215.158 593.06 213.199C592.55 204.649 591.85 196.149 591.21 187.639ZM355.57 734.759C355.85 734.759 355.94 734.839 356 734.809C371.297 729.081 387.449 725.968 403.78 725.599C405.07 725.599 405.78 725.269 406.08 723.789C408.5 711.499 408.9 699.099 408.32 686.649C408.174 685.714 407.677 684.869 406.93 684.289C403.465 681.405 399.828 678.733 396.04 676.289C383.55 668.809 370.33 666.679 356.38 671.859C343.94 676.479 334.85 685.229 327.06 695.599C326.18 696.769 326.74 697.449 327.42 698.319C332.086 704.319 336.753 710.319 341.42 716.319C346.17 722.469 350.91 728.659 355.57 734.759ZM374.3 656.229C403.83 663.379 423.36 683.529 439.8 708.069L434.89 616.399C417.68 634.859 399.53 651.109 374.3 656.229ZM257.08 611.469L256.99 611.749L318.62 686.749C330.515 675.159 343.919 665.226 358.47 657.219C352.16 655.969 345.67 655.059 339.4 653.329C333.128 651.505 326.961 649.335 320.93 646.829C299.19 638.119 279.07 626.419 259.86 613.089C258.95 612.469 258 611.979 257.08 611.469ZM636.56 242.569H644.74V234.239H636.41C636.41 236.989 636.41 239.549 636.41 242.109C636.438 242.268 636.489 242.423 636.56 242.569Z" fill="#181818"/>
<path d="M208.04 268.102L209.04 267.742C209.67 268.052 210.28 268.612 210.91 268.642C213.242 268.764 215.578 268.764 217.91 268.642C219.66 268.542 220.35 269.062 220.27 270.912C220.14 273.782 220.27 276.672 220.27 279.552V309.212H206.71V306.912C206.71 294.812 206.71 282.722 206.71 270.622C206.858 269.793 207.146 268.995 207.56 268.262L208.04 268.102Z" fill="#181818"/>
<path d="M610.76 260.467H602.47V269.157H593.89V260.707H602.19V251.787H610.79L610.73 251.727C610.73 254.66 610.73 257.59 610.73 260.517L610.76 260.467Z" fill="#5B5B5B"/>
<path d="M627.73 243.027H636.35V251.337L628.14 251.717V260.467H619.47V260.517C619.47 257.587 619.47 254.658 619.47 251.728H619.41H627.71V242.938L627.73 243.027Z" fill="#5B5B5B"/>
<path d="M459.36 268.666V278.956H448.72V268.656V268.706H459.47L459.36 268.666Z" fill="#5B5B5B"/>
<path d="M469.3 257.977V268.667H459.36L459.42 268.727C459.26 265.307 459.093 261.89 458.92 258.477L458.85 258.547L469.35 258.027L469.3 257.977Z" fill="#5B5B5B"/>
<path d="M448.71 258.537V247.847H458.92L458.87 247.797C458.87 251.377 458.87 254.967 458.87 258.547L458.94 258.477H448.68L448.71 258.537Z" fill="#5B5B5B"/>
<path d="M448.72 268.657L438.55 269.177L438.6 269.247V258.537H448.71V258.477C448.71 261.887 448.71 265.297 448.71 268.707L448.72 268.657Z" fill="#5B5B5B"/>
<path d="M479.29 247.789V237.469H489.47V247.779H479.27L479.29 247.789Z" fill="#5B5B5B"/>
<path d="M458.92 247.851V237.781H469.04V247.851L469.11 247.801H458.87L458.92 247.851Z" fill="#5B5B5B"/>
<path d="M469.3 257.977V258.027L469.06 247.797L468.99 247.847L479.24 247.797L479.18 247.727C479.3 250.777 479.47 253.827 479.49 256.887C479.49 257.247 478.68 257.627 478.24 257.997H473.88L469.3 257.977Z" fill="#5B5B5B"/>
<path d="M438.55 269.18V279.26H428.47V269.26H438.6L438.55 269.18Z" fill="#5B5B5B"/>
<path d="M610.781 251.74V243H619.22C619.307 245.927 619.39 248.857 619.47 251.79H619.531H610.73L610.781 251.74Z" fill="#5B5B5B"/>
<path d="M619.21 242.95V234.32H627.21L627.66 234.75L627.72 243.03V242.95H619.21Z" fill="#5B5B5B"/>
<path d="M619.469 260.469V268.879H610.77V260.469V260.519H619.469V260.469Z" fill="#5B5B5B"/>
<path d="M636.56 242.572C636.489 242.427 636.439 242.272 636.41 242.112C636.41 239.552 636.41 236.992 636.41 234.242H644.74V242.572H636.56Z" fill="#5B5B5B"/>
<path d="M208.04 268.102L207.6 268.272C207.723 268.166 207.878 268.106 208.04 268.102Z" fill="#181818"/>
<path d="M497.57 339.35L497.47 339.47C497.47 339.42 497.36 339.36 497.37 339.32C497.38 339.28 497.46 339.23 497.5 339.18L497.57 339.35Z" fill="#181818"/>
<path d="M619.47 260.47H610.67C610.67 257.543 610.67 254.613 610.67 251.68H619.47C619.52 254.62 619.47 257.55 619.47 260.47Z" fill="#181818"/>
<path d="M619.21 242.953H627.76V251.743H619.47C619.383 248.816 619.297 245.886 619.21 242.953Z" fill="#181818"/>
<path d="M448.67 268.707C448.67 265.297 448.67 261.887 448.67 258.477H458.91C459.077 261.89 459.243 265.307 459.41 268.727L448.67 268.707Z" fill="#181818"/>
<path d="M469.11 247.797L469.35 258.027L458.85 258.547C458.85 254.967 458.85 251.377 458.85 247.797H469.11Z" fill="#181818"/>
</svg>
