<svg width="49" height="48" viewBox="0 0 49 48" fill="none" xmlns="http://www.w3.org/2000/svg">
<path d="M47.9152 24C47.9152 10.7452 37.4321 0 24.5006 0C11.569 0 1.08594 10.7452 1.08594 24C1.08594 37.2548 11.569 48 24.5006 48C37.4321 48 47.9152 37.2548 47.9152 24Z" fill="#B7B7B7" fill-opacity="0.1"/>
<path fill-rule="evenodd" clip-rule="evenodd" d="M12.8438 22.6433C19.1311 19.8918 23.3227 18.0763 25.4184 17.2011C31.4081 14.7009 32.65 14.2633 33.4607 14.2503C33.6375 14.2459 34.0386 14.2936 34.2974 14.5015C34.5172 14.6793 34.5776 14.9176 34.6035 15.0865C34.6294 15.2555 34.6682 15.6412 34.638 15.9401C34.3146 19.3675 32.9087 27.6783 32.1973 31.5173C31.8954 33.1422 31.3003 33.6839 30.7225 33.7402C29.4719 33.8572 28.519 32.9082 27.3071 32.1109C25.4097 30.8631 24.3361 30.0831 22.4947 28.8612C20.3645 27.453 21.7444 26.6773 22.9605 25.4122C23.2795 25.0828 28.7949 20.0392 28.9027 19.5799C28.9156 19.5235 28.9286 19.3113 28.8036 19.1986C28.6784 19.0859 28.4931 19.1249 28.3551 19.1553C28.1653 19.1986 25.1338 21.2134 19.2605 25.1955C18.398 25.7891 17.6218 26.0794 16.9232 26.0621C16.1514 26.0447 14.6723 25.6245 13.5726 25.2648C12.2229 24.8229 11.1492 24.5889 11.2397 23.8392C11.2915 23.4492 11.8262 23.0506 12.8438 22.6433Z" fill="#B7B7B7"/>
</svg>
