<svg width="42" height="40" viewBox="0 0 42 40" fill="none" xmlns="http://www.w3.org/2000/svg">
<path d="M41 20C41 8.9543 32.0457 0 21 0C9.9543 0 1 8.9543 1 20C1 31.0457 9.9543 40 21 40C32.0457 40 41 31.0457 41 20Z" fill="#B7B7B7" fill-opacity="0.1"/>
<path fill-rule="evenodd" clip-rule="evenodd" d="M11.0466 18.8694C16.417 16.5765 19.9973 15.0636 21.7874 14.3342C26.9036 12.2507 27.9644 11.8861 28.6569 11.8752C28.8079 11.8716 29.1505 11.9113 29.3715 12.0846C29.5593 12.2327 29.6109 12.4313 29.633 12.5721C29.6551 12.7129 29.6883 13.0343 29.6625 13.2834C29.3862 16.1396 28.1854 23.0652 27.5777 26.2644C27.3198 27.6185 26.8115 28.0699 26.318 28.1168C25.2498 28.2143 24.4358 27.4235 23.4007 26.7591C21.78 25.7192 20.8629 25.0692 19.2901 24.051C17.4705 22.8775 18.6492 22.2311 19.6879 21.1768C19.9604 20.9023 24.6715 16.6993 24.7636 16.3166C24.7746 16.2696 24.7857 16.0927 24.6789 15.9988C24.572 15.9049 24.4137 15.9374 24.2958 15.9627C24.1337 15.9988 21.5443 17.6778 16.5275 20.9962C15.7908 21.4909 15.1278 21.7328 14.5311 21.7184C13.8718 21.7039 12.6084 21.3537 11.6691 21.054C10.5162 20.6857 9.59908 20.4907 9.67643 19.866C9.72063 19.541 10.1774 19.2088 11.0466 18.8694Z" fill="#B7B7B7"/>
</svg>
