<svg width="48" height="48" viewBox="0 0 48 48" fill="none" xmlns="http://www.w3.org/2000/svg">
<g clip-path="url(#clip0_696_25389)">
<path d="M48 24C48 10.7452 37.2548 0 24 0C10.7452 0 0 10.7452 0 24C0 37.2548 10.7452 48 24 48C37.2548 48 48 37.2548 48 24Z" fill="#07ACFF"/>
<path fill-rule="evenodd" clip-rule="evenodd" d="M11.5809 22.6085C17.7569 19.7865 21.8742 17.9244 23.9328 17.0267C29.8165 14.4624 31.0364 14.0137 31.8328 14.0003C32.0064 13.9958 32.4004 14.0447 32.6546 14.258C32.8705 14.4403 32.9299 14.6847 32.9553 14.858C32.9807 15.0313 33.0189 15.4269 32.9892 15.7334C32.6715 19.2488 31.2905 27.7726 30.5917 31.71C30.2951 33.3766 29.7106 33.9322 29.143 33.9899C27.9146 34.1099 26.9785 33.1366 25.7881 32.3189C23.9243 31.039 22.8697 30.239 21.061 28.9858C18.9684 27.5415 20.3239 26.746 21.5184 25.4484C21.8318 25.1105 27.2496 19.9376 27.3555 19.4666C27.3681 19.4088 27.3809 19.191 27.2581 19.0755C27.1351 18.9599 26.9531 18.9999 26.8175 19.031C26.6311 19.0755 23.6533 21.1419 17.884 25.2261C17.0368 25.835 16.2743 26.1327 15.5881 26.115C14.8299 26.0971 13.377 25.6661 12.2968 25.2972C10.971 24.8439 9.91629 24.6039 10.0052 23.8351C10.0561 23.4351 10.5814 23.0262 11.5809 22.6085Z" fill="black"/>
</g>
<defs>
<clipPath id="clip0_696_25389">
<rect width="48" height="48" fill="white"/>
</clipPath>
</defs>
</svg>
