<svg width="299" height="327" viewBox="0 0 299 327" fill="none" xmlns="http://www.w3.org/2000/svg">
<path fill-rule="evenodd" clip-rule="evenodd" d="M47.2903 0H252.049C259.874 0 266.395 1.42794 274.22 5.71179C283.35 9.99563 288.023 16.774 291.663 22.569C291.663 22.569 292.489 24.0736 293.038 25.0767C296.951 32.2164 299 39.9825 299 49.9782C299 58.5459 297.696 67.1135 292.479 75.6812L163.364 318.432C160.755 324.144 155.539 327 149.018 327C143.801 327 138.584 324.144 134.671 318.432L8.16444 75.6812C5.55605 69.9694 0.33926 62.8297 0.33926 51.4061C-0.964935 41.4105 1.64345 32.8428 5.55604 24.2751C9.46862 15.7074 20.1779 7.03323 24.7638 5.01592C27.5153 3.52249 42.0735 0 47.2903 0ZM133.367 34.2707H47.2903C42.0735 34.2707 39.4651 34.2707 38.1609 35.6987C35.5525 37.1266 34.2483 38.5546 32.9441 41.4105C31.6399 42.8384 31.6399 45.6943 31.6399 48.5502C31.6399 49.9782 32.9441 51.4061 35.5525 57.1179L133.367 242.751V34.2707ZM164.668 25.5782V244.179L263.787 57.1179C265.091 54.262 265.091 51.4061 265.091 48.5502C265.091 45.6943 265.064 43.6334 263.689 41.1258C262.313 39.1196 262.313 39.1196 261.396 38.1166L259.874 37.1266C257.268 35.6987 254.657 35.6987 250.745 35.6987H164.668V25.5782Z" fill="#07ACFF"/>
</svg>
