<svg width="326" height="326" viewBox="0 0 326 326" fill="none" xmlns="http://www.w3.org/2000/svg">
<path fill-rule="evenodd" clip-rule="evenodd" d="M51.5607 0H274.809C283.341 0 290.451 1.42358 298.983 5.69432C308.936 9.96506 314.624 17.083 317.468 22.7773C317.468 22.7773 317.468 24.2009 318.89 24.2009C323.156 31.3188 326 39.8603 326 49.8253C326 58.3668 324.578 66.9083 318.89 75.4498L178.116 317.458C175.272 323.153 169.584 326 162.474 326C156.786 326 151.098 323.153 146.832 317.458L8.9017 75.4498C6.05776 69.7554 0.369896 62.6376 0.369896 51.2489C-1.05207 41.2838 1.79186 32.7424 6.05775 24.2009C10.3236 15.6594 17.4335 8.54148 27.3872 5.69432C35.919 -5.51538e-06 45.8728 0 51.5607 0ZM145.41 34.1659H51.5607C45.8728 34.1659 43.0289 34.1659 41.6069 35.5895C38.763 37.0131 37.341 38.4367 35.919 41.2838C34.4971 42.7074 34.4971 45.5546 34.4971 48.4017C34.4971 49.8253 35.919 51.2489 38.7629 56.9432L145.41 242.009V34.1659ZM179.538 34.1659V243.432L287.607 56.9432C289.029 54.0961 289.029 51.2489 289.029 48.4017C289.029 45.5546 289.029 42.7074 287.607 41.2838C286.185 39.8603 286.185 38.4367 284.763 38.4367L283.341 37.0131C280.497 35.5895 277.653 35.5895 273.387 35.5895H179.538V34.1659Z" fill="black"/>
</svg>
