<svg width="963" height="180" viewBox="0 0 963 180" fill="none" xmlns="http://www.w3.org/2000/svg">
<mask id="mask0_614_27459" style="mask-type:luminance" maskUnits="userSpaceOnUse" x="0" y="0" width="963" height="180">
<path d="M963 0H0V179.597H963V0Z" fill="white"/>
</mask>
<g mask="url(#mask0_614_27459)">
<mask id="mask1_614_27459" style="mask-type:luminance" maskUnits="userSpaceOnUse" x="0" y="0" width="959" height="180">
<path d="M958.763 0H0V179.597H958.763V0Z" fill="white"/>
</mask>
<g mask="url(#mask1_614_27459)">
<path opacity="0.5" d="M87.1641 81.9809L173.248 42.8789L87.1641 179.06V81.9809Z" fill="#838688"/>
<path opacity="0.75" d="M87.1624 81.9809L1.07812 42.8789L87.1624 179.06V81.9809Z" fill="#D3D3D3"/>
<path d="M87.1624 81.9802L1.07812 42.8788L87.1624 3.77734L173.247 42.8788L87.1624 81.9802Z" fill="#D3D3D3"/>
<path d="M266.932 137.64V63.6202H237.812V46.418H317.112V63.6202H287.992V137.64H266.932Z" fill="#B7B7B7"/>
<path d="M353.183 138.683C345.729 138.683 339.1 137.119 333.293 133.992C327.573 130.864 323.023 126.607 319.643 121.221C316.35 115.748 314.703 109.536 314.703 102.586C314.703 95.5484 316.35 89.3365 319.643 83.9506C323.023 78.4771 327.573 74.2206 333.293 71.1798C339.1 68.0521 345.729 66.4883 353.183 66.4883C360.55 66.4883 367.137 68.0521 372.943 71.1798C378.75 74.2206 383.3 78.4337 386.593 83.8202C389.886 89.2068 391.533 95.4615 391.533 102.586C391.533 109.536 389.886 115.748 386.593 121.221C383.3 126.607 378.75 130.864 372.943 133.992C367.137 137.119 360.55 138.683 353.183 138.683ZM353.183 122.002C356.563 122.002 359.596 121.221 362.283 119.657C364.969 118.093 367.093 115.878 368.653 113.011C370.213 110.057 370.993 106.582 370.993 102.586C370.993 98.5023 370.213 95.0278 368.653 92.1601C367.093 89.2937 364.969 87.0782 362.283 85.5144C359.596 83.9506 356.563 83.1692 353.183 83.1692C349.803 83.1692 346.769 83.9506 344.082 85.5144C341.396 87.0782 339.23 89.2937 337.583 92.1601C336.023 95.0278 335.243 98.5023 335.243 102.586C335.243 106.582 336.023 110.057 337.583 113.011C339.23 115.878 341.396 118.093 344.082 119.657C346.769 121.221 349.803 122.002 353.183 122.002Z" fill="#B7B7B7"/>
<path d="M447.596 66.4883C453.143 66.4883 458.082 67.6177 462.416 69.8766C466.836 72.0486 470.303 75.4369 472.816 80.041C475.329 84.5587 476.586 90.3791 476.586 97.5032V137.641H456.306V100.631C456.306 94.9843 455.049 90.8141 452.536 88.1208C450.109 85.4275 446.643 84.0815 442.136 84.0815C438.929 84.0815 436.026 84.7759 433.426 86.166C430.912 87.4692 428.919 89.5109 427.446 92.291C426.059 95.0712 425.366 98.6333 425.366 102.977V137.641H405.086V67.5308H424.455V86.9479L420.816 81.0835C423.329 76.3926 426.926 72.7871 431.606 70.2676C436.286 67.748 441.616 66.4883 447.596 66.4883Z" fill="#B7B7B7"/>
<path d="M511.739 123.305L512.259 98.5455L544.889 67.53H569.069L537.739 99.4578L527.209 108.058L511.739 123.305ZM494.969 137.64V40.9453H515.249V137.64H494.969ZM547.1 137.64L523.439 108.188L536.179 92.4205L571.669 137.64H547.1Z" fill="#B7B7B7"/>
<path d="M612.583 138.683C604.608 138.683 597.589 137.119 591.523 133.992C585.542 130.864 580.906 126.607 577.613 121.221C574.319 115.748 572.672 109.536 572.672 102.586C572.672 95.5484 574.276 89.3365 577.482 83.9506C580.775 78.4771 585.239 74.2206 590.872 71.1798C596.505 68.0521 602.875 66.4883 609.983 66.4883C616.832 66.4883 622.983 67.9652 628.442 70.9192C633.991 73.7862 638.367 77.9564 641.575 83.4293C644.777 88.8158 646.384 95.2884 646.384 102.846C646.384 103.628 646.342 104.541 646.252 105.583C646.167 106.538 646.077 107.45 645.993 108.319H589.182V96.4607H635.334L627.533 99.9793C627.533 96.3303 626.793 93.1598 625.325 90.4666C623.85 87.7733 621.816 85.6882 619.215 84.2118C616.615 82.6474 613.576 81.8654 610.115 81.8654C606.648 81.8654 603.567 82.6474 600.882 84.2118C598.282 85.6882 596.245 87.8167 594.773 90.5969C593.299 93.2902 592.562 96.5041 592.562 100.24V103.368C592.562 107.19 593.385 110.579 595.033 113.532C596.766 116.399 599.149 118.615 602.182 120.178C605.3 121.655 608.941 122.394 613.1 122.394C616.832 122.394 620.082 121.829 622.851 120.7C625.71 119.57 628.31 117.876 630.651 115.617L641.443 127.345C638.235 130.994 634.208 133.818 629.351 135.817C624.5 137.727 618.908 138.683 612.583 138.683Z" fill="#B7B7B7"/>
<path d="M694.598 138.683C686.623 138.683 679.605 137.119 673.538 133.992C667.556 130.864 662.921 126.607 659.629 121.221C656.331 115.748 654.688 109.536 654.688 102.586C654.688 95.5484 656.288 89.3365 659.496 83.9506C662.789 78.4771 667.255 74.2206 672.888 71.1798C678.522 68.0521 684.89 66.4883 691.998 66.4883C698.841 66.4883 704.998 67.9652 710.457 70.9192C716.007 73.7862 720.382 77.9564 723.584 83.4293C726.792 88.8158 728.399 95.2884 728.399 102.846C728.399 103.628 728.351 104.541 728.267 105.583C728.182 106.538 728.092 107.45 728.008 108.319H671.197V96.4607H717.349L709.548 99.9793C709.548 96.3303 708.808 93.1598 707.34 90.4666C705.865 87.7733 703.825 85.6882 701.224 84.2118C698.624 82.6474 695.591 81.8654 692.124 81.8654C688.657 81.8654 685.582 82.6474 682.897 84.2118C680.297 85.6882 678.263 87.8167 676.788 90.5969C675.314 93.2902 674.579 96.5041 674.579 100.24V103.368C674.579 107.19 675.398 110.579 677.047 113.532C678.781 116.399 681.164 118.615 684.197 120.178C687.315 121.655 690.956 122.394 695.115 122.394C698.841 122.394 702.091 121.829 704.866 120.7C707.725 119.57 710.325 117.876 712.666 115.617L723.458 127.345C720.25 130.994 716.223 133.818 711.366 135.817C706.515 137.727 700.924 138.683 694.598 138.683Z" fill="#B7B7B7"/>
<path d="M783.235 138.683C777.349 138.683 772.191 137.38 767.767 134.774C763.349 132.168 759.888 128.214 757.373 122.914C754.941 117.529 753.725 110.752 753.725 102.586C753.725 94.3327 754.899 87.5561 757.234 82.2564C759.582 76.9573 762.964 73.0043 767.382 70.3979C771.8 67.7915 777.084 66.4883 783.235 66.4883C789.826 66.4883 795.718 68.0087 800.924 71.0495C806.209 74.0034 810.368 78.1736 813.401 83.5596C816.519 88.9462 818.078 95.2884 818.078 102.586C818.078 109.971 816.519 116.356 813.401 121.742C810.368 127.129 806.209 131.299 800.924 134.252C795.718 137.206 789.826 138.683 783.235 138.683ZM741.898 162.922V67.5308H761.267V81.8654L760.882 102.716L762.176 123.436V162.922H741.898ZM779.726 122.002C783.109 122.002 786.094 121.221 788.7 119.657C791.391 118.093 793.509 115.878 795.068 113.011C796.717 110.057 797.542 106.582 797.542 102.586C797.542 98.5023 796.717 95.0278 795.068 92.1601C793.509 89.2937 791.391 87.0782 788.7 85.5144C786.094 83.9506 783.109 83.1692 779.726 83.1692C776.344 83.1692 773.316 83.9506 770.626 85.5144C767.942 87.0782 765.823 89.2937 764.258 92.1601C762.699 95.0278 761.917 98.5023 761.917 102.586C761.917 106.582 762.699 110.057 764.258 113.011C765.823 115.878 767.942 118.093 770.626 119.657C773.316 121.221 776.344 122.002 779.726 122.002Z" fill="#B7B7B7"/>
<path d="M866.362 138.683C858.393 138.683 851.363 137.119 845.302 133.992C839.319 130.864 834.679 126.607 831.387 121.221C828.094 115.748 826.445 109.536 826.445 102.586C826.445 95.5484 828.052 89.3365 831.26 83.9506C834.553 78.4771 839.018 74.2206 844.646 71.1798C850.286 68.0521 856.653 66.4883 863.756 66.4883C870.611 66.4883 876.762 67.9652 882.221 70.9192C887.764 73.7862 892.146 77.9564 895.348 83.4293C898.562 88.8158 900.157 95.2884 900.157 102.846C900.157 103.628 900.121 104.541 900.031 105.583C899.94 106.538 899.856 107.45 899.772 108.319H842.961V96.4607H889.107L881.306 99.9793C881.306 96.3303 880.578 93.1598 879.097 90.4666C877.629 87.7733 875.588 85.6882 872.994 84.2118C870.394 82.6474 867.355 81.8654 863.894 81.8654C860.421 81.8654 857.346 82.6474 854.655 84.2118C852.061 85.6882 850.021 87.8167 848.552 90.5969C847.078 93.2902 846.343 96.5041 846.343 100.24V103.368C846.343 107.19 847.162 110.579 848.811 113.532C850.544 116.399 852.928 118.615 855.955 120.178C859.079 121.655 862.72 122.394 866.879 122.394C870.611 122.394 873.855 121.829 876.63 120.7C879.495 119.57 882.095 117.876 884.43 115.617L895.222 127.345C892.014 130.994 887.981 133.818 883.13 135.817C878.279 137.727 872.687 138.683 866.362 138.683Z" fill="#B7B7B7"/>
<path d="M913.664 137.641V67.5308H933.032V87.3389L930.3 81.6054C932.382 76.6526 935.723 72.9174 940.315 70.3979C944.901 67.7915 950.493 66.4883 957.077 66.4883V85.2538C956.217 85.1669 955.44 85.124 954.742 85.124C954.05 85.0372 953.31 84.9937 952.533 84.9937C946.984 84.9937 942.476 86.6004 939.015 89.8149C935.633 92.942 933.947 97.8514 933.947 104.541V137.641H913.664Z" fill="#B7B7B7"/>
</g>
</g>
</svg>
