<svg width="983" height="226" viewBox="0 0 983 226" fill="none" xmlns="http://www.w3.org/2000/svg">
<path d="M305.185 161V87.213H277V71H353V87.213H324.815V161H305.185Z" fill="#B7B7B7"/>
<path d="M356 115.435C356 106.055 357.733 97.9097 361.198 91.0023C364.749 84.0092 369.82 78.5937 376.414 74.7559C383.009 70.9186 390.828 69 399.873 69C408.918 69 416.738 70.9186 423.331 74.7559C429.925 78.5937 434.997 84.0092 438.547 91.0023C442.182 97.9097 444 106.012 444 115.308C444 124.774 442.182 133.003 438.547 139.996C434.997 146.904 429.925 152.321 423.331 156.243C416.738 160.081 408.918 162 399.873 162C390.828 162 383.009 160.081 376.414 156.243C369.905 152.321 364.875 146.863 361.326 139.869C357.775 132.876 356 124.731 356 115.435ZM376.668 115.435C376.668 124.731 378.57 132.023 382.375 137.31C386.263 142.513 392.096 145.114 399.873 145.114C407.481 145.114 413.272 142.513 417.245 137.31C421.218 132.023 423.204 124.731 423.204 115.435C423.204 106.055 421.218 98.8054 417.245 93.6893C413.356 88.4868 407.566 85.8856 399.873 85.8856C392.096 85.8856 386.263 88.4868 382.375 93.6893C378.57 98.8054 376.668 106.055 376.668 115.435Z" fill="#B7B7B7"/>
<path d="M459 161V71H473.665L522.083 133.17H518.669V71H537V161H522.335L474.043 98.8306H477.331V161H459Z" fill="#B7B7B7"/>
<path d="M615.769 161L584 71H604.459L627.207 140.446H621.742L646.521 71H661.007L683.752 140.446H678.668L702.811 71H722L689.978 161H673.839L651.855 97.0424H654.781L632.036 161H615.769Z" fill="#B7B7B7"/>
<path d="M748.903 162C743.375 162 738.512 160.647 734.322 157.94C730.132 155.233 726.868 151.383 724.523 146.392C722.172 141.401 721 135.395 721 128.373C721 121.436 722.172 115.472 724.523 110.481C726.868 105.489 730.132 101.682 734.322 99.0602C738.512 96.3536 743.375 95 748.903 95C754.019 95 758.585 96.2686 762.608 98.807C766.712 101.26 769.396 104.602 770.649 108.831H769.266L770.778 96.2686H789C788.747 99.0602 788.5 101.894 788.247 104.771C788.081 107.562 787.994 110.311 787.994 113.019V160.605H769.143L769.013 148.549H770.525C769.18 152.61 766.502 155.867 762.479 158.321C758.456 160.773 753.932 162 748.903 162ZM754.685 147.533C759.042 147.533 762.565 145.969 765.243 142.839C767.927 139.709 769.266 134.887 769.266 128.373C769.266 121.859 767.927 117.08 765.243 114.034C762.565 110.988 759.042 109.465 754.685 109.465C750.329 109.465 746.812 110.988 744.127 114.034C741.449 117.08 740.104 121.859 740.104 128.373C740.104 134.887 741.406 139.709 744.004 142.839C746.682 145.969 750.249 147.533 754.685 147.533Z" fill="#B7B7B7"/>
<path d="M804 161V67H823V161H804Z" fill="#B7B7B7"/>
<path d="M839 161V67H858V161H839Z" fill="#B7B7B7"/>
<path d="M905.655 162C894.451 162 885.705 158.996 879.422 152.99C873.145 146.984 870 138.82 870 128.5C870 121.817 871.319 115.98 873.945 110.988C876.665 105.997 880.397 102.106 885.155 99.3135C889.994 96.438 895.639 95 902.091 95C908.462 95 913.763 96.3536 918.008 99.0602C922.341 101.767 925.567 105.574 927.686 110.481C929.893 115.303 931 120.928 931 127.357V131.8H885.792V122.282H916.989L914.826 124.059C914.826 118.729 913.726 114.711 911.513 112.004C909.393 109.212 906.292 107.816 902.222 107.816C897.721 107.816 894.239 109.465 891.775 112.765C889.4 116.065 888.212 120.802 888.212 126.977V129.008C888.212 135.268 889.737 139.921 892.794 142.966C895.939 146.012 900.434 147.533 906.292 147.533C909.775 147.533 913.044 147.111 916.102 146.265C919.24 145.335 922.216 143.896 925.017 141.95L930.362 154.64C927.136 157.009 923.404 158.828 919.159 160.097C914.995 161.365 910.5 162 905.655 162Z" fill="#B7B7B7"/>
<path d="M972.561 162C964.16 162 957.834 159.907 953.59 155.721C949.346 151.451 947.22 145.086 947.22 136.63V110.108H935V95.6286H947.22V79.7411L966.448 75V95.6286H983V110.108H966.448V135.605C966.448 139.705 967.298 142.524 968.998 144.061C970.692 145.599 972.855 146.368 975.487 146.368C977.099 146.368 978.418 146.283 979.437 146.111C980.537 145.856 981.687 145.513 982.875 145.086V160.078C981.262 160.761 979.562 161.23 977.781 161.487C975.999 161.828 974.261 162 972.561 162Z" fill="#B7B7B7"/>
<path fill-rule="evenodd" clip-rule="evenodd" d="M111.501 226C173.08 226 223 175.408 223 113C223 50.5917 173.08 0 111.501 0C49.9203 0 0 50.5917 0 113C0 175.408 49.9203 226 111.501 226ZM141.592 75.3335H79.0542C77.3805 75.3335 74.7271 75.3429 72.1079 76.5834C69.6661 77.7399 67.6356 79.6296 66.2869 81.9931C64.9382 84.3566 64.3346 87.082 64.5554 89.8018C64.7955 92.7604 66.1678 95.053 67.0555 96.5354L67.0735 96.5659L67.0891 96.5907L105.873 165.227C106.734 166.75 108.332 167.692 110.063 167.698C111.795 167.704 113.399 166.774 114.27 165.258L153.78 96.4745L153.797 96.4446L153.817 96.4098C155.084 94.1228 155.65 91.4981 155.65 89.0905C155.65 86.5553 155.027 84.1987 153.817 82.0161C153.747 81.8912 153.673 81.7686 153.592 81.6499C152.563 80.1252 151.095 78.062 148.326 76.7544C146.015 75.6625 143.805 75.3335 141.592 75.3335ZM79.0542 85.1594H105.233V144.32L75.4722 91.6542C75.4523 91.6194 75.4319 91.5845 75.4114 91.5497C74.42 89.8932 74.2519 89.4144 74.2184 88.9966C74.1595 88.2684 74.3214 87.5409 74.68 86.9123C75.0385 86.2836 75.5739 85.7874 76.2123 85.4858C76.6739 85.267 77.3346 85.1594 79.0542 85.1594ZM114.929 144.581V85.1594H141.592C142.772 85.1594 143.509 85.3198 144.229 85.6606C144.402 85.742 144.524 85.8297 144.683 85.9939C144.867 86.186 145.09 86.4664 145.453 86.9962C145.8 87.6746 145.954 88.3325 145.954 89.0905C145.954 90.0238 145.721 90.9379 145.378 91.5709L114.929 144.581Z" fill="#D3D3D3"/>
</svg>
