<svg width="49" height="48" viewBox="0 0 49 48" fill="none" xmlns="http://www.w3.org/2000/svg">
<g clip-path="url(#clip0_620_27836)">
<path d="M48.5 24C48.5 10.7452 37.7548 0 24.5 0C11.2452 0 0.5 10.7452 0.5 24C0.5 37.2548 11.2452 48 24.5 48C37.7548 48 48.5 37.2548 48.5 24Z" fill="#B7B7B7" fill-opacity="0.1"/>
<path fill-rule="evenodd" clip-rule="evenodd" d="M15.4375 14C15.0863 14 14.7646 14.1963 14.6039 14.5085C14.4432 14.8208 14.4705 15.1966 14.6746 15.4824L21.4023 24.9011L14.7627 31.7867C14.4033 32.1595 14.414 32.753 14.7868 33.1124C15.1595 33.4717 15.753 33.461 16.1124 33.0882L22.5108 26.4529L27.1746 32.9824C27.3506 33.2287 27.6348 33.375 27.9375 33.375H33.5625C33.9136 33.375 34.2354 33.1787 34.3961 32.8665C34.5568 32.5542 34.5295 32.1784 34.3254 31.8926L27.0658 21.7291L32.9874 15.5882C33.3468 15.2155 33.336 14.6221 32.9633 14.2627C32.5905 13.9033 31.997 13.914 31.6376 14.2868L25.9574 20.1774L21.8254 14.3926C21.6494 14.1462 21.3653 14 21.0625 14H15.4375ZM28.42 31.5L17.2592 15.875H20.5801L31.7408 31.5H28.42Z" fill="#B7B7B7"/>
</g>
<defs>
<clipPath id="clip0_620_27836">
<rect width="48" height="48" fill="white" transform="translate(0.5)"/>
</clipPath>
</defs>
</svg>
