<svg width="50" height="48" viewBox="0 0 50 48" fill="none" xmlns="http://www.w3.org/2000/svg">
<mask id="mask0_696_25399" style="mask-type:luminance" maskUnits="userSpaceOnUse" x="1" y="0" width="48" height="48">
<path d="M49 0H1V48H49V0Z" fill="white"/>
</mask>
<g mask="url(#mask0_696_25399)">
<path d="M49 24C49 10.7452 38.2548 0 25 0C11.7452 0 1 10.7452 1 24C1 37.2548 11.7452 48 25 48C38.2548 48 49 37.2548 49 24Z" fill="#07ACFF"/>
<path fill-rule="evenodd" clip-rule="evenodd" d="M15.9375 14C15.5863 14 15.2646 14.1963 15.1039 14.5085C14.9432 14.8208 14.9705 15.1966 15.1746 15.4824L21.9023 24.9011L15.2627 31.7867C14.9033 32.1595 14.914 32.753 15.2868 33.1124C15.6595 33.4717 16.253 33.461 16.6124 33.0882L23.0108 26.4529L27.6746 32.9824C27.8506 33.2287 28.1348 33.375 28.4375 33.375H34.0625C34.4136 33.375 34.7354 33.1787 34.8961 32.8665C35.0568 32.5542 35.0295 32.1784 34.8254 31.8926L27.5658 21.7291L33.4874 15.5882C33.8468 15.2155 33.836 14.6221 33.4633 14.2627C33.0905 13.9033 32.497 13.914 32.1376 14.2868L26.4574 20.1774L22.3254 14.3926C22.1494 14.1462 21.8653 14 21.5625 14H15.9375ZM28.92 31.5L17.7592 15.875H21.0801L32.2408 31.5H28.92Z" fill="black"/>
</g>
</svg>
