<svg width="1330" height="273" viewBox="0 0 1330 273" fill="none" xmlns="http://www.w3.org/2000/svg">
<path d="M941.904 119.545C931.489 154.06 921.084 188.545 910.689 223H882.629C868.788 178.744 854.992 134.608 841 89.9H868.894L897.24 192.738C900.471 182.193 903.278 173.155 905.95 164.117C912.893 141.085 919.897 118.084 926.644 94.9914C927.821 90.9544 929.376 89.0715 933.904 89.4179C941.451 89.9904 950.749 87.3241 955.836 90.9243C960.605 94.2985 960.937 103.984 963.066 110.944C970.653 135.828 978.2 160.728 985.707 185.643C986.205 187.315 986.809 188.957 987.835 192.015C988.937 188.61 989.707 186.471 990.31 184.287C998.386 154.808 1006.55 125.359 1014.46 95.8199C1015.74 90.9845 1017.66 89.0112 1022.87 89.3878C1029.55 89.8849 1036.3 89.5083 1044 89.5083C1029.95 134.457 1016.09 178.744 1002.23 223H974.13L943.172 119.454L941.904 119.545Z" fill="#B7B7B7"/>
<path d="M340.412 38H368.02V44.966C368.02 79.6753 367.777 114.4 368.187 149.109C368.165 158.155 369.397 167.161 371.847 175.875C376.525 191.462 387.717 200.699 404.391 202.099C411.326 202.797 418.322 202.62 425.212 201.572C440.747 198.924 450.375 189.039 454.066 174.28C455.989 166.23 456.947 157.983 456.921 149.711C457.224 114.806 457.057 79.886 457.057 44.966V38.1354H484.393C484.699 39.0328 484.903 39.9613 485 40.9037C484.909 80.548 485 120.192 484.423 159.836C484.179 168.306 482.606 176.686 479.761 184.676C471.18 209.395 452.562 222.771 426.821 225.298C414.349 226.612 401.748 226.079 389.433 223.719C360.685 217.881 342.356 195.133 340.761 164.079C339.683 143.211 340.138 122.268 340.047 101.371C339.941 82.4286 340.047 63.4867 340.047 44.5597C340.108 42.4835 340.305 40.3771 340.412 38Z" fill="#B7B7B7"/>
<path d="M1224.75 204.556V273H1198V89.5315H1223.99V107.342L1226.04 108.854C1226.23 107.681 1226.62 106.547 1227.18 105.497C1249.02 77.5573 1297.18 79.7495 1316.47 111.409C1334.24 140.634 1334.69 171.612 1316.73 200.928C1297.16 232.678 1252.37 235.384 1227.5 207.444C1226.86 206.809 1226.2 206.144 1224.75 204.556ZM1302.63 158.61C1301.39 150.37 1300.85 143.824 1299.35 137.443C1295.33 120.344 1282.93 109.035 1267.64 107.901C1248.65 106.495 1234.82 114.417 1227.94 131.849C1224.5 140.13 1222.86 149.038 1223.12 157.993C1223.39 166.947 1225.54 175.746 1229.45 183.813C1236.3 198.191 1248.36 205.237 1264.66 204.647C1280.96 204.058 1291.79 195.863 1297.24 181.137C1300.05 173.517 1301.11 165.187 1302.63 158.61Z" fill="#B7B7B7"/>
<path d="M17.67 217.75C13.89 211.23 10.36 205.43 7.12 199.49C-0.32 185.86 -2.95 171.92 5.53 157.74C7.87 153.84 11.04 150.42 13.84 146.74C20.26 138.44 27.02 130.28 30 120C31.7 114.12 32.05 107.85 33.83 102C35.2547 97.1649 37.4023 92.573 40.2 88.38C44.7 81.87 45.55 75.94 41.64 69.06C37.5 61.79 33.38 54.52 29.71 46.76C30.6215 47.6097 31.4579 48.5364 32.21 49.53C38.1 58.66 44.06 67.8 49.62 77.14C54.05 84.57 59.2 85.39 67.95 80.14C71.65 77.91 71.95 74.7 68.85 71.57C65.55 68.21 61.85 65.19 58.35 62.07C37.6 43.81 19.04 23.49 1.38 2.31C0.876697 1.56671 0.415957 0.795471 0 0C1.10318 0.675168 2.17123 1.40612 3.2 2.19C25.7133 21.91 48.2033 41.64 70.67 61.38C72.84 63.29 74.93 65.29 76.95 67.38C81.71 72.21 82.05 78.08 77.95 83.77C73.06 90.63 65.89 93.12 57.95 94.11C48.95 95.24 46.01 97.8 45.43 106.66C44.6899 117.391 41.7849 127.862 36.89 137.44C34.9898 141.02 33.6797 144.883 33.01 148.88C31.72 158.34 37.01 164.69 44.25 169.88C47.7529 172.186 51.094 174.728 54.25 177.49C55.7981 178.964 57.0398 180.73 57.9036 182.685C58.7675 184.64 59.2366 186.747 59.284 188.884C59.3314 191.021 58.9562 193.147 58.1798 195.138C57.4034 197.13 56.2412 198.949 54.76 200.49C47.32 208.44 37.62 212.33 27.47 215.34C24.2 216.25 20.71 216.99 17.67 217.75ZM14.6 170.9C14.01 171.2 12.6 171.49 12.14 172.3C11.8 172.87 12.82 174.15 13 175.16C13.18 176.17 13.1 177.44 13.2 178.57C13.31 179.98 13.01 181.98 13.79 182.62C14.4271 182.99 15.1403 183.209 15.8752 183.261C16.6101 183.313 17.3472 183.197 18.03 182.92C21.03 181.52 21.82 178.7 21.1 175.63C20.38 172.56 18.25 171.08 14.6 170.9Z" fill="#B7B7B7"/>
<path d="M1166.78 222.463H1141.91V208.07C1129.97 222.042 1115.31 226.118 1099.14 225.997C1079.52 225.847 1061.81 213.966 1056.98 197.948C1051.05 178.396 1058.58 160.349 1077.6 152.678C1089.6 147.881 1102.63 145.61 1115.19 142.256C1120.35 140.887 1125.66 139.985 1130.69 138.255C1136.53 136.24 1140.31 132.239 1140.56 125.607C1140.85 122.438 1140.18 119.257 1138.63 116.47C1137.09 113.684 1134.75 111.419 1131.91 109.965C1112.41 98.986 1089.3 109.664 1085.33 131.457C1085.18 132.209 1084.91 132.961 1084.52 134.36L1058.1 132.209C1059.08 115.274 1066.49 102.581 1080.82 94.7448C1100.55 83.9763 1121.5 83.5702 1142.3 91.2405C1156.64 96.5345 1166.07 107.574 1166.45 122.824C1167.45 155.807 1166.78 188.864 1166.78 222.463ZM1142.15 154.784C1126.21 159.221 1111.75 163.041 1097.44 167.387C1094.1 168.655 1091.09 170.642 1088.62 173.208C1079.68 181.585 1080.95 194.745 1091.11 201.633C1109.23 213.875 1136.03 203.723 1140.29 182.547C1141.97 174.125 1141.51 165.342 1142.15 154.724V154.784Z" fill="#B7B7B7"/>
<path d="M629.413 223H603.321V216.488C603.321 191.668 603.321 166.848 603.171 142.028C603.179 137.662 602.7 133.309 601.742 129.051C596.494 106.82 578.839 105.624 563.951 110.757C550.205 115.528 541.498 129.626 541.393 146.026C541.212 169.453 541.393 192.88 541.393 216.307C541.393 218.427 541.393 220.562 541.393 222.985H515V89.3145H540.701V105.154C548.897 99.8542 556.296 93.4032 564.883 89.8596C588.764 80.0165 627.338 87.4821 629.218 130.02C630.556 160.14 629.744 190.366 629.865 220.532C629.792 221.367 629.64 222.193 629.413 223Z" fill="#B7B7B7"/>
<path d="M712 178.532L738.544 174.804C738.898 176.645 739.129 177.958 739.39 179.256C743.404 199.285 758.614 206.424 776.653 205.504C782.867 205.055 788.942 203.479 794.57 200.855C801.229 197.836 804.582 191.723 804.366 184.358C804.151 176.992 799.307 172.283 792.478 170.276C780.698 166.834 768.718 164.087 756.845 160.993C751.97 159.725 747.033 158.639 742.312 156.948C729.132 152.224 719.674 144.104 717.844 129.569C716.076 115.547 722.181 104.936 733.331 96.8916C753.17 82.5529 789.526 82.3718 809.488 96.3483C819.73 103.503 825.374 113.313 827.066 125.992L801.552 130.248C800.891 129.599 800.414 129.357 800.368 129.041C796.508 104.152 768.825 102.325 753.831 110.385C751.076 111.692 748.788 113.784 747.265 116.388C745.742 118.992 745.056 121.987 745.296 124.98C745.649 131.742 750.202 135.546 756.061 137.055C769.072 140.587 782.297 143.334 795.354 146.76C801.18 148.305 806.881 150.273 812.41 152.647C837.385 163.212 835.478 192.448 823.329 206.243C815.042 215.614 803.697 221.871 791.233 223.948C769.241 228.129 748.171 226.649 729.594 212.658C718.644 204.356 713.369 192.916 712 178.532Z" fill="#B7B7B7"/>
<path d="M141.33 82.6602C153.9 93.1902 168.95 93.4002 183.33 95.6602C194.91 97.5202 206.22 100.12 216.39 106.34C239.27 120.34 242.58 147.79 232.53 166.95C232.24 167.49 231.85 167.95 231.44 168.63C230.29 164.82 229.58 161.11 228.08 157.76C224.49 149.76 217.39 145.23 209.94 141.6C200.42 136.95 190.39 133.34 180.85 128.72C171.85 124.33 162.65 119.88 154.37 114.25C143.78 107.05 140.02 96.1302 141.33 82.6602Z" fill="#B7B7B7"/>
<path d="M70.6201 15.5285C83.0501 14.8385 93.7301 18.0785 103.02 24.9685C109.02 29.3985 114.27 34.7685 119.67 39.9185C121.34 41.5185 122.67 42.1885 125.12 41.8385C146.81 38.6485 167.51 41.1285 186.62 52.7085C187.754 53.3278 188.721 54.2126 189.439 55.2871C190.156 56.3616 190.603 57.5939 190.74 58.8785C191.74 65.3585 191.74 71.6285 188.74 77.6885C188.434 78.2026 188.235 78.7733 188.155 79.3663C188.076 79.9593 188.117 80.5623 188.277 81.1389C188.437 81.7155 188.712 82.2537 189.085 82.7211C189.459 83.1886 189.923 83.5755 190.45 83.8585C192.84 85.3885 195.45 84.9585 196.73 82.7485C199.57 77.9885 201.88 72.9285 204.55 67.7485C212.31 76.6185 218.63 86.9285 221.06 100.239C220.06 99.4485 219.63 99.2385 219.41 98.8885C213.88 90.2085 205.41 87.1985 195.67 86.2985C184.18 85.2385 172.67 84.3885 161.26 82.5785C149.31 80.6785 139.5 74.4085 131.74 65.1085C123.6 55.3385 115.8 45.2685 107.37 35.7485C98.0601 25.2485 86.4601 18.3685 72.3201 16.2785C71.7306 16.0838 71.1613 15.8326 70.6201 15.5285Z" fill="#B7B7B7"/>
<path d="M200.2 233.438C200.388 232.835 200.611 232.244 200.87 231.668C206.87 219.938 205.37 208.508 198.87 197.668C193 187.768 186.47 178.258 180.39 168.478C174.51 159.008 170.78 148.968 173.32 137.558C173.46 136.892 173.63 136.262 173.83 135.668C173.983 135.281 174.16 134.904 174.36 134.538C174.72 134.538 175.16 134.408 175.43 134.538C186.33 140.808 197.43 146.748 208.05 153.468C236.35 171.398 232.05 209.908 211.05 227.098C207.84 229.728 204.26 231.908 200.85 234.298L200.2 233.438Z" fill="#B7B7B7"/>
<path d="M99.7602 220.709C103.16 215.069 106.65 213.509 111.76 214.649C114.093 215.098 116.218 216.291 117.817 218.048C119.416 219.806 120.403 222.034 120.63 224.399C121.19 230.609 119.07 235.519 113.44 238.499C106.83 241.989 100.36 240.959 94.5602 236.709C90.8951 233.942 87.4878 230.85 84.3802 227.469C76.8802 219.519 67.5202 215.739 56.8902 214.469C56.1105 214.38 55.3361 214.249 54.5702 214.079C54.0022 213.89 53.4477 213.663 52.9102 213.399C55.3002 211.449 57.3802 209.599 59.6202 207.969C73.6902 197.769 88.8302 190.479 106.79 190.879C123.59 191.249 137.24 199.739 141.71 213.529C143.88 220.209 144.77 227.299 146.13 234.229C149.26 250.229 157.97 255.539 173.69 250.799C174.78 250.479 175.89 250.239 177.46 249.799C168.28 258.299 152.4 259.799 143.64 248.469C139.46 243.049 136.7 236.539 133.29 230.529C131.03 226.529 129.13 222.309 126.4 218.689C120.48 210.859 109.91 207.689 101.87 210.759C95.4802 213.219 92.2602 219.849 94.4302 226.059C96.5402 232.059 104.63 236.229 110.43 234.269C112.321 233.681 113.982 232.518 115.183 230.943C116.383 229.368 117.064 227.458 117.13 225.479C117.3 221.889 115.9 219.019 112.49 217.559C108.73 215.939 105.09 215.829 102.06 219.219C101.342 219.787 100.572 220.285 99.7602 220.709Z" fill="#B7B7B7"/>
<path d="M689 223H663V89H689V223Z" fill="#B7B7B7"/>
<path d="M68.3501 22.6602C81.2001 24.7802 88.8001 30.9702 91.4601 42.8102C93.6701 52.6002 95.5701 62.5302 101.97 70.8102C103.49 72.8102 101.97 74.2702 99.9101 73.9502C97.0693 73.6602 94.2993 72.8856 91.7201 71.6602C78.0201 64.1502 72.0001 51.5302 69.3301 36.9802C68.5001 32.4502 68.6701 27.7402 68.3501 22.6602Z" fill="#B7B7B7"/>
<path d="M96.2798 180.48C104.51 174.72 113.72 172.98 122.97 171.2C130.16 169.82 137.61 168.93 144.38 166.34C158.56 160.91 164.51 149.04 161.62 134.2C161.225 132.52 161.04 130.796 161.07 129.07C164.408 132.37 166.554 136.687 167.17 141.34C170.22 160.34 156.26 173.26 139.45 175.8C125.72 177.88 111.87 179.14 98.0698 180.74C97.4656 180.717 96.8657 180.63 96.2798 180.48Z" fill="#B7B7B7"/>
<path d="M663 38H689V70H663V38Z" fill="#B7B7B7"/>
<path d="M86.3099 117.072C78.7199 117.272 76.0999 114.312 77.1499 106.762C77.9299 101.122 83.1499 96.1217 88.4399 95.8417C95.4399 95.4917 101.62 99.4717 103.08 105.322C103.96 108.812 102.95 111.842 99.7199 113.322C95.5199 115.232 91.0199 116.512 86.6499 118.062L86.3099 117.072ZM90.1199 106.662C93.7999 106.722 96.9699 104.582 97.0399 102.262C97.1099 99.9417 94.1999 97.7017 90.7499 97.6617C87.1099 97.6117 83.7499 99.7717 84.0499 102.242C84.5099 106.002 87.7299 106.142 90.1199 106.662Z" fill="#B7B7B7"/>
<path d="M195.42 72.7305C195.42 68.9105 195.16 65.0805 195.47 61.2905C196.15 52.9505 192.38 47.2905 185.36 43.2905C181.94 41.547 178.698 39.4738 175.68 37.1005L192.04 42.2805L194.38 25.4805L195.2 25.6605C195.53 29.7705 195.33 34.0205 196.33 37.9605C197.293 41.6783 198.945 45.1823 201.2 48.2905C204.2 52.2905 207.98 55.7805 211.43 59.4805L210.71 60.4205L199.71 52.7405C198.81 59.9905 198 66.4305 197.2 72.8705L195.42 72.7305Z" fill="#B7B7B7"/>
</svg>
